{"glyphs":{"0":{"ha":709,"x_min":61,"x_max":650,"o":"m 359 732 q 130 614 214 732 q 61 365 61 515 q 193 38 61 136 q 354 -14 263 -14 q 582 109 499 -14 q 650 361 650 209 q 507 692 650 602 q 359 732 442 732 m 358 22 q 199 170 236 22 q 180 361 180 245 q 297 686 180 642 q 357 697 324 697 q 502 590 464 697 q 529 365 529 511 q 399 27 529 61 q 358 22 380 22 z "},"1":{"ha":567,"x_min":27,"x_max":547,"o":"m 300 719 l 27 538 l 52 499 l 263 635 l 263 47 l 77 35 l 77 0 l 547 0 q 522 35 547 30 q 511 37 517 37 l 372 47 l 372 719 l 300 719 z "},"2":{"ha":635,"x_min":41,"x_max":560,"o":"m 109 95 q 206 197 109 134 q 262 232 224 208 q 469 384 414 323 q 538 538 538 458 q 412 712 538 665 q 288 732 357 732 q 91 666 163 732 q 42 557 42 620 q 83 488 42 502 q 100 486 92 486 q 165 540 153 486 q 171 581 168 553 q 206 677 179 654 q 275 697 231 697 q 419 586 396 697 q 423 540 423 564 q 308 321 423 414 q 186 237 296 312 q 56 103 83 168 q 41 27 41 66 l 41 0 l 557 0 l 560 228 l 534 228 l 513 155 q 460 98 498 107 q 415 95 444 95 l 109 95 z "},"3":{"ha":675,"x_min":54,"x_max":602,"o":"m 579 692 l 579 719 l 75 719 l 72 495 l 103 495 l 127 571 q 184 623 142 616 q 205 625 194 624 l 448 624 l 202 340 l 232 316 q 328 336 281 336 q 465 244 423 336 q 488 133 488 195 q 313 -73 488 -60 q 286 -75 300 -75 q 197 -8 213 -75 q 190 34 193 5 q 159 117 182 99 q 117 127 142 127 q 57 81 68 127 q 54 61 54 71 q 156 -79 54 -30 q 305 -109 221 -109 q 551 3 467 -109 q 602 152 602 71 q 525 324 602 259 q 370 377 461 377 q 278 366 327 377 l 579 692 z "},"4":{"ha":673,"x_min":14,"x_max":618,"o":"m 618 -95 q 601 -60 618 -62 q 586 -58 594 -58 l 494 -58 l 494 117 l 618 117 l 618 157 l 494 157 l 494 423 l 467 423 l 453 372 q 422 320 442 327 q 399 316 412 316 l 391 316 l 391 159 l 73 160 q 499 669 498 511 q 438 732 496 731 q 370 681 395 732 q 347 623 362 665 q 209 359 290 467 q 14 160 130 256 l 22 119 l 391 118 l 391 -58 l 245 -58 l 245 -95 l 618 -95 z "},"5":{"ha":646,"x_min":61,"x_max":598,"o":"m 598 156 q 510 350 598 278 q 338 407 439 407 q 161 355 236 406 l 161 617 q 345 606 270 606 q 521 643 484 606 q 552 773 552 674 l 519 773 q 468 718 509 728 q 362 708 435 708 q 117 718 351 708 l 117 342 l 161 308 q 307 359 225 359 q 475 231 438 359 q 486 148 486 193 q 385 -54 486 -3 q 292 -75 345 -75 q 203 -9 218 -75 q 197 34 199 4 q 167 117 190 99 q 125 127 151 127 q 61 61 68 117 q 140 -66 61 -15 q 301 -109 208 -109 q 555 11 473 -109 q 598 156 598 76 z "},"6":{"ha":686,"x_min":68,"x_max":627,"o":"m 627 250 q 511 465 627 396 q 366 503 446 503 q 191 445 267 502 q 273 750 205 680 q 380 792 315 792 q 477 731 460 792 q 484 694 480 719 q 514 627 491 640 q 549 618 529 618 q 613 670 604 618 q 614 686 614 678 q 525 802 614 761 q 393 827 467 827 q 122 652 208 827 q 68 385 68 541 q 203 30 68 123 q 351 -14 264 -14 q 567 79 488 -14 q 627 250 627 149 m 183 236 q 289 452 183 406 q 351 464 319 464 q 494 362 456 464 q 510 255 510 316 q 385 26 510 53 q 349 22 368 22 q 198 134 237 22 q 183 236 183 180 z "},"7":{"ha":605,"x_min":34,"x_max":618,"o":"m 618 692 l 618 719 l 37 719 l 34 480 l 64 480 l 88 556 q 156 617 106 610 q 194 620 171 620 l 524 620 q 202 134 254 222 q 132 -43 132 14 q 198 -109 142 -103 q 266 -68 247 -109 q 305 61 271 -57 q 618 692 389 353 z "},"8":{"ha":730,"x_min":81,"x_max":642,"o":"m 346 -14 q 576 66 490 -14 q 642 209 642 127 q 525 389 642 312 q 460 429 498 407 q 593 601 576 487 q 595 631 595 616 q 484 802 595 750 q 363 827 429 827 q 153 742 224 827 q 110 616 110 689 q 237 435 110 514 q 270 416 254 426 q 91 259 126 377 q 81 199 81 229 q 202 15 81 72 q 346 -14 264 -14 m 216 665 q 309 781 216 754 q 374 789 339 789 q 517 726 465 789 q 549 629 549 684 q 471 477 549 536 q 422 449 448 460 q 258 559 297 514 q 216 665 216 608 m 127 202 q 208 347 127 290 q 315 392 254 380 q 480 290 441 327 q 536 176 536 240 q 422 35 536 69 q 336 24 382 24 q 164 96 224 24 q 127 202 127 141 z "},"9":{"ha":692,"x_min":61,"x_max":624,"o":"m 624 332 q 496 678 624 576 q 331 732 427 732 q 110 633 186 732 q 61 483 61 568 q 172 277 61 342 q 312 240 235 240 q 502 308 422 241 q 304 -73 492 -72 q 210 -14 227 -73 q 205 22 208 -3 q 176 90 198 76 q 137 99 160 99 q 75 50 84 99 q 73 34 73 42 q 157 -81 73 -41 q 288 -109 214 -109 q 594 119 519 -109 q 624 332 624 213 m 176 500 q 311 696 176 682 q 331 697 321 697 q 487 574 452 697 q 498 486 498 533 q 378 286 498 319 q 328 281 355 281 q 176 500 178 283 z "},"A":{"ha":831,"x_min":0,"x_max":831,"o":"m 831 0 q 810 34 831 30 q 796 35 803 35 l 750 35 l 439 814 l 389 814 l 85 35 l 0 35 l 0 0 l 241 0 q 220 34 241 30 q 206 35 213 35 l 140 35 l 241 298 l 525 298 l 627 35 l 538 35 l 538 0 l 831 0 m 510 338 l 256 338 l 382 666 l 510 338 z "},"Æ":{"ha":1180,"x_min":0,"x_max":1112,"o":"m 343 365 l 593 776 l 593 365 l 343 365 m 252 0 q 235 34 252 31 q 220 35 228 35 l 142 35 l 319 326 l 593 326 l 593 35 l 480 35 l 480 0 l 1105 0 l 1112 244 l 1085 244 l 1066 180 q 966 42 1032 65 q 922 35 945 35 l 709 35 l 709 400 l 985 400 l 985 439 l 709 439 l 709 779 l 922 779 q 1062 647 1020 779 q 1066 633 1065 639 l 1085 570 l 1112 570 l 1105 814 l 559 814 l 81 35 l 0 35 l 0 0 l 252 0 z "},"Á":{"ha":831,"x_min":0,"x_max":831,"o":"m 831 0 q 810 34 831 30 q 796 35 803 35 l 750 35 l 439 814 l 389 814 l 85 35 l 0 35 l 0 0 l 241 0 q 220 34 241 30 q 206 35 213 35 l 140 35 l 241 298 l 525 298 l 627 35 l 538 35 l 538 0 l 831 0 m 510 338 l 256 338 l 382 666 l 510 338 m 536 967 q 553 1005 552 986 q 517 1059 553 1040 q 491 1066 503 1066 q 452 1048 469 1065 q 387 952 441 1038 q 313 854 347 891 l 335 831 q 483 929 368 857 q 536 967 521 954 z "},"Ă":{"ha":831,"x_min":0,"x_max":831,"o":"m 831 0 q 810 34 831 30 q 796 35 803 35 l 750 35 l 439 814 l 389 814 l 85 35 l 0 35 l 0 0 l 241 0 q 220 34 241 30 q 206 35 213 35 l 140 35 l 241 298 l 525 298 l 627 35 l 538 35 l 538 0 l 831 0 m 510 338 l 256 338 l 382 666 l 510 338 m 418 955 q 548 1032 526 955 q 551 1043 549 1038 l 579 1043 q 494 884 579 925 q 414 868 458 868 q 258 972 293 868 q 247 1043 247 1006 l 274 1043 q 418 955 294 955 z "},"Â":{"ha":831,"x_min":0,"x_max":831,"o":"m 831 0 q 810 34 831 30 q 796 35 803 35 l 750 35 l 439 814 l 389 814 l 85 35 l 0 35 l 0 0 l 241 0 q 220 34 241 30 q 206 35 213 35 l 140 35 l 241 298 l 525 298 l 627 35 l 538 35 l 538 0 l 831 0 m 510 338 l 256 338 l 382 666 l 510 338 m 578 853 l 594 875 q 519 963 563 909 q 441 1042 465 1029 q 412 1048 427 1048 q 336 1000 377 1048 q 307 963 327 989 q 233 873 263 907 l 250 854 q 415 949 327 905 q 578 853 518 895 z "},"Ä":{"ha":831,"x_min":0,"x_max":831,"o":"m 831 0 q 810 34 831 30 q 796 35 803 35 l 750 35 l 439 814 l 389 814 l 85 35 l 0 35 l 0 0 l 241 0 q 220 34 241 30 q 206 35 213 35 l 140 35 l 241 298 l 525 298 l 627 35 l 538 35 l 538 0 l 831 0 m 510 338 l 256 338 l 382 666 l 510 338 m 358 951 q 319 1013 358 996 q 292 1019 305 1019 q 228 978 245 1019 q 222 951 222 964 q 266 887 222 903 q 292 883 278 883 q 353 925 336 883 q 358 951 358 937 m 606 951 q 566 1013 606 996 q 538 1019 552 1019 q 476 978 494 1019 q 471 951 471 964 q 513 887 471 903 q 538 883 526 883 q 601 925 585 883 q 606 951 606 937 z "},"À":{"ha":831,"x_min":0,"x_max":831,"o":"m 831 0 q 810 34 831 30 q 796 35 803 35 l 750 35 l 439 814 l 389 814 l 85 35 l 0 35 l 0 0 l 241 0 q 220 34 241 30 q 206 35 213 35 l 140 35 l 241 298 l 525 298 l 627 35 l 538 35 l 538 0 l 831 0 m 510 338 l 256 338 l 382 666 l 510 338 m 529 854 q 426 1000 494 892 q 391 1048 403 1035 q 351 1066 372 1066 q 296 1031 315 1066 q 289 1005 289 1019 q 307 967 290 985 q 416 895 320 954 q 509 831 472 860 l 529 854 z "},"Ā":{"ha":831,"x_min":0,"x_max":831,"o":"m 831 0 q 810 34 831 30 q 796 35 803 35 l 750 35 l 439 814 l 389 814 l 85 35 l 0 35 l 0 0 l 241 0 q 220 34 241 30 q 206 35 213 35 l 140 35 l 241 298 l 525 298 l 627 35 l 538 35 l 538 0 l 831 0 m 510 338 l 256 338 l 382 666 l 510 338 m 213 909 l 620 909 l 620 977 l 213 977 l 213 909 z "},"Ą":{"ha":831,"x_min":0,"x_max":834,"o":"m 831 0 q 810 34 831 30 q 796 35 803 35 l 750 35 l 439 814 l 389 814 l 85 35 l 0 35 l 0 0 l 241 0 q 220 34 241 30 q 206 35 213 35 l 140 35 l 241 298 l 525 298 l 627 35 l 538 35 l 538 0 l 761 0 q 589 -125 617 -41 q 583 -157 583 -142 q 647 -247 583 -220 q 713 -259 677 -259 q 834 -209 787 -258 l 818 -189 q 743 -220 780 -220 q 688 -164 693 -220 q 686 -152 686 -157 q 758 -31 686 -84 q 817 0 785 -12 l 831 0 m 510 338 l 256 338 l 382 666 l 510 338 z "},"Å":{"ha":831,"x_min":0,"x_max":831,"o":"m 831 0 q 810 34 831 30 q 796 35 803 35 l 750 35 l 449 791 q 559 873 533 803 q 566 917 566 895 q 495 1025 566 994 q 427 1038 464 1038 q 293 967 326 1038 q 282 916 282 943 q 349 804 282 838 q 381 793 365 798 l 85 35 l 0 35 l 0 0 l 241 0 q 220 34 241 30 q 206 35 213 35 l 140 35 l 241 298 l 525 298 l 627 35 l 538 35 l 538 0 l 831 0 m 510 338 l 256 338 l 382 666 l 510 338 m 355 913 q 401 1002 355 986 q 423 1006 412 1006 q 491 937 481 1006 q 492 916 492 926 q 449 826 492 846 q 423 821 437 821 q 357 895 363 821 q 355 913 355 905 z "},"Ã":{"ha":831,"x_min":0,"x_max":831,"o":"m 831 0 q 810 34 831 30 q 796 35 803 35 l 750 35 l 439 814 l 389 814 l 85 35 l 0 35 l 0 0 l 241 0 q 220 34 241 30 q 206 35 213 35 l 140 35 l 241 298 l 525 298 l 627 35 l 538 35 l 538 0 l 831 0 m 510 338 l 256 338 l 382 666 l 510 338 m 347 1035 q 444 991 388 1035 q 517 955 491 955 q 587 1024 567 955 q 590 1032 589 1028 l 618 1025 q 496 880 587 882 q 401 924 456 880 q 326 960 354 960 q 258 897 278 960 q 254 883 255 890 l 227 890 q 347 1035 258 1034 z "},"B":{"ha":799,"x_min":54,"x_max":738,"o":"m 686 629 q 589 783 686 732 q 435 814 525 814 l 54 814 l 54 779 l 163 779 l 163 35 l 54 35 l 54 0 l 439 0 q 696 111 614 0 q 738 239 738 170 q 642 407 738 347 q 538 444 597 433 q 673 567 636 480 q 686 629 686 600 m 403 779 q 562 655 543 779 q 564 618 564 637 q 495 486 564 530 q 400 460 454 460 l 279 460 l 279 779 l 403 779 m 426 423 q 591 319 549 423 q 608 236 608 281 q 540 73 608 132 q 433 35 495 35 l 279 35 l 279 423 l 426 423 z "},"C":{"ha":846,"x_min":68,"x_max":785,"o":"m 743 62 q 760 -3 743 5 q 785 -7 769 -7 l 785 250 l 753 250 q 476 24 684 26 q 236 202 300 24 q 205 407 205 289 q 345 751 205 661 q 480 789 406 789 q 726 629 650 789 q 749 571 739 601 l 781 571 l 777 821 q 741 802 747 821 q 736 749 736 785 q 602 812 697 788 q 475 827 540 827 q 146 669 260 827 q 68 410 68 556 q 178 111 68 232 q 481 -14 294 -14 q 743 62 618 -12 z "},"Ć":{"ha":846,"x_min":68,"x_max":785,"o":"m 743 62 q 760 -3 743 5 q 785 -7 769 -7 l 785 250 l 753 250 q 476 24 684 26 q 236 202 300 24 q 205 407 205 289 q 345 751 205 661 q 480 789 406 789 q 726 629 650 789 q 749 571 739 601 l 781 571 l 777 821 q 741 802 747 821 q 736 749 736 785 q 602 812 697 788 q 475 827 540 827 q 146 669 260 827 q 68 410 68 556 q 178 111 68 232 q 481 -14 294 -14 q 743 62 618 -12 m 564 1062 q 582 1100 581 1081 q 545 1154 582 1135 q 519 1161 532 1161 q 480 1143 498 1160 q 415 1047 469 1133 q 342 949 376 986 l 363 926 q 511 1024 396 952 q 564 1062 549 1048 z "},"Č":{"ha":846,"x_min":68,"x_max":785,"o":"m 743 62 q 760 -3 743 5 q 785 -7 769 -7 l 785 250 l 753 250 q 476 24 684 26 q 236 202 300 24 q 205 407 205 289 q 345 751 205 661 q 480 789 406 789 q 726 629 650 789 q 749 571 739 601 l 781 571 l 777 821 q 741 802 747 821 q 736 749 736 785 q 602 812 697 788 q 475 827 540 827 q 146 669 260 827 q 68 410 68 556 q 178 111 68 232 q 481 -14 294 -14 q 743 62 618 -12 m 444 951 q 526 1004 480 951 q 560 1044 536 1015 q 635 1134 605 1100 l 617 1154 q 442 1054 530 1099 q 267 1156 323 1118 l 250 1133 q 326 1044 281 1099 q 410 959 385 972 q 444 951 427 951 z "},"Ç":{"ha":846,"x_min":68,"x_max":785,"o":"m 743 62 q 760 -3 743 5 q 785 -7 769 -7 l 785 250 l 753 250 q 476 24 684 26 q 236 202 300 24 q 205 407 205 289 q 345 751 205 661 q 480 789 406 789 q 726 629 650 789 q 749 571 739 601 l 781 571 l 777 821 q 741 802 747 821 q 736 749 736 785 q 602 812 697 788 q 475 827 540 827 q 146 669 260 827 q 68 410 68 556 q 178 111 68 231 q 410 -8 270 12 l 357 -115 l 376 -127 q 445 -104 408 -104 q 518 -163 509 -104 q 519 -182 519 -172 q 465 -270 519 -252 q 439 -274 452 -274 q 345 -220 385 -273 l 323 -236 q 464 -308 369 -307 q 598 -251 553 -308 q 621 -184 621 -221 q 545 -81 621 -111 q 481 -71 514 -71 q 411 -84 442 -71 l 444 -12 q 481 -14 457 -14 q 743 62 618 -12 z "},"D":{"ha":921,"x_min":54,"x_max":846,"o":"m 54 814 l 54 779 l 163 779 l 163 35 l 54 35 l 54 0 l 429 0 q 730 114 612 0 q 846 407 846 227 q 675 749 846 640 q 433 814 571 814 l 54 814 m 429 779 q 696 583 643 779 q 716 412 716 511 q 486 39 716 75 q 433 35 460 35 l 279 35 l 279 779 l 429 779 z "},"Ď":{"ha":921,"x_min":54,"x_max":846,"o":"m 54 814 l 54 779 l 163 779 l 163 35 l 54 35 l 54 0 l 429 0 q 730 114 612 0 q 846 407 846 227 q 675 749 846 640 q 433 814 571 814 l 54 814 m 429 779 q 696 583 643 779 q 716 412 716 511 q 486 39 716 75 q 433 35 460 35 l 279 35 l 279 779 l 429 779 m 452 856 q 534 909 488 856 q 568 949 544 920 q 643 1039 613 1005 l 625 1059 q 450 959 538 1004 q 275 1061 331 1023 l 258 1038 q 334 949 289 1004 q 418 864 393 878 q 452 856 435 856 z "},"Đ":{"ha":921,"x_min":54,"x_max":846,"o":"m 54 814 l 54 779 l 163 779 l 163 448 l 68 448 l 68 393 l 163 393 l 163 35 l 54 35 l 54 0 l 429 0 q 730 114 612 0 q 846 407 846 227 q 675 749 846 640 q 433 814 571 814 l 54 814 m 429 779 q 696 583 643 779 q 716 412 716 511 q 486 39 716 75 q 433 35 460 35 l 279 35 l 279 393 l 448 393 l 448 448 l 279 448 l 279 779 l 429 779 z "},"E":{"ha":754,"x_min":54,"x_max":686,"o":"m 686 570 l 680 814 l 54 814 l 54 779 l 163 779 l 163 35 l 54 35 l 54 0 l 680 0 l 686 244 l 659 244 l 640 180 q 540 42 606 65 q 496 35 519 35 l 279 35 l 279 400 l 559 400 l 559 439 l 279 439 l 279 779 l 496 779 q 636 647 594 779 q 640 633 639 639 l 659 570 l 686 570 z "},"É":{"ha":754,"x_min":54,"x_max":686,"o":"m 686 570 l 680 814 l 54 814 l 54 779 l 163 779 l 163 35 l 54 35 l 54 0 l 680 0 l 686 244 l 659 244 l 640 180 q 540 42 606 65 q 496 35 519 35 l 279 35 l 279 400 l 559 400 l 559 439 l 279 439 l 279 779 l 496 779 q 636 647 594 779 q 640 633 639 639 l 659 570 l 686 570 m 518 967 q 536 1005 534 986 q 499 1059 536 1040 q 473 1066 486 1066 q 434 1048 452 1065 q 369 952 423 1038 q 296 854 330 891 l 317 831 q 465 929 350 857 q 518 967 503 954 z "},"Ě":{"ha":754,"x_min":54,"x_max":686,"o":"m 686 570 l 680 814 l 54 814 l 54 779 l 163 779 l 163 35 l 54 35 l 54 0 l 680 0 l 686 244 l 659 244 l 640 180 q 540 42 606 65 q 496 35 519 35 l 279 35 l 279 400 l 559 400 l 559 439 l 279 439 l 279 779 l 496 779 q 636 647 594 779 q 640 633 639 639 l 659 570 l 686 570 m 397 856 q 480 909 434 856 q 514 949 490 920 q 589 1039 559 1005 l 571 1059 q 396 959 484 1004 q 221 1061 277 1023 l 203 1038 q 279 949 235 1004 q 363 864 339 878 q 397 856 381 856 z "},"Ê":{"ha":754,"x_min":54,"x_max":686,"o":"m 686 570 l 680 814 l 54 814 l 54 779 l 163 779 l 163 35 l 54 35 l 54 0 l 680 0 l 686 244 l 659 244 l 640 180 q 540 42 606 65 q 496 35 519 35 l 279 35 l 279 400 l 559 400 l 559 439 l 279 439 l 279 779 l 496 779 q 636 647 594 779 q 640 633 639 639 l 659 570 l 686 570 m 560 853 l 576 875 q 502 963 545 909 q 423 1042 448 1029 q 395 1048 410 1048 q 319 1000 359 1048 q 289 963 309 989 q 216 873 245 907 l 232 854 q 397 949 309 905 q 560 853 500 895 z "},"Ë":{"ha":754,"x_min":54,"x_max":686,"o":"m 686 570 l 680 814 l 54 814 l 54 779 l 163 779 l 163 35 l 54 35 l 54 0 l 680 0 l 686 244 l 659 244 l 640 180 q 540 42 606 65 q 496 35 519 35 l 279 35 l 279 400 l 559 400 l 559 439 l 279 439 l 279 779 l 496 779 q 636 647 594 779 q 640 633 639 639 l 659 570 l 686 570 m 340 951 q 301 1013 340 996 q 274 1019 288 1019 q 210 978 228 1019 q 205 951 205 964 q 248 887 205 903 q 274 883 260 883 q 335 925 319 883 q 340 951 340 937 m 589 951 q 548 1013 589 996 q 521 1019 534 1019 q 458 978 476 1019 q 453 951 453 964 q 495 887 453 903 q 521 883 509 883 q 583 925 567 883 q 589 951 589 937 z "},"Ė":{"ha":754,"x_min":54,"x_max":686,"o":"m 686 570 l 680 814 l 54 814 l 54 779 l 163 779 l 163 35 l 54 35 l 54 0 l 680 0 l 686 244 l 659 244 l 640 180 q 540 42 606 65 q 496 35 519 35 l 279 35 l 279 400 l 559 400 l 559 439 l 279 439 l 279 779 l 496 779 q 636 647 594 779 q 640 633 639 639 l 659 570 l 686 570 m 469 951 q 427 1019 469 998 q 396 1025 411 1025 q 328 982 349 1025 q 321 951 321 967 q 366 882 321 901 q 396 876 381 876 q 463 920 444 876 q 469 951 469 935 z "},"È":{"ha":754,"x_min":54,"x_max":686,"o":"m 686 570 l 680 814 l 54 814 l 54 779 l 163 779 l 163 35 l 54 35 l 54 0 l 680 0 l 686 244 l 659 244 l 640 180 q 540 42 606 65 q 496 35 519 35 l 279 35 l 279 400 l 559 400 l 559 439 l 279 439 l 279 779 l 496 779 q 636 647 594 779 q 640 633 639 639 l 659 570 l 686 570 m 511 854 q 408 1000 476 892 q 373 1048 385 1035 q 334 1066 354 1066 q 278 1031 297 1066 q 271 1005 271 1019 q 289 967 273 985 q 399 895 302 954 q 491 831 454 860 l 511 854 z "},"Ē":{"ha":754,"x_min":54,"x_max":686,"o":"m 686 570 l 680 814 l 54 814 l 54 779 l 163 779 l 163 35 l 54 35 l 54 0 l 680 0 l 686 244 l 659 244 l 640 180 q 540 42 606 65 q 496 35 519 35 l 279 35 l 279 400 l 559 400 l 559 439 l 279 439 l 279 779 l 496 779 q 636 647 594 779 q 640 633 639 639 l 659 570 l 686 570 m 195 909 l 602 909 l 602 977 l 195 977 l 195 909 z "},"Ę":{"ha":754,"x_min":54,"x_max":686,"o":"m 686 570 l 680 814 l 54 814 l 54 779 l 163 779 l 163 35 l 54 35 l 54 0 l 612 0 q 439 -125 468 -41 q 434 -157 434 -142 q 498 -247 434 -220 q 564 -259 528 -259 q 685 -209 637 -258 l 669 -189 q 594 -220 631 -220 q 538 -164 544 -220 q 537 -152 537 -157 q 609 -31 537 -84 q 667 0 636 -12 l 680 0 l 686 244 l 659 244 l 640 180 q 540 42 606 65 q 496 35 519 35 l 279 35 l 279 400 l 559 400 l 559 439 l 279 439 l 279 779 l 496 779 q 636 647 594 779 q 640 633 639 639 l 659 570 l 686 570 z "},"Ð":{"ha":921,"x_min":54,"x_max":846,"o":"m 54 814 l 54 779 l 163 779 l 163 448 l 68 448 l 68 393 l 163 393 l 163 35 l 54 35 l 54 0 l 429 0 q 730 114 612 0 q 846 407 846 227 q 675 749 846 640 q 433 814 571 814 l 54 814 m 429 779 q 696 583 643 779 q 716 412 716 511 q 486 39 716 75 q 433 35 460 35 l 279 35 l 279 393 l 448 393 l 448 448 l 279 448 l 279 779 l 429 779 z "},"€":{"ha":819,"x_min":14,"x_max":751,"o":"m 749 145 q 708 206 749 193 q 685 210 696 210 q 617 161 635 210 q 609 134 614 152 q 560 47 591 69 q 465 24 525 24 q 266 262 304 24 q 258 339 260 298 l 560 339 l 572 378 l 256 378 l 256 407 l 256 446 l 587 446 l 600 486 l 259 486 q 397 776 274 728 q 481 789 435 789 q 604 722 578 789 q 614 682 608 708 q 648 614 627 627 q 688 605 665 605 q 751 678 747 612 q 659 793 751 749 q 506 827 590 827 q 174 640 273 827 q 126 486 138 571 l 26 486 l 14 446 l 122 446 q 121 397 121 429 l 121 378 l 26 378 l 14 339 l 123 339 q 267 52 142 146 q 468 -14 351 -14 q 723 77 652 -14 q 749 145 749 111 z "},"F":{"ha":700,"x_min":54,"x_max":686,"o":"m 442 0 l 442 35 l 279 35 l 279 400 l 559 400 l 559 439 l 279 439 l 279 779 l 496 779 q 636 647 594 779 q 640 633 639 639 l 659 570 l 686 570 l 680 814 l 54 814 l 54 779 l 163 779 l 163 35 l 54 35 l 54 0 l 442 0 z "},"G":{"ha":941,"x_min":75,"x_max":901,"o":"m 563 366 l 563 331 l 685 331 l 685 119 q 503 28 617 38 q 481 27 492 27 q 210 407 212 30 q 406 781 210 730 q 477 789 439 789 q 680 712 617 789 q 753 547 720 659 l 788 547 l 781 810 l 663 785 q 481 827 578 827 q 202 720 319 827 q 75 412 75 602 q 229 73 75 195 q 481 -14 342 -14 q 666 31 583 -14 q 684 42 677 37 l 799 0 l 799 331 l 901 331 l 901 366 l 563 366 z "},"Ğ":{"ha":941,"x_min":75,"x_max":901,"o":"m 563 366 l 563 331 l 685 331 l 685 119 q 503 28 617 38 q 481 27 492 27 q 210 407 212 30 q 406 781 210 730 q 477 789 439 789 q 680 712 617 789 q 753 547 720 659 l 788 547 l 781 810 l 663 785 q 481 827 578 827 q 202 720 319 827 q 75 412 75 602 q 229 73 75 195 q 481 -14 342 -14 q 666 31 583 -14 q 684 42 677 37 l 799 0 l 799 331 l 901 331 l 901 366 l 563 366 m 479 955 q 609 1032 587 955 q 612 1043 610 1038 l 640 1043 q 555 884 640 925 q 475 868 519 868 q 319 972 354 868 q 308 1043 308 1006 l 335 1043 q 479 955 355 955 z "},"H":{"ha":974,"x_min":54,"x_max":920,"o":"m 387 0 q 365 34 387 30 q 351 35 358 35 l 279 35 l 279 400 l 696 400 l 696 35 l 587 35 l 587 0 l 920 0 q 898 34 920 30 q 884 35 891 35 l 812 35 l 812 779 l 920 779 l 920 814 l 587 814 l 587 779 l 696 779 l 696 439 l 279 439 l 279 779 l 387 779 l 387 814 l 54 814 l 54 779 l 163 779 l 163 35 l 54 35 l 54 0 l 387 0 z "},"I":{"ha":441,"x_min":54,"x_max":387,"o":"m 387 0 q 365 34 387 30 q 351 35 358 35 l 279 35 l 279 779 l 387 779 l 387 814 l 54 814 l 54 779 l 163 779 l 163 35 l 54 35 l 54 0 l 387 0 z "},"Í":{"ha":441,"x_min":54,"x_max":387,"o":"m 387 0 q 365 34 387 30 q 351 35 358 35 l 279 35 l 279 779 l 387 779 l 387 814 l 54 814 l 54 779 l 163 779 l 163 35 l 54 35 l 54 0 l 387 0 m 346 967 q 363 1005 362 986 q 327 1059 363 1040 q 301 1066 313 1066 q 262 1048 279 1065 q 197 952 251 1038 q 123 854 157 891 l 145 831 q 293 929 178 857 q 346 967 331 954 z "},"Î":{"ha":441,"x_min":43,"x_max":404,"o":"m 387 0 q 365 34 387 30 q 351 35 358 35 l 279 35 l 279 779 l 387 779 l 387 814 l 54 814 l 54 779 l 163 779 l 163 35 l 54 35 l 54 0 l 387 0 m 388 853 l 404 875 q 330 963 373 909 q 251 1042 275 1029 q 222 1048 237 1048 q 146 1000 187 1048 q 117 963 137 989 q 43 873 73 907 l 60 854 q 225 949 137 905 q 388 853 328 895 z "},"Ï":{"ha":441,"x_min":33,"x_max":416,"o":"m 387 0 q 365 34 387 30 q 351 35 358 35 l 279 35 l 279 779 l 387 779 l 387 814 l 54 814 l 54 779 l 163 779 l 163 35 l 54 35 l 54 0 l 387 0 m 168 951 q 129 1013 168 996 q 102 1019 115 1019 q 38 978 56 1019 q 33 951 33 964 q 76 887 33 903 q 102 883 88 883 q 163 925 146 883 q 168 951 168 937 m 416 951 q 376 1013 416 996 q 349 1019 362 1019 q 286 978 304 1019 q 281 951 281 964 q 323 887 281 903 q 349 883 336 883 q 411 925 395 883 q 416 951 416 937 z "},"İ":{"ha":441,"x_min":54,"x_max":387,"o":"m 387 0 q 365 34 387 30 q 351 35 358 35 l 279 35 l 279 779 l 387 779 l 387 814 l 54 814 l 54 779 l 163 779 l 163 35 l 54 35 l 54 0 l 387 0 m 297 951 q 255 1019 297 998 q 224 1025 239 1025 q 156 982 176 1025 q 149 951 149 967 q 194 882 149 901 q 224 876 209 876 q 290 920 271 876 q 297 951 297 935 z "},"Ì":{"ha":441,"x_min":54,"x_max":387,"o":"m 387 0 q 365 34 387 30 q 351 35 358 35 l 279 35 l 279 779 l 387 779 l 387 814 l 54 814 l 54 779 l 163 779 l 163 35 l 54 35 l 54 0 l 387 0 m 339 854 q 236 1000 304 892 q 201 1048 214 1035 q 161 1066 182 1066 q 106 1031 125 1066 q 99 1005 99 1019 q 117 967 100 985 q 227 895 130 954 q 319 831 282 860 l 339 854 z "},"Ī":{"ha":441,"x_min":23,"x_max":430,"o":"m 387 0 q 365 34 387 30 q 351 35 358 35 l 279 35 l 279 779 l 387 779 l 387 814 l 54 814 l 54 779 l 163 779 l 163 35 l 54 35 l 54 0 l 387 0 m 23 909 l 430 909 l 430 977 l 23 977 l 23 909 z "},"Į":{"ha":441,"x_min":54,"x_max":404,"o":"m 387 0 q 365 34 387 30 q 351 35 358 35 l 279 35 l 279 779 l 387 779 l 387 814 l 54 814 l 54 779 l 163 779 l 163 35 l 54 35 l 54 0 l 331 0 q 159 -125 187 -41 q 153 -157 153 -142 q 217 -247 153 -220 q 283 -259 247 -259 q 404 -209 357 -258 l 388 -189 q 313 -220 350 -220 q 258 -164 263 -220 q 256 -152 256 -157 q 328 -31 256 -84 q 387 0 355 -12 z "},"J":{"ha":495,"x_min":-34,"x_max":448,"o":"m 448 779 l 448 814 l 100 814 l 100 779 l 222 779 l 222 220 q 180 20 222 53 q 144 9 164 9 q 95 52 107 9 q 75 107 80 99 q 26 129 58 129 q -30 90 -16 129 q -34 69 -34 79 q 37 -11 -34 15 q 121 -24 75 -24 q 297 68 237 -24 q 339 233 339 134 l 339 779 l 448 779 z "},"K":{"ha":860,"x_min":54,"x_max":860,"o":"m 387 0 q 365 34 387 30 q 351 35 358 35 l 279 35 l 279 351 l 350 418 l 671 0 l 860 0 q 838 34 860 30 q 825 35 831 35 l 788 35 l 434 496 l 675 722 q 751 776 726 769 q 777 779 764 779 q 811 800 807 779 q 812 814 812 807 l 568 814 l 568 779 l 677 779 l 279 412 l 279 779 l 387 779 l 387 814 l 54 814 l 54 779 l 163 779 l 163 35 l 54 35 l 54 0 l 387 0 z "},"L":{"ha":669,"x_min":54,"x_max":655,"o":"m 648 0 l 655 271 l 628 271 l 605 180 q 496 38 572 56 q 465 35 480 35 l 279 35 l 279 779 l 393 779 l 393 814 l 54 814 l 54 779 l 163 779 l 163 35 l 54 35 l 54 0 l 648 0 z "},"Ĺ":{"ha":669,"x_min":54,"x_max":655,"o":"m 648 0 l 655 271 l 628 271 l 605 180 q 496 38 572 56 q 465 35 480 35 l 279 35 l 279 779 l 393 779 l 393 814 l 54 814 l 54 779 l 163 779 l 163 35 l 54 35 l 54 0 l 648 0 m 450 967 q 468 1005 467 986 q 431 1059 468 1040 q 406 1066 418 1066 q 366 1048 384 1065 q 301 952 355 1038 q 228 854 262 891 l 250 831 q 397 929 282 857 q 450 967 435 954 z "},"Ľ":{"ha":669,"x_min":49,"x_max":655,"o":"m 648 0 l 655 271 l 628 271 l 605 180 q 496 38 572 56 q 465 35 480 35 l 279 35 l 279 779 l 393 779 l 393 814 l 54 814 l 54 779 l 163 779 l 163 35 l 54 35 l 54 0 l 648 0 m 243 856 q 326 909 279 856 q 359 949 335 920 q 434 1039 404 1005 l 416 1059 q 241 959 330 1004 q 66 1061 122 1023 l 49 1038 q 125 949 80 1004 q 209 864 184 878 q 243 856 227 856 z "},"Ł":{"ha":677,"x_min":19,"x_max":655,"o":"m 648 0 l 655 271 l 628 271 l 605 180 q 496 38 572 56 q 465 35 480 35 l 279 35 l 279 349 l 556 506 l 536 540 l 279 395 l 279 779 l 393 779 l 393 814 l 54 814 l 54 779 l 163 779 l 163 330 l 19 248 l 39 213 l 163 283 l 163 35 l 54 35 l 54 0 l 648 0 z "},"M":{"ha":1100,"x_min":41,"x_max":1059,"o":"m 1059 814 l 842 814 l 549 151 l 235 814 l 41 814 l 41 779 l 149 779 l 149 35 l 41 35 l 41 0 l 312 0 q 290 34 312 30 q 277 35 283 35 l 203 35 l 203 618 l 500 -7 l 529 -7 l 842 692 l 842 35 l 734 35 l 734 0 l 1059 0 q 1038 34 1059 30 q 1024 35 1031 35 l 951 35 l 951 779 l 1059 779 l 1059 814 z "},"N":{"ha":907,"x_min":27,"x_max":894,"o":"m 616 779 l 731 779 l 731 171 l 216 814 l 27 814 l 27 779 l 136 779 l 136 35 l 27 35 l 27 0 l 305 0 q 283 34 305 30 q 270 35 277 35 l 190 35 l 190 663 l 723 -7 l 785 7 l 785 779 l 894 779 l 894 814 l 616 814 l 616 779 z "},"Ń":{"ha":907,"x_min":27,"x_max":894,"o":"m 616 779 l 731 779 l 731 171 l 216 814 l 27 814 l 27 779 l 136 779 l 136 35 l 27 35 l 27 0 l 305 0 q 283 34 305 30 q 270 35 277 35 l 190 35 l 190 663 l 723 -7 l 785 7 l 785 779 l 894 779 l 894 814 l 616 814 l 616 779 m 579 967 q 597 1005 595 986 q 560 1059 597 1040 q 534 1066 547 1066 q 495 1048 513 1065 q 430 952 484 1038 q 357 854 391 891 l 378 831 q 526 929 411 857 q 579 967 564 954 z "},"Ň":{"ha":907,"x_min":27,"x_max":894,"o":"m 616 779 l 731 779 l 731 171 l 216 814 l 27 814 l 27 779 l 136 779 l 136 35 l 27 35 l 27 0 l 305 0 q 283 34 305 30 q 270 35 277 35 l 190 35 l 190 663 l 723 -7 l 785 7 l 785 779 l 894 779 l 894 814 l 616 814 l 616 779 m 458 856 q 541 909 495 856 q 575 949 551 920 q 650 1039 620 1005 l 632 1059 q 457 959 545 1004 q 282 1061 338 1023 l 264 1038 q 340 949 296 1004 q 425 864 400 878 q 458 856 442 856 z "},"Ñ":{"ha":907,"x_min":27,"x_max":894,"o":"m 616 779 l 731 779 l 731 171 l 216 814 l 27 814 l 27 779 l 136 779 l 136 35 l 27 35 l 27 0 l 305 0 q 283 34 305 30 q 270 35 277 35 l 190 35 l 190 663 l 723 -7 l 785 7 l 785 779 l 894 779 l 894 814 l 616 814 l 616 779 m 391 1035 q 487 991 431 1035 q 560 955 534 955 q 631 1024 610 955 q 633 1032 632 1028 l 662 1025 q 540 880 631 882 q 445 924 499 880 q 369 960 397 960 q 301 897 321 960 q 297 883 298 890 l 270 890 q 391 1035 301 1034 z "},"O":{"ha":956,"x_min":75,"x_max":882,"o":"m 481 827 q 202 720 319 827 q 75 412 75 602 q 225 73 75 193 q 477 -14 335 -14 q 753 95 637 -14 q 882 407 882 216 q 726 747 882 631 q 481 827 620 827 m 481 24 q 229 235 285 24 q 210 407 210 309 q 406 781 210 730 q 477 789 439 789 q 746 412 745 787 q 582 45 746 117 q 481 24 536 24 z "},"Œ":{"ha":1221,"x_min":75,"x_max":1153,"o":"m 503 30 q 210 407 212 33 q 492 784 213 783 q 629 762 560 784 l 629 50 q 503 30 567 30 m 678 0 l 1146 0 l 1153 244 l 1126 244 l 1108 180 q 945 35 1066 37 l 746 35 l 746 400 l 1025 400 l 1025 439 l 746 439 l 746 779 l 945 779 q 1104 642 1061 779 q 1107 633 1105 637 l 1126 570 l 1153 570 l 1146 814 l 677 814 q 582 818 646 814 q 488 821 518 821 q 197 711 315 821 q 75 412 75 597 q 235 72 75 189 q 491 -7 345 -7 q 608 -3 533 -7 q 678 0 658 0 z "},"Ó":{"ha":956,"x_min":75,"x_max":882,"o":"m 481 827 q 202 720 319 827 q 75 412 75 602 q 225 73 75 193 q 477 -14 335 -14 q 753 95 637 -14 q 882 407 882 216 q 726 747 882 631 q 481 827 620 827 m 481 24 q 229 235 285 24 q 210 407 210 309 q 406 781 210 730 q 477 789 439 789 q 746 412 745 787 q 582 45 746 117 q 481 24 536 24 m 601 967 q 618 1005 617 986 q 582 1059 618 1040 q 556 1066 568 1066 q 517 1048 534 1065 q 452 952 506 1038 q 378 854 412 891 l 400 831 q 548 929 433 857 q 601 967 586 954 z "},"Ô":{"ha":956,"x_min":75,"x_max":882,"o":"m 481 827 q 202 720 319 827 q 75 412 75 602 q 225 73 75 193 q 477 -14 335 -14 q 753 95 637 -14 q 882 407 882 216 q 726 747 882 631 q 481 827 620 827 m 481 24 q 229 235 285 24 q 210 407 210 309 q 406 781 210 730 q 477 789 439 789 q 746 412 745 787 q 582 45 746 117 q 481 24 536 24 m 643 853 l 659 875 q 585 963 628 909 q 506 1042 530 1029 q 477 1048 492 1048 q 401 1000 442 1048 q 372 963 392 989 q 298 873 328 907 l 315 854 q 480 949 392 905 q 643 853 583 895 z "},"Ö":{"ha":956,"x_min":75,"x_max":882,"o":"m 481 827 q 202 720 319 827 q 75 412 75 602 q 225 73 75 193 q 477 -14 335 -14 q 753 95 637 -14 q 882 407 882 216 q 726 747 882 631 q 481 827 620 827 m 481 24 q 229 235 285 24 q 210 407 210 309 q 406 781 210 730 q 477 789 439 789 q 746 412 745 787 q 582 45 746 117 q 481 24 536 24 m 423 951 q 384 1013 423 996 q 357 1019 370 1019 q 293 978 311 1019 q 288 951 288 964 q 331 887 288 903 q 357 883 343 883 q 418 925 401 883 q 423 951 423 937 m 671 951 q 631 1013 671 996 q 604 1019 617 1019 q 541 978 559 1019 q 536 951 536 964 q 578 887 536 903 q 604 883 591 883 q 666 925 650 883 q 671 951 671 937 z "},"Ò":{"ha":956,"x_min":75,"x_max":882,"o":"m 481 827 q 202 720 319 827 q 75 412 75 602 q 225 73 75 193 q 477 -14 335 -14 q 753 95 637 -14 q 882 407 882 216 q 726 747 882 631 q 481 827 620 827 m 481 24 q 229 235 285 24 q 210 407 210 309 q 406 781 210 730 q 477 789 439 789 q 746 412 745 787 q 582 45 746 117 q 481 24 536 24 m 594 854 q 491 1000 559 892 q 456 1048 468 1035 q 416 1066 437 1066 q 361 1031 380 1066 q 354 1005 354 1019 q 372 967 355 985 q 481 895 385 954 q 574 831 537 860 l 594 854 z "},"Ő":{"ha":956,"x_min":75,"x_max":882,"o":"m 481 827 q 202 720 319 827 q 75 412 75 602 q 225 73 75 193 q 477 -14 335 -14 q 753 95 637 -14 q 882 407 882 216 q 726 747 882 631 q 481 827 620 827 m 481 24 q 229 235 285 24 q 210 407 210 309 q 406 781 210 730 q 477 789 439 789 q 746 412 745 787 q 582 45 746 117 q 481 24 536 24 m 521 986 q 538 1023 538 1001 q 503 1074 537 1057 q 477 1081 490 1081 q 439 1065 453 1080 q 374 970 427 1054 q 305 876 336 911 l 326 854 q 465 947 355 879 q 521 986 506 971 m 739 943 q 762 975 757 955 q 739 1034 770 1010 q 716 1044 727 1042 q 675 1036 692 1048 q 597 962 661 1027 q 505 880 544 909 l 519 854 q 681 917 553 871 q 739 943 723 932 z "},"Ō":{"ha":956,"x_min":75,"x_max":882,"o":"m 481 827 q 202 720 319 827 q 75 412 75 602 q 225 73 75 193 q 477 -14 335 -14 q 753 95 637 -14 q 882 407 882 216 q 726 747 882 631 q 481 827 620 827 m 481 24 q 229 235 285 24 q 210 407 210 309 q 406 781 210 730 q 477 789 439 789 q 746 412 745 787 q 582 45 746 117 q 481 24 536 24 m 278 909 l 685 909 l 685 977 l 278 977 l 278 909 z "},"Ø":{"ha":956,"x_min":75,"x_max":882,"o":"m 481 827 q 202 720 319 827 q 75 412 75 602 q 227 72 75 193 q 286 34 255 50 l 190 -210 l 271 -210 l 355 4 q 477 -14 420 -14 q 753 95 637 -14 q 882 407 882 216 q 726 747 882 632 q 663 785 697 769 l 734 963 l 652 963 l 593 812 q 481 827 534 827 m 210 407 q 406 781 210 730 q 477 789 439 789 q 578 773 532 789 l 308 90 q 210 407 210 184 m 481 24 q 372 46 420 24 l 643 734 q 746 412 746 644 q 582 45 746 117 q 481 24 536 24 z "},"Õ":{"ha":956,"x_min":75,"x_max":882,"o":"m 481 827 q 202 720 319 827 q 75 412 75 602 q 225 73 75 193 q 477 -14 335 -14 q 753 95 637 -14 q 882 407 882 216 q 726 747 882 631 q 481 827 620 827 m 481 24 q 229 235 285 24 q 210 407 210 309 q 406 781 210 730 q 477 789 439 789 q 746 412 745 787 q 582 45 746 117 q 481 24 536 24 m 412 1035 q 509 991 453 1035 q 582 955 556 955 q 652 1024 632 955 q 655 1032 654 1028 l 684 1025 q 562 880 652 882 q 467 924 521 880 q 391 960 419 960 q 323 897 343 960 q 319 883 320 890 l 292 890 q 412 1035 323 1034 z "},"P":{"ha":762,"x_min":54,"x_max":722,"o":"m 427 779 q 583 670 548 779 q 594 594 594 635 q 437 400 594 418 q 404 399 420 399 l 279 399 l 279 779 l 427 779 m 415 0 q 393 34 415 30 q 380 35 387 35 l 279 35 l 279 359 l 399 359 q 693 486 621 359 q 722 595 722 533 q 605 784 722 730 q 456 814 543 814 l 54 814 l 54 779 l 163 779 l 163 35 l 54 35 l 54 0 l 415 0 z "},"Q":{"ha":959,"x_min":77,"x_max":972,"o":"m 484 827 q 203 719 320 827 q 77 408 77 601 q 225 76 77 197 q 480 -14 336 -14 q 590 1 533 -14 q 681 -134 652 -104 q 793 -190 734 -189 q 972 -33 903 -187 l 944 -16 q 810 -102 872 -100 q 685 -16 754 -102 q 654 24 675 -4 q 860 256 806 95 q 884 411 884 328 q 732 745 884 628 q 484 827 624 827 m 464 161 q 327 75 387 160 q 213 408 213 167 q 416 783 213 735 q 483 789 449 789 q 741 533 701 789 q 749 414 749 477 q 621 65 747 153 q 464 161 541 160 m 480 24 q 358 53 411 24 q 460 114 410 113 q 566 38 514 113 q 480 24 528 24 z "},"R":{"ha":830,"x_min":54,"x_max":830,"o":"m 387 0 l 387 35 l 279 35 l 279 373 l 408 373 l 625 0 l 830 0 q 814 34 830 30 q 798 35 807 35 l 746 35 l 528 385 q 704 519 656 416 q 722 602 722 560 q 633 765 722 704 q 456 814 562 814 l 54 814 l 54 779 l 163 779 l 163 35 l 54 35 l 54 0 l 387 0 m 415 779 q 576 684 532 779 q 594 601 594 644 q 526 449 594 503 q 419 412 480 412 l 279 412 l 279 779 l 415 779 z "},"Ŕ":{"ha":830,"x_min":54,"x_max":830,"o":"m 387 0 l 387 35 l 279 35 l 279 373 l 408 373 l 625 0 l 830 0 q 814 34 830 30 q 798 35 807 35 l 746 35 l 528 385 q 704 519 656 416 q 722 602 722 560 q 633 765 722 704 q 456 814 562 814 l 54 814 l 54 779 l 163 779 l 163 35 l 54 35 l 54 0 l 387 0 m 415 779 q 576 684 532 779 q 594 601 594 644 q 526 449 594 503 q 419 412 480 412 l 279 412 l 279 779 l 415 779 m 536 967 q 553 1005 552 986 q 517 1059 553 1040 q 491 1066 503 1066 q 452 1048 469 1065 q 387 952 441 1038 q 313 854 347 891 l 335 831 q 483 929 368 857 q 536 967 521 954 z "},"Ř":{"ha":830,"x_min":54,"x_max":830,"o":"m 387 0 l 387 35 l 279 35 l 279 373 l 408 373 l 625 0 l 830 0 q 814 34 830 30 q 798 35 807 35 l 746 35 l 528 385 q 704 519 656 416 q 722 602 722 560 q 633 765 722 704 q 456 814 562 814 l 54 814 l 54 779 l 163 779 l 163 35 l 54 35 l 54 0 l 387 0 m 415 779 q 576 684 532 779 q 594 601 594 644 q 526 449 594 503 q 419 412 480 412 l 279 412 l 279 779 l 415 779 m 415 856 q 498 909 452 856 q 532 949 507 920 q 606 1039 576 1005 l 589 1059 q 414 959 502 1004 q 239 1061 294 1023 l 221 1038 q 297 949 252 1004 q 381 864 357 878 q 415 856 399 856 z "},"S":{"ha":727,"x_min":81,"x_max":659,"o":"m 659 213 q 529 407 659 334 q 370 479 503 420 q 218 585 250 530 q 202 648 202 614 q 290 774 202 739 q 374 789 328 789 q 548 712 488 789 q 586 583 587 659 l 627 583 l 627 821 q 589 800 594 821 q 586 774 586 791 q 369 827 490 827 q 141 746 222 827 q 87 613 87 689 q 214 427 87 499 q 369 358 237 415 q 524 248 491 304 q 541 180 541 217 q 449 43 541 85 q 353 24 406 24 q 122 278 145 27 l 81 278 l 81 -3 q 119 16 114 -3 q 122 56 122 27 q 359 -14 227 -14 q 601 71 515 -14 q 659 213 659 130 z "},"Ś":{"ha":727,"x_min":81,"x_max":659,"o":"m 659 213 q 529 407 659 334 q 370 479 503 420 q 218 585 250 530 q 202 648 202 614 q 290 774 202 739 q 374 789 328 789 q 548 712 488 789 q 586 583 587 659 l 627 583 l 627 821 q 589 800 594 821 q 586 774 586 791 q 369 827 490 827 q 141 746 222 827 q 87 613 87 689 q 214 427 87 499 q 369 358 237 415 q 524 248 491 304 q 541 180 541 217 q 449 43 541 85 q 353 24 406 24 q 122 278 145 27 l 81 278 l 81 -3 q 119 16 114 -3 q 122 56 122 27 q 359 -14 227 -14 q 601 71 515 -14 q 659 213 659 130 m 510 967 q 528 1005 526 986 q 491 1059 528 1040 q 465 1066 477 1066 q 426 1048 444 1065 q 361 952 415 1038 q 288 854 321 891 l 309 831 q 457 929 342 857 q 510 967 495 954 z "},"Š":{"ha":727,"x_min":81,"x_max":659,"o":"m 659 213 q 529 407 659 334 q 370 479 503 420 q 218 585 250 530 q 202 648 202 614 q 290 774 202 739 q 374 789 328 789 q 548 712 488 789 q 586 583 587 659 l 627 583 l 627 821 q 589 800 594 821 q 586 774 586 791 q 369 827 490 827 q 141 746 222 827 q 87 613 87 689 q 214 427 87 499 q 369 358 237 415 q 524 248 491 304 q 541 180 541 217 q 449 43 541 85 q 353 24 406 24 q 122 278 145 27 l 81 278 l 81 -3 q 119 16 114 -3 q 122 56 122 27 q 359 -14 227 -14 q 601 71 515 -14 q 659 213 659 130 m 389 856 q 472 909 426 856 q 506 949 481 920 q 581 1039 551 1005 l 563 1059 q 388 959 476 1004 q 213 1061 269 1023 l 195 1038 q 271 949 227 1004 q 355 864 331 878 q 389 856 373 856 z "},"T":{"ha":779,"x_min":47,"x_max":731,"o":"m 572 0 q 551 34 572 30 q 537 35 544 35 l 445 35 l 445 779 l 524 779 q 670 646 633 779 q 671 637 670 640 l 693 547 l 731 547 l 724 814 l 54 814 l 47 547 l 85 547 l 107 637 q 255 779 151 770 l 328 779 l 328 35 l 199 35 l 199 0 l 572 0 z "},"Ť":{"ha":779,"x_min":47,"x_max":731,"o":"m 572 0 q 551 34 572 30 q 537 35 544 35 l 445 35 l 445 779 l 524 779 q 670 646 633 779 q 671 637 670 640 l 693 547 l 731 547 l 724 814 l 54 814 l 47 547 l 85 547 l 107 637 q 255 779 151 770 l 328 779 l 328 35 l 199 35 l 199 0 l 572 0 m 389 856 q 472 909 426 856 q 506 949 481 920 q 581 1039 551 1005 l 563 1059 q 388 959 476 1004 q 213 1061 269 1023 l 195 1038 q 271 949 227 1004 q 355 864 331 878 q 389 856 373 856 z "},"Þ":{"ha":793,"x_min":47,"x_max":719,"o":"m 425 616 q 581 507 545 616 q 591 431 591 472 q 434 237 591 255 q 401 236 418 236 l 277 236 l 277 616 l 425 616 m 395 0 q 377 34 395 31 q 361 35 369 35 l 277 35 l 277 197 l 396 197 q 690 323 618 197 q 719 433 719 370 q 602 621 719 567 q 453 651 540 651 l 277 651 l 277 779 l 395 779 l 395 814 l 47 814 l 47 779 l 160 779 l 160 35 l 47 35 l 47 0 l 395 0 z "},"U":{"ha":857,"x_min":14,"x_max":850,"o":"m 14 779 l 122 779 l 122 305 q 438 -14 125 -12 q 727 182 677 -14 q 742 317 742 241 l 742 779 l 850 779 l 850 814 l 586 814 l 586 779 l 694 779 l 694 309 q 499 26 694 46 q 467 24 483 24 q 258 164 301 24 q 239 313 239 225 l 239 779 l 346 779 l 346 814 l 14 814 l 14 779 z "},"Ú":{"ha":857,"x_min":14,"x_max":850,"o":"m 14 779 l 122 779 l 122 305 q 438 -14 125 -12 q 727 182 677 -14 q 742 317 742 241 l 742 779 l 850 779 l 850 814 l 586 814 l 586 779 l 694 779 l 694 309 q 499 26 694 46 q 467 24 483 24 q 258 164 301 24 q 239 313 239 225 l 239 779 l 346 779 l 346 814 l 14 814 l 14 779 m 579 967 q 597 1005 595 986 q 560 1059 597 1040 q 534 1066 547 1066 q 495 1048 513 1065 q 430 952 484 1038 q 357 854 391 891 l 378 831 q 526 929 411 857 q 579 967 564 954 z "},"Û":{"ha":857,"x_min":14,"x_max":850,"o":"m 14 779 l 122 779 l 122 305 q 438 -14 125 -12 q 727 182 677 -14 q 742 317 742 241 l 742 779 l 850 779 l 850 814 l 586 814 l 586 779 l 694 779 l 694 309 q 499 26 694 46 q 467 24 483 24 q 258 164 301 24 q 239 313 239 225 l 239 779 l 346 779 l 346 814 l 14 814 l 14 779 m 621 853 l 637 875 q 563 963 606 909 q 484 1042 509 1029 q 456 1048 471 1048 q 380 1000 420 1048 q 350 963 370 989 q 277 873 307 907 l 293 854 q 458 949 370 905 q 621 853 562 895 z "},"Ü":{"ha":857,"x_min":14,"x_max":850,"o":"m 14 779 l 122 779 l 122 305 q 438 -14 125 -12 q 727 182 677 -14 q 742 317 742 241 l 742 779 l 850 779 l 850 814 l 586 814 l 586 779 l 694 779 l 694 309 q 499 26 694 46 q 467 24 483 24 q 258 164 301 24 q 239 313 239 225 l 239 779 l 346 779 l 346 814 l 14 814 l 14 779 m 401 951 q 362 1013 401 996 q 335 1019 349 1019 q 271 978 289 1019 q 266 951 266 964 q 309 887 266 903 q 335 883 321 883 q 396 925 380 883 q 401 951 401 937 m 650 951 q 609 1013 650 996 q 582 1019 595 1019 q 519 978 537 1019 q 514 951 514 964 q 556 887 514 903 q 582 883 570 883 q 644 925 628 883 q 650 951 650 937 z "},"Ù":{"ha":857,"x_min":14,"x_max":850,"o":"m 14 779 l 122 779 l 122 305 q 438 -14 125 -12 q 727 182 677 -14 q 742 317 742 241 l 742 779 l 850 779 l 850 814 l 586 814 l 586 779 l 694 779 l 694 309 q 499 26 694 46 q 467 24 483 24 q 258 164 301 24 q 239 313 239 225 l 239 779 l 346 779 l 346 814 l 14 814 l 14 779 m 572 854 q 469 1000 537 892 q 434 1048 446 1035 q 395 1066 415 1066 q 339 1031 358 1066 q 332 1005 332 1019 q 350 967 334 985 q 460 895 363 954 q 552 831 515 860 l 572 854 z "},"Ű":{"ha":857,"x_min":14,"x_max":850,"o":"m 14 779 l 122 779 l 122 305 q 438 -14 125 -12 q 727 182 677 -14 q 742 317 742 241 l 742 779 l 850 779 l 850 814 l 586 814 l 586 779 l 694 779 l 694 309 q 499 26 694 46 q 467 24 483 24 q 258 164 301 24 q 239 313 239 225 l 239 779 l 346 779 l 346 814 l 14 814 l 14 779 m 499 986 q 517 1023 517 1001 q 481 1074 515 1057 q 456 1081 468 1081 q 418 1065 431 1080 q 353 970 406 1054 q 283 876 315 911 l 304 854 q 444 947 334 879 q 499 986 484 971 m 718 943 q 741 975 735 955 q 718 1034 749 1010 q 694 1044 705 1042 q 654 1036 670 1048 q 575 962 639 1027 q 483 880 522 909 l 498 854 q 659 917 532 871 q 718 943 701 932 z "},"Ū":{"ha":857,"x_min":14,"x_max":850,"o":"m 14 779 l 122 779 l 122 305 q 438 -14 125 -12 q 727 182 677 -14 q 742 317 742 241 l 742 779 l 850 779 l 850 814 l 586 814 l 586 779 l 694 779 l 694 309 q 499 26 694 46 q 467 24 483 24 q 258 164 301 24 q 239 313 239 225 l 239 779 l 346 779 l 346 814 l 14 814 l 14 779 m 256 909 l 663 909 l 663 977 l 256 977 l 256 909 z "},"Ų":{"ha":857,"x_min":14,"x_max":850,"o":"m 14 779 l 122 779 l 122 305 q 438 -14 125 -12 q 727 182 677 -14 q 742 317 742 241 l 742 779 l 850 779 l 850 814 l 586 814 l 586 779 l 694 779 l 694 309 q 499 26 694 46 q 467 24 483 24 q 258 164 301 24 q 239 313 239 225 l 239 779 l 346 779 l 346 814 l 14 814 l 14 779 m 538 -220 q 483 -164 488 -220 q 481 -152 481 -157 q 553 -31 481 -84 q 612 0 581 -12 l 610 12 q 391 -110 437 -19 q 378 -157 378 -134 q 442 -247 378 -220 q 509 -259 472 -259 q 629 -209 582 -258 l 613 -189 q 538 -220 575 -220 z "},"Ů":{"ha":857,"x_min":14,"x_max":850,"o":"m 14 779 l 122 779 l 122 305 q 438 -14 125 -12 q 727 182 677 -14 q 742 317 742 241 l 742 779 l 850 779 l 850 814 l 586 814 l 586 779 l 694 779 l 694 309 q 499 26 694 46 q 467 24 483 24 q 258 164 301 24 q 239 313 239 225 l 239 779 l 346 779 l 346 814 l 14 814 l 14 779 m 416 954 q 463 1043 416 1027 q 484 1047 473 1047 q 552 978 543 1047 q 553 956 553 967 q 510 867 553 887 q 484 861 498 861 q 418 936 425 861 q 416 954 416 945 m 488 1078 q 354 1008 387 1078 q 343 956 343 983 q 412 844 343 876 q 481 830 444 830 q 614 902 579 830 q 627 958 627 928 q 556 1066 627 1035 q 488 1078 525 1078 z "},"V":{"ha":783,"x_min":-7,"x_max":783,"o":"m 435 -7 l 715 779 l 783 779 l 783 814 l 555 814 l 555 779 l 663 779 l 437 138 l 191 779 l 300 779 l 300 814 l -7 814 l -7 779 l 75 779 l 332 94 q 384 1 362 14 q 419 -7 397 -7 l 435 -7 z "},"W":{"ha":1127,"x_min":-7,"x_max":1127,"o":"m 791 0 l 1059 779 l 1127 779 l 1127 814 l 907 814 l 907 779 l 1016 779 l 803 138 l 585 779 l 694 779 l 694 814 l 461 814 l 553 553 l 411 141 l 182 779 l 292 779 l 292 814 l -7 814 l -7 779 l 73 779 l 323 81 q 372 -4 350 4 q 388 -7 380 -7 l 399 -7 l 575 491 l 720 81 q 760 4 745 12 q 780 0 768 0 l 791 0 z "},"X":{"ha":821,"x_min":14,"x_max":821,"o":"m 264 0 l 264 35 l 156 35 l 388 355 l 604 35 l 505 35 l 505 0 l 821 0 q 799 34 821 30 q 785 35 792 35 l 742 35 l 463 449 l 673 741 q 731 779 699 776 q 746 779 738 779 q 780 800 776 779 q 781 814 781 807 l 545 814 l 545 779 l 654 779 l 441 481 l 240 779 l 338 779 l 338 814 l 20 814 l 20 779 l 104 779 l 365 391 l 133 73 q 49 35 104 35 q 15 14 19 35 q 14 0 14 7 l 264 0 z "},"Y":{"ha":751,"x_min":-7,"x_max":751,"o":"m 547 0 q 525 34 547 30 q 511 35 518 35 l 438 35 l 438 338 l 643 741 q 716 779 674 777 q 750 800 746 779 q 751 814 751 807 l 510 814 l 510 779 l 618 779 l 412 384 l 197 779 l 300 779 l 300 814 l -7 814 l -7 779 l 68 779 l 323 324 l 323 35 l 214 35 l 214 0 l 547 0 z "},"Ý":{"ha":751,"x_min":-7,"x_max":751,"o":"m 547 0 q 525 34 547 30 q 511 35 518 35 l 438 35 l 438 338 l 643 741 q 716 779 674 777 q 750 800 746 779 q 751 814 751 807 l 510 814 l 510 779 l 618 779 l 412 384 l 197 779 l 300 779 l 300 814 l -7 814 l -7 779 l 68 779 l 323 324 l 323 35 l 214 35 l 214 0 l 547 0 m 515 967 q 533 1005 532 986 q 496 1059 533 1040 q 471 1066 483 1066 q 431 1048 449 1065 q 366 952 420 1038 q 293 854 327 891 l 315 831 q 463 929 347 857 q 515 967 500 954 z "},"Ÿ":{"ha":751,"x_min":-7,"x_max":751,"o":"m 547 0 q 525 34 547 30 q 511 35 518 35 l 438 35 l 438 338 l 643 741 q 716 779 674 777 q 750 800 746 779 q 751 814 751 807 l 510 814 l 510 779 l 618 779 l 412 384 l 197 779 l 300 779 l 300 814 l -7 814 l -7 779 l 68 779 l 323 324 l 323 35 l 214 35 l 214 0 l 547 0 m 338 951 q 298 1013 338 996 q 271 1019 285 1019 q 208 978 225 1019 q 202 951 202 964 q 245 887 202 903 q 271 883 258 883 q 332 925 316 883 q 338 951 338 937 m 586 951 q 545 1013 586 996 q 518 1019 532 1019 q 456 978 473 1019 q 450 951 450 964 q 492 887 450 903 q 518 883 506 883 q 581 925 564 883 q 586 951 586 937 z "},"Z":{"ha":746,"x_min":34,"x_max":705,"o":"m 703 0 l 705 281 l 675 281 l 647 151 q 514 35 618 37 l 179 35 l 699 785 l 699 814 l 95 814 l 83 568 l 110 568 l 163 690 q 273 779 203 777 l 568 779 l 34 27 l 34 0 l 703 0 z "},"Ź":{"ha":746,"x_min":34,"x_max":705,"o":"m 703 0 l 705 281 l 675 281 l 647 151 q 514 35 618 37 l 179 35 l 699 785 l 699 814 l 95 814 l 83 568 l 110 568 l 163 690 q 273 779 203 777 l 568 779 l 34 27 l 34 0 l 703 0 m 526 967 q 544 1005 543 986 q 507 1059 544 1040 q 481 1066 494 1066 q 442 1048 460 1065 q 377 952 431 1038 q 304 854 338 891 l 326 831 q 473 929 358 857 q 526 967 511 954 z "},"Ž":{"ha":746,"x_min":34,"x_max":705,"o":"m 703 0 l 705 281 l 675 281 l 647 151 q 514 35 618 37 l 179 35 l 699 785 l 699 814 l 95 814 l 83 568 l 110 568 l 163 690 q 273 779 203 777 l 568 779 l 34 27 l 34 0 l 703 0 m 406 856 q 488 909 442 856 q 522 949 498 920 q 597 1039 567 1005 l 579 1059 q 404 959 492 1004 q 229 1061 285 1023 l 212 1038 q 288 949 243 1004 q 372 864 347 878 q 406 856 389 856 z "},"Ż":{"ha":746,"x_min":34,"x_max":705,"o":"m 703 0 l 705 281 l 675 281 l 647 151 q 514 35 618 37 l 179 35 l 699 785 l 699 814 l 95 814 l 83 568 l 110 568 l 163 690 q 273 779 203 777 l 568 779 l 34 27 l 34 0 l 703 0 m 477 951 q 435 1019 477 998 q 404 1025 419 1025 q 336 982 357 1025 q 330 951 330 967 q 374 882 330 901 q 404 876 389 876 q 471 920 452 876 q 477 951 477 935 z "},"a":{"ha":654,"x_min":47,"x_max":647,"o":"m 530 -14 q 646 113 635 -14 q 647 127 647 121 l 612 129 q 559 28 602 30 q 522 99 524 31 l 522 385 q 328 590 522 579 q 304 590 316 590 q 100 519 152 590 q 84 473 84 496 q 123 425 84 431 q 137 423 130 423 q 183 463 168 423 q 209 522 202 513 q 289 556 235 556 q 420 416 416 548 l 420 331 q 56 198 102 331 q 47 142 47 172 q 138 1 47 39 q 216 -14 175 -14 q 382 54 315 -14 q 419 109 407 80 q 530 -14 435 -12 m 260 41 q 159 123 178 41 q 155 165 155 142 q 259 281 155 256 q 420 294 315 293 l 420 186 q 321 54 400 92 q 260 41 290 41 z "},"á":{"ha":654,"x_min":47,"x_max":647,"o":"m 530 -14 q 646 113 635 -14 q 647 127 647 121 l 612 129 q 559 28 602 30 q 522 99 524 31 l 522 385 q 328 590 522 579 q 304 590 316 590 q 100 519 152 590 q 84 473 84 496 q 123 425 84 431 q 137 423 130 423 q 183 463 168 423 q 209 522 202 513 q 289 556 235 556 q 420 416 416 548 l 420 331 q 56 198 102 331 q 47 142 47 172 q 138 1 47 39 q 216 -14 175 -14 q 382 54 315 -14 q 419 109 407 80 q 530 -14 435 -12 m 260 41 q 159 123 178 41 q 155 165 155 142 q 259 281 155 256 q 420 294 315 293 l 420 186 q 321 54 400 92 q 260 41 290 41 m 449 791 q 467 829 465 810 q 430 883 467 864 q 404 890 416 890 q 365 872 382 888 q 300 776 354 861 q 227 678 260 715 l 248 655 q 396 753 281 681 q 449 791 434 777 z "},"ă":{"ha":654,"x_min":47,"x_max":647,"o":"m 530 -14 q 646 113 635 -14 q 647 127 647 121 l 612 129 q 559 28 602 30 q 522 99 524 31 l 522 385 q 328 590 522 579 q 304 590 316 590 q 100 519 152 590 q 84 473 84 496 q 123 425 84 431 q 137 423 130 423 q 183 463 168 423 q 209 522 202 513 q 289 556 235 556 q 420 416 416 548 l 420 331 q 56 198 102 331 q 47 142 47 172 q 138 1 47 39 q 216 -14 175 -14 q 382 54 315 -14 q 419 109 407 80 q 530 -14 435 -12 m 260 41 q 159 123 178 41 q 155 165 155 142 q 259 281 155 256 q 420 294 315 293 l 420 186 q 321 54 400 92 q 260 41 290 41 m 331 779 q 461 856 439 779 q 464 867 463 861 l 492 867 q 407 708 492 749 q 327 692 372 692 q 171 796 206 692 q 160 867 160 830 l 187 867 q 331 779 208 779 z "},"â":{"ha":654,"x_min":47,"x_max":647,"o":"m 530 -14 q 646 113 635 -14 q 647 127 647 121 l 612 129 q 559 28 602 30 q 522 99 524 31 l 522 385 q 328 590 522 579 q 304 590 316 590 q 100 519 152 590 q 84 473 84 496 q 123 425 84 431 q 137 423 130 423 q 183 463 168 423 q 209 522 202 513 q 289 556 235 556 q 420 416 416 548 l 420 331 q 56 198 102 331 q 47 142 47 172 q 138 1 47 39 q 216 -14 175 -14 q 382 54 315 -14 q 419 109 407 80 q 530 -14 435 -12 m 260 41 q 159 123 178 41 q 155 165 155 142 q 259 281 155 256 q 420 294 315 293 l 420 186 q 321 54 400 92 q 260 41 290 41 m 491 677 l 507 699 q 433 787 476 732 q 354 865 378 853 q 326 872 340 872 q 250 823 290 872 q 220 787 240 812 q 146 697 176 731 l 163 678 q 328 773 240 728 q 491 677 431 719 z "},"´":{"ha":678,"x_min":277,"x_max":517,"o":"m 499 791 q 517 829 515 810 q 480 883 517 864 q 454 890 467 890 q 415 872 433 888 q 350 776 404 861 q 277 678 311 715 l 298 655 q 446 753 331 681 q 499 791 484 777 z "},"ä":{"ha":654,"x_min":47,"x_max":647,"o":"m 530 -14 q 646 113 635 -14 q 647 127 647 121 l 612 129 q 559 28 602 30 q 522 99 524 31 l 522 385 q 328 590 522 579 q 304 590 316 590 q 100 519 152 590 q 84 473 84 496 q 123 425 84 431 q 137 423 130 423 q 183 463 168 423 q 209 522 202 513 q 289 556 235 556 q 420 416 416 548 l 420 331 q 56 198 102 331 q 47 142 47 172 q 138 1 47 39 q 216 -14 175 -14 q 382 54 315 -14 q 419 109 407 80 q 530 -14 435 -12 m 260 41 q 159 123 178 41 q 155 165 155 142 q 259 281 155 256 q 420 294 315 293 l 420 186 q 321 54 400 92 q 260 41 290 41 m 271 774 q 232 837 271 819 q 205 842 218 842 q 141 802 159 842 q 136 774 136 788 q 179 711 136 727 q 205 707 191 707 q 266 749 250 707 q 271 774 271 761 m 519 774 q 479 837 519 819 q 452 842 465 842 q 389 802 407 842 q 384 774 384 788 q 426 711 384 727 q 452 707 439 707 q 514 749 498 707 q 519 774 519 761 z "},"æ":{"ha":991,"x_min":47,"x_max":944,"o":"m 700 556 q 826 475 795 556 q 836 420 836 449 q 774 339 836 354 q 675 332 739 331 l 532 336 q 642 545 538 502 q 700 556 669 556 m 937 136 l 902 142 q 749 26 854 39 q 723 24 735 24 q 544 194 581 24 q 532 298 533 241 l 694 296 q 907 327 860 293 q 944 404 944 354 q 850 551 944 496 q 697 590 784 590 q 499 499 572 589 q 308 590 453 590 q 99 518 151 590 q 84 473 84 496 q 123 425 84 431 q 137 423 130 423 q 183 461 168 423 q 210 524 202 513 q 293 556 237 556 q 426 448 411 556 q 429 416 429 433 l 429 331 q 60 209 114 331 q 47 142 47 178 q 142 0 47 38 q 220 -14 178 -14 q 410 76 334 -14 q 452 151 439 113 q 701 -14 513 -11 q 920 98 853 -14 q 937 136 930 117 m 264 41 q 157 132 172 41 q 155 165 155 148 q 263 281 155 256 q 429 294 321 293 l 429 186 q 330 57 408 95 q 264 41 296 41 z "},"à":{"ha":654,"x_min":47,"x_max":647,"o":"m 530 -14 q 646 113 635 -14 q 647 127 647 121 l 612 129 q 559 28 602 30 q 522 99 524 31 l 522 385 q 328 590 522 579 q 304 590 316 590 q 100 519 152 590 q 84 473 84 496 q 123 425 84 431 q 137 423 130 423 q 183 463 168 423 q 209 522 202 513 q 289 556 235 556 q 420 416 416 548 l 420 331 q 56 198 102 331 q 47 142 47 172 q 138 1 47 39 q 216 -14 175 -14 q 382 54 315 -14 q 419 109 407 80 q 530 -14 435 -12 m 260 41 q 159 123 178 41 q 155 165 155 142 q 259 281 155 256 q 420 294 315 293 l 420 186 q 321 54 400 92 q 260 41 290 41 m 442 678 q 339 823 407 716 q 304 872 317 859 q 264 890 285 890 q 209 854 228 890 q 202 829 202 842 q 220 791 203 808 q 330 719 233 777 q 422 655 385 684 l 442 678 z "},"ā":{"ha":654,"x_min":47,"x_max":647,"o":"m 530 -14 q 646 113 635 -14 q 647 127 647 121 l 612 129 q 559 28 602 30 q 522 99 524 31 l 522 385 q 328 590 522 579 q 304 590 316 590 q 100 519 152 590 q 84 473 84 496 q 123 425 84 431 q 137 423 130 423 q 183 463 168 423 q 209 522 202 513 q 289 556 235 556 q 420 416 416 548 l 420 331 q 56 198 102 331 q 47 142 47 172 q 138 1 47 39 q 216 -14 175 -14 q 382 54 315 -14 q 419 109 407 80 q 530 -14 435 -12 m 260 41 q 159 123 178 41 q 155 165 155 142 q 259 281 155 256 q 420 294 315 293 l 420 186 q 321 54 400 92 q 260 41 290 41 m 126 732 l 533 732 l 533 800 l 126 800 l 126 732 z "},"&":{"ha":803,"x_min":47,"x_max":817,"o":"m 307 684 q 373 788 307 766 q 407 793 389 793 q 500 732 479 793 q 507 692 507 712 q 441 578 507 628 q 353 536 403 549 q 307 684 307 628 m 365 27 q 174 179 213 27 q 163 274 163 222 q 239 448 163 393 q 279 468 259 461 q 544 92 370 297 q 365 27 465 27 m 713 433 l 712 433 l 716 433 l 758 434 q 793 450 789 434 q 796 471 796 460 l 601 471 l 601 435 l 675 435 q 610 172 675 285 q 369 506 449 362 q 528 624 481 537 q 545 692 545 658 q 468 814 545 780 q 404 827 438 827 q 233 739 277 827 q 216 661 216 703 q 264 498 217 598 q 61 326 106 454 q 47 239 47 285 q 141 43 47 115 q 321 -14 216 -14 q 566 66 471 -12 q 625 0 586 42 l 817 0 q 795 34 817 31 q 783 35 789 35 l 732 35 q 636 142 700 71 q 713 433 713 262 z "},"ං":{"ha":481,"x_min":39,"x_max":419,"o":"m 88 233 q 152 119 88 160 q 229 98 187 98 q 349 161 308 98 q 369 233 369 195 q 305 346 369 308 q 229 368 270 368 q 110 305 151 368 q 88 233 88 271 m 39 218 q 115 366 39 311 q 229 404 167 404 q 382 328 326 404 q 419 218 419 278 q 343 71 419 126 q 229 33 292 33 q 76 109 133 33 q 39 218 39 159 z "},"ą":{"ha":654,"x_min":47,"x_max":647,"o":"m 260 41 q 159 123 178 41 q 155 165 155 142 q 259 281 155 256 q 420 294 315 293 l 420 186 q 321 54 400 92 q 260 41 290 41 m 545 -220 q 490 -164 495 -220 q 488 -152 488 -157 q 560 -31 488 -84 q 618 0 587 -12 l 617 12 q 610 11 616 11 q 605 9 606 9 q 647 127 643 43 l 612 129 q 559 28 602 30 q 522 99 524 31 l 522 385 q 328 590 522 579 q 304 590 316 590 q 100 519 152 590 q 84 473 84 496 q 123 425 84 431 q 137 423 130 423 q 183 463 168 423 q 209 522 202 513 q 289 556 235 556 q 420 416 416 548 l 420 331 q 56 198 102 331 q 47 142 47 172 q 138 1 47 39 q 216 -14 175 -14 q 382 54 315 -14 q 419 109 407 80 q 522 -14 435 -7 q 388 -136 406 -58 q 385 -157 385 -148 q 449 -247 385 -220 q 515 -259 479 -259 q 636 -209 589 -258 l 620 -189 q 545 -220 582 -220 z "},"≈":{"ha":671,"x_min":54,"x_max":617,"o":"m 217 514 q 361 464 267 514 q 476 422 441 422 q 585 517 547 423 l 617 506 q 505 355 591 387 q 461 347 483 347 q 311 397 411 347 q 190 438 228 438 q 87 349 122 435 l 54 359 q 186 511 88 490 q 217 514 201 514 m 217 300 q 361 250 267 300 q 476 208 441 208 q 585 300 548 209 l 617 289 q 502 140 590 168 q 461 133 481 133 q 311 183 411 133 q 190 224 228 224 q 87 132 123 221 l 54 142 q 183 296 88 271 q 217 300 201 300 z "},"å":{"ha":654,"x_min":47,"x_max":647,"o":"m 530 -14 q 646 113 635 -14 q 647 127 647 121 l 612 129 q 559 28 602 30 q 522 99 524 31 l 522 385 q 328 590 522 579 q 304 590 316 590 q 100 519 152 590 q 84 473 84 496 q 123 425 84 431 q 137 423 130 423 q 183 463 168 423 q 209 522 202 513 q 289 556 235 556 q 420 416 416 548 l 420 331 q 56 198 102 331 q 47 142 47 172 q 138 1 47 39 q 216 -14 175 -14 q 382 54 315 -14 q 419 109 407 80 q 530 -14 435 -12 m 260 41 q 159 123 178 41 q 155 165 155 142 q 259 281 155 256 q 420 294 315 293 l 420 186 q 321 54 400 92 q 260 41 290 41 m 260 777 q 307 867 260 850 q 328 871 317 871 q 396 802 387 871 q 397 780 397 791 q 354 690 397 711 q 328 685 342 685 q 262 760 269 685 q 260 777 260 769 m 332 902 q 198 831 231 902 q 187 780 187 807 q 256 667 187 700 q 326 654 288 654 q 458 726 423 654 q 471 781 471 751 q 400 890 471 859 q 332 902 369 902 z "},"^":{"ha":757,"x_min":122,"x_max":635,"o":"m 122 450 l 160 426 l 378 780 l 597 426 l 635 450 l 391 846 l 366 846 l 122 450 z "},"~":{"ha":671,"x_min":54,"x_max":617,"o":"m 217 419 q 361 369 267 419 q 476 327 441 327 q 585 419 548 328 l 617 408 q 505 258 591 289 q 461 250 483 250 q 311 300 411 250 q 190 340 228 340 q 87 251 122 338 l 54 262 q 183 415 88 391 q 217 419 201 419 z "},"*":{"ha":453,"x_min":27,"x_max":425,"o":"m 227 882 q 179 845 184 882 q 178 837 178 841 q 199 750 178 827 q 213 684 209 712 q 136 758 194 699 q 75 798 98 796 q 33 765 46 798 q 28 746 28 755 q 52 708 30 720 q 137 684 60 704 q 201 663 174 674 q 87 629 180 655 q 50 616 61 623 q 27 581 27 602 q 53 534 27 551 q 76 528 64 528 q 149 582 99 528 q 213 643 191 627 q 184 524 210 621 q 178 487 178 499 q 216 445 178 450 q 225 444 221 444 q 273 480 267 444 q 274 488 274 484 q 252 574 274 499 q 237 643 241 613 q 313 570 256 631 q 377 528 355 528 q 419 560 406 528 q 423 579 423 570 q 400 617 422 605 q 315 642 392 621 q 251 662 278 651 q 365 696 271 670 q 401 709 391 703 q 425 745 425 723 q 399 791 425 774 q 376 798 388 798 q 305 747 351 798 q 239 682 262 700 q 267 802 241 704 q 274 838 274 826 q 236 880 274 875 q 227 882 231 882 z "},"@":{"ha":1208,"x_min":88,"x_max":1114,"o":"m 903 -160 l 887 -126 q 648 -183 769 -183 q 326 -52 456 -183 q 190 294 190 84 q 307 628 190 499 q 609 753 422 753 q 895 635 779 753 q 1025 278 1025 502 q 936 64 1025 115 q 879 47 909 47 q 808 130 810 50 l 808 377 q 606 563 806 562 q 419 496 465 563 q 407 457 407 476 q 454 411 415 416 q 510 452 498 411 q 514 467 511 457 q 551 524 525 513 q 593 532 568 532 q 707 406 705 529 l 707 328 q 396 239 454 327 q 373 156 373 205 q 467 23 373 53 q 526 15 495 15 q 677 80 617 15 q 705 123 696 100 q 806 22 718 46 q 867 14 834 14 q 1051 99 981 14 q 1114 292 1114 174 q 929 694 1114 557 q 621 791 799 791 q 190 591 336 791 q 88 260 88 452 q 252 -106 88 34 q 610 -232 401 -232 q 903 -160 764 -232 m 567 64 q 487 126 507 64 q 479 178 479 151 q 644 292 479 278 q 707 294 674 294 l 707 199 q 617 76 686 111 q 567 64 591 64 z "},"ã":{"ha":654,"x_min":47,"x_max":647,"o":"m 530 -14 q 646 113 635 -14 q 647 127 647 121 l 612 129 q 559 28 602 30 q 522 99 524 31 l 522 385 q 328 590 522 579 q 304 590 316 590 q 100 519 152 590 q 84 473 84 496 q 123 425 84 431 q 137 423 130 423 q 183 463 168 423 q 209 522 202 513 q 289 556 235 556 q 420 416 416 548 l 420 331 q 56 198 102 331 q 47 142 47 172 q 138 1 47 39 q 216 -14 175 -14 q 382 54 315 -14 q 419 109 407 80 q 530 -14 435 -12 m 260 41 q 159 123 178 41 q 155 165 155 142 q 259 281 155 256 q 420 294 315 293 l 420 186 q 321 54 400 92 q 260 41 290 41 m 260 859 q 357 815 301 859 q 430 779 404 779 q 500 848 480 779 q 503 856 502 852 l 532 849 q 410 704 500 705 q 315 747 369 704 q 239 784 267 784 q 171 720 191 784 q 167 707 168 713 l 140 713 q 260 859 171 857 z "},"b":{"ha":746,"x_min":35,"x_max":692,"o":"m 415 -14 q 616 76 534 -14 q 692 296 692 163 q 610 529 692 445 q 460 590 549 590 q 250 457 312 590 q 239 433 243 445 l 239 882 l 35 882 l 35 848 l 137 848 l 137 115 q 102 41 137 53 q 35 34 81 34 l 35 0 l 206 0 l 218 90 q 395 -12 277 -4 q 415 -14 406 -14 m 418 536 q 563 400 529 536 q 576 286 576 350 q 473 38 576 95 q 401 20 441 20 q 258 129 300 20 q 237 260 237 186 q 319 498 237 425 q 418 536 362 536 z "},"\\":{"ha":552,"x_min":-26,"x_max":518,"o":"m 437 -210 l -26 963 l 56 963 l 518 -210 l 437 -210 z "},"|":{"ha":376,"x_min":149,"x_max":227,"o":"m 149 -184 l 149 882 l 227 882 l 227 -184 l 149 -184 z "},"{":{"ha":543,"x_min":109,"x_max":515,"o":"m 313 201 l 313 -4 q 355 -122 313 -95 q 515 -146 395 -146 l 515 -184 q 292 -163 345 -184 q 213 -33 221 -133 q 212 5 212 -14 l 212 208 q 176 307 212 282 q 109 331 153 321 l 109 359 q 202 415 184 376 q 212 483 212 439 l 212 685 q 275 845 212 808 q 484 875 326 873 q 515 875 498 875 l 515 837 q 346 806 382 837 q 313 694 313 776 l 313 490 q 248 366 313 403 q 210 349 233 358 l 210 342 q 297 278 277 313 q 313 201 313 247 z "},"}":{"ha":529,"x_min":27,"x_max":434,"o":"m 229 487 l 229 692 q 187 810 229 783 q 27 834 148 834 l 27 872 q 251 850 198 872 q 330 720 321 821 q 331 682 331 701 l 331 480 q 366 381 331 406 q 434 357 389 366 l 434 328 q 340 273 358 312 q 331 205 331 248 l 331 3 q 267 -157 331 -121 q 58 -187 217 -186 q 27 -187 45 -187 l 27 -149 q 197 -118 160 -149 q 229 -7 229 -88 l 229 198 q 294 321 229 285 q 332 339 309 330 l 332 346 q 245 410 266 374 q 229 487 229 441 z "},"[":{"ha":475,"x_min":122,"x_max":448,"o":"m 448 -184 l 122 -184 l 122 875 l 448 875 l 448 837 l 229 837 l 229 -144 l 448 -146 l 448 -184 z "},"]":{"ha":492,"x_min":45,"x_max":370,"o":"m 45 -184 l 370 -184 l 370 875 l 45 875 l 45 837 l 263 837 l 263 -144 l 45 -146 l 45 -184 z "},"˘":{"ha":678,"x_min":174,"x_max":506,"o":"m 345 779 q 475 856 453 779 q 477 867 476 861 l 506 867 q 420 708 506 749 q 340 692 385 692 q 184 796 220 692 q 174 867 174 830 l 201 867 q 345 779 221 779 z "},"¦":{"ha":376,"x_min":149,"x_max":227,"o":"m 227 427 l 227 882 l 149 882 l 149 427 l 227 427 m 227 -184 l 227 270 l 149 270 l 149 -184 l 227 -184 z "},"•":{"ha":499,"x_min":136,"x_max":363,"o":"m 363 311 q 307 411 363 378 q 250 426 279 426 q 151 369 183 426 q 136 311 136 342 q 193 212 136 245 q 250 197 220 197 q 347 252 315 197 q 363 311 363 281 z "},"c":{"ha":590,"x_min":54,"x_max":583,"o":"m 54 282 q 175 37 54 118 q 345 -14 250 -14 q 557 85 486 -14 q 583 132 574 109 l 548 144 q 382 26 498 37 q 361 24 372 24 q 210 121 264 24 q 170 294 170 194 q 263 532 170 472 q 350 556 302 556 q 438 499 423 556 q 445 465 441 488 q 475 397 453 411 q 505 389 488 391 q 563 427 551 387 q 566 445 566 437 q 477 559 566 514 q 342 590 415 590 q 88 442 160 590 q 54 282 54 372 z "},"ć":{"ha":590,"x_min":54,"x_max":583,"o":"m 54 282 q 175 37 54 118 q 345 -14 250 -14 q 557 85 486 -14 q 583 132 574 109 l 548 144 q 382 26 498 37 q 361 24 372 24 q 210 121 264 24 q 170 294 170 194 q 263 532 170 472 q 350 556 302 556 q 438 499 423 556 q 445 465 441 488 q 475 397 453 411 q 505 389 488 391 q 563 427 551 387 q 566 445 566 437 q 477 559 566 514 q 342 590 415 590 q 88 442 160 590 q 54 282 54 372 m 454 791 q 472 829 471 810 q 435 883 472 864 q 410 890 422 890 q 370 872 388 888 q 305 776 359 861 q 232 678 266 715 l 254 655 q 401 753 286 681 q 454 791 439 777 z "},"ˇ":{"ha":678,"x_min":146,"x_max":532,"o":"m 340 680 q 423 732 377 680 q 457 773 433 743 q 532 863 502 829 l 514 883 q 339 783 427 827 q 164 884 220 846 l 146 861 q 222 773 178 827 q 307 688 282 701 q 340 680 324 680 z "},"č":{"ha":590,"x_min":54,"x_max":583,"o":"m 54 282 q 175 37 54 118 q 345 -14 250 -14 q 557 85 486 -14 q 583 132 574 109 l 548 144 q 382 26 498 37 q 361 24 372 24 q 210 121 264 24 q 170 294 170 194 q 263 532 170 472 q 350 556 302 556 q 438 499 423 556 q 445 465 441 488 q 475 397 453 411 q 505 389 488 391 q 563 427 551 387 q 566 445 566 437 q 477 559 566 514 q 342 590 415 590 q 88 442 160 590 q 54 282 54 372 m 334 680 q 416 732 370 680 q 450 773 426 743 q 525 863 495 829 l 507 883 q 332 783 420 827 q 157 884 213 846 l 140 861 q 216 773 171 827 q 300 688 275 701 q 334 680 317 680 z "},"ç":{"ha":590,"x_min":54,"x_max":583,"o":"m 54 282 q 176 35 54 117 q 277 -7 221 5 l 222 -115 l 241 -127 q 311 -104 274 -104 q 384 -163 374 -104 q 385 -182 385 -172 q 331 -270 385 -252 q 305 -274 317 -274 q 210 -220 251 -273 l 189 -236 q 330 -308 235 -307 q 464 -251 419 -308 q 487 -184 487 -221 q 411 -81 487 -111 q 347 -71 380 -71 q 277 -84 308 -71 l 309 -12 q 345 -14 321 -14 q 557 85 486 -14 q 583 132 574 109 l 548 144 q 382 26 498 37 q 361 24 372 24 q 210 121 264 24 q 170 294 170 194 q 263 532 170 472 q 350 556 302 556 q 438 499 423 556 q 445 465 441 488 q 475 397 453 411 q 505 389 488 391 q 563 427 551 387 q 566 445 566 437 q 477 559 566 514 q 342 590 415 590 q 88 442 160 590 q 54 282 54 372 z "},"¸":{"ha":678,"x_min":190,"x_max":488,"o":"m 224 -115 l 243 -127 q 312 -104 275 -104 q 385 -163 376 -104 q 387 -182 387 -172 q 332 -270 387 -252 q 307 -274 319 -274 q 212 -220 252 -273 l 190 -236 q 331 -308 236 -307 q 465 -251 420 -308 q 488 -184 488 -221 q 412 -81 488 -111 q 349 -71 381 -71 q 278 -84 309 -71 l 317 4 l 283 4 l 224 -115 z "},"¢":{"ha":625,"x_min":54,"x_max":585,"o":"m 54 370 q 176 123 54 203 q 316 76 239 83 l 316 -27 l 355 -27 l 355 75 q 563 180 495 80 q 585 224 575 202 l 549 232 q 393 114 502 129 q 361 111 376 111 l 355 111 l 355 644 q 439 589 425 644 q 445 555 442 578 q 473 487 452 500 q 505 477 487 479 q 563 515 551 475 q 566 533 566 525 q 477 647 566 602 q 355 678 420 674 l 355 773 l 316 773 l 316 677 q 84 519 148 666 q 54 370 54 452 m 170 382 q 263 620 170 560 q 316 642 288 636 l 316 118 q 191 251 229 144 q 170 382 170 311 z "},"ˆ":{"ha":678,"x_min":159,"x_max":519,"o":"m 503 677 l 519 699 q 445 787 488 732 q 366 865 391 853 q 338 872 353 872 q 262 823 302 872 q 232 787 252 812 q 159 697 189 731 l 175 678 q 340 773 252 728 q 503 677 444 719 z "},":":{"ha":282,"x_min":75,"x_max":208,"o":"m 208 454 q 168 515 208 498 q 141 521 155 521 q 80 481 98 521 q 75 454 75 468 q 114 393 75 411 q 141 388 127 388 q 202 427 184 388 q 208 454 208 441 m 208 137 q 168 198 208 180 q 141 203 155 203 q 80 164 98 203 q 75 137 75 151 q 114 76 75 94 q 141 71 127 71 q 202 110 184 71 q 208 137 208 123 z "},",":{"ha":262,"x_min":68,"x_max":208,"o":"m 208 50 q 153 137 208 123 q 133 140 142 140 q 73 99 90 140 q 68 72 68 85 q 111 12 68 28 q 122 9 118 11 q 153 -14 152 1 q 94 -111 152 -50 l 122 -132 q 208 50 205 -42 z "},"":{"ha":678,"x_min":262,"x_max":416,"o":"m 416 -148 q 361 -53 416 -71 q 334 -49 347 -49 q 269 -92 288 -49 q 262 -123 262 -107 q 313 -190 262 -174 q 323 -193 319 -191 q 357 -217 355 -201 q 290 -326 355 -258 l 323 -347 q 416 -148 411 -248 z "},"©":{"ha":897,"x_min":61,"x_max":836,"o":"m 836 373 q 718 655 836 544 q 449 758 609 758 q 153 629 266 758 q 61 373 61 522 q 180 90 61 201 q 449 -14 290 -14 q 741 114 629 -14 q 836 373 836 222 m 103 373 q 217 639 103 540 q 449 722 312 722 q 718 600 618 722 q 795 373 795 503 q 684 110 795 212 q 449 23 587 23 q 179 146 278 23 q 103 373 103 243 m 456 617 q 258 505 321 617 q 224 372 224 445 q 307 184 224 252 q 457 134 368 134 q 635 225 579 134 q 646 245 642 236 l 617 258 q 477 170 574 171 q 354 278 389 170 q 339 384 339 326 q 399 562 339 510 q 456 583 425 583 q 521 537 509 583 q 525 513 522 529 q 555 453 533 464 q 587 446 570 446 q 639 491 635 452 q 556 597 639 560 q 456 617 510 617 z "},"¤":{"ha":818,"x_min":76,"x_max":732,"o":"m 403 149 q 235 231 297 149 q 189 381 189 292 q 290 581 189 519 q 401 610 342 610 q 567 530 506 610 q 614 380 614 468 q 510 178 614 239 q 403 149 461 149 m 400 104 q 581 170 506 106 l 697 52 l 730 84 l 612 203 q 669 382 669 277 q 616 553 667 483 l 732 670 l 700 704 l 585 587 q 404 654 511 654 q 225 590 301 652 l 109 705 l 76 673 l 193 557 q 134 378 134 483 q 194 198 136 269 l 79 83 l 113 50 l 227 164 q 400 104 301 104 z "},"d":{"ha":743,"x_min":54,"x_max":711,"o":"m 517 0 l 711 0 q 690 33 711 30 q 677 34 685 34 l 609 34 l 606 882 l 376 882 l 376 848 l 505 848 l 505 517 q 326 590 438 590 q 100 457 176 590 q 54 274 54 376 q 160 28 54 106 q 292 -14 220 -14 q 506 144 439 -11 l 517 0 m 170 290 q 273 538 170 481 q 345 556 305 556 q 486 450 444 556 q 509 316 509 393 q 427 80 509 153 q 328 41 384 41 q 183 176 217 41 q 170 290 170 227 z "},"†":{"ha":628,"x_min":75,"x_max":553,"o":"m 315 739 q 263 694 267 732 q 285 591 263 684 q 298 518 296 549 q 159 547 274 521 q 118 552 130 552 q 76 514 81 552 q 75 505 75 509 q 111 457 75 463 q 119 456 115 456 q 227 477 127 456 q 312 491 277 488 q 465 463 345 490 q 510 456 496 456 q 552 494 547 456 q 553 503 553 499 q 517 551 553 545 q 509 552 513 552 q 399 530 500 552 q 330 518 358 521 q 358 652 332 543 q 365 696 365 681 q 315 739 357 735 m 315 456 q 260 400 266 446 q 267 332 260 380 q 297 -107 289 159 l 331 -107 q 365 355 339 127 q 368 401 368 382 q 315 456 365 454 z "},"‡":{"ha":628,"x_min":75,"x_max":553,"o":"m 315 739 q 263 694 267 732 q 285 591 263 684 q 298 518 296 549 q 159 547 274 521 q 118 552 130 552 q 76 514 81 552 q 75 505 75 509 q 111 457 75 463 q 119 456 115 456 q 227 477 127 456 q 312 491 277 488 q 465 463 345 490 q 510 456 496 456 q 552 494 547 456 q 553 503 553 499 q 517 551 553 545 q 509 552 513 552 q 399 530 500 552 q 330 518 358 521 q 358 652 332 543 q 365 696 365 681 q 315 739 357 735 m 313 -87 q 365 -42 361 -80 q 343 61 365 -31 q 330 134 332 103 q 469 106 354 132 q 510 100 498 100 q 552 138 547 100 q 553 148 553 144 q 517 195 553 190 q 509 197 513 197 q 401 175 500 197 q 316 161 351 164 q 163 190 283 163 q 118 197 132 197 q 76 159 81 197 q 75 149 75 153 q 111 102 75 107 q 119 100 115 100 q 229 122 127 100 q 298 134 270 132 q 270 0 296 110 q 263 -43 263 -28 q 313 -87 271 -83 m 382 327 q 342 391 382 372 q 313 397 328 397 q 251 357 269 397 q 244 327 244 342 q 283 264 244 283 q 313 258 298 258 q 376 297 357 258 q 382 327 382 312 z "},"ď":{"ha":750,"x_min":54,"x_max":803,"o":"m 517 0 l 711 0 q 690 33 711 30 q 677 34 685 34 l 609 34 l 606 882 l 376 882 l 376 848 l 505 848 l 505 517 q 326 590 438 590 q 100 457 176 590 q 54 274 54 376 q 160 28 54 106 q 292 -14 220 -14 q 506 144 439 -11 l 517 0 m 170 290 q 273 538 170 481 q 345 556 305 556 q 486 450 444 556 q 509 316 509 393 q 427 80 509 153 q 328 41 384 41 q 183 176 217 41 q 170 290 170 227 m 803 799 q 747 894 803 876 q 720 898 734 898 q 655 854 674 898 q 648 823 648 840 q 700 757 648 773 q 709 754 705 755 q 743 730 742 746 q 677 621 742 689 l 709 600 q 803 799 798 699 z "},"đ":{"ha":743,"x_min":54,"x_max":711,"o":"m 248 690 l 505 690 l 505 517 q 326 590 438 590 q 100 457 176 590 q 54 274 54 376 q 160 28 54 106 q 292 -14 220 -14 q 506 144 439 -11 l 517 0 l 711 0 q 690 33 711 30 q 677 34 685 34 l 609 34 l 606 690 l 709 690 l 709 735 l 606 735 l 606 882 l 376 882 l 376 848 l 505 848 l 505 735 l 248 735 l 248 690 m 170 290 q 273 538 170 481 q 345 556 305 556 q 486 450 444 556 q 509 316 509 393 q 427 80 509 153 q 328 41 384 41 q 183 176 217 41 q 170 290 170 227 z "},"°":{"ha":404,"x_min":68,"x_max":336,"o":"m 107 735 q 157 825 107 796 q 202 837 179 837 q 283 787 256 837 q 297 735 297 762 q 245 651 297 677 q 202 640 225 640 q 118 690 144 640 q 107 735 107 712 m 336 735 q 275 849 336 808 q 202 872 241 872 q 90 810 130 872 q 68 735 68 774 q 130 624 68 662 q 202 605 164 605 q 316 666 277 605 q 336 735 336 699 z "},"¨":{"ha":678,"x_min":148,"x_max":532,"o":"m 283 774 q 244 837 283 819 q 217 842 231 842 q 153 802 171 842 q 148 774 148 788 q 191 711 148 727 q 217 707 203 707 q 278 749 262 707 q 283 774 283 761 m 532 774 q 491 837 532 819 q 464 842 477 842 q 401 802 419 842 q 396 774 396 788 q 438 711 396 727 q 464 707 452 707 q 526 749 510 707 q 532 774 532 761 z "},"÷":{"ha":636,"x_min":61,"x_max":575,"o":"m 575 293 l 575 342 l 61 342 l 61 293 l 575 293 m 255 106 q 298 170 256 149 q 330 178 313 178 q 395 137 374 176 q 403 104 403 121 q 361 39 403 58 q 327 33 343 33 q 277 54 298 34 q 255 106 255 77 m 255 517 q 298 581 256 560 q 330 589 315 589 q 395 548 374 587 q 403 515 403 532 q 361 450 403 469 q 327 444 343 444 q 277 465 298 445 q 255 517 255 488 z "},"$":{"ha":730,"x_min":68,"x_max":662,"o":"m 209 655 q 296 777 209 745 q 350 788 320 785 l 350 492 q 214 614 236 548 q 209 655 209 635 m 547 180 q 414 31 547 58 q 389 27 401 28 l 389 351 q 537 231 511 296 q 547 180 547 206 m 389 -123 l 389 -11 q 624 95 552 1 q 662 213 662 146 q 532 408 662 332 q 389 475 499 426 l 389 789 q 495 719 472 784 q 505 684 499 707 q 540 614 517 628 q 583 605 557 605 q 647 678 643 612 q 538 802 647 760 q 391 827 472 827 l 389 827 l 389 948 l 350 948 l 350 826 q 132 723 197 811 q 98 620 98 677 q 228 427 98 502 q 350 369 264 407 l 350 24 l 345 24 q 232 92 254 24 q 224 134 228 106 q 189 212 213 195 q 141 224 170 224 q 71 165 81 224 q 68 144 68 155 q 182 16 68 61 q 347 -12 255 -12 l 350 -12 l 350 -123 l 389 -123 z "},"˙":{"ha":389,"x_min":118,"x_max":266,"o":"m 266 774 q 224 842 266 822 q 193 849 208 849 q 125 806 145 849 q 118 774 118 791 q 163 705 118 724 q 193 700 178 700 q 259 743 240 700 q 266 774 266 758 z "},"ı":{"ha":389,"x_min":41,"x_max":355,"o":"m 323 35 l 252 35 l 252 576 l 41 576 l 41 541 l 144 541 l 144 106 q 41 35 141 35 l 41 0 l 355 0 q 338 34 355 31 q 323 35 331 35 z "},"◌":{"ha":738,"x_min":66,"x_max":662,"o":"m 141 127 q 171 156 145 155 q 199 130 201 156 q 199 127 199 129 q 171 98 195 99 q 141 127 141 100 m 84 217 q 114 247 88 245 q 141 217 142 244 q 113 187 137 189 q 84 217 84 190 m 228 71 q 256 99 232 98 q 286 71 286 96 q 255 41 282 42 q 228 71 227 43 m 328 49 q 358 79 332 77 q 385 49 387 76 q 357 20 381 22 q 328 46 328 20 q 328 49 328 47 m 66 317 q 95 347 69 346 q 125 317 125 345 q 95 289 121 290 q 66 317 68 292 m 88 419 q 119 449 92 448 q 145 419 146 446 q 119 389 141 391 q 88 419 88 392 m 433 71 q 463 99 437 98 q 491 73 491 99 q 491 71 491 72 q 461 41 487 42 q 433 71 433 43 m 148 509 q 179 537 152 536 q 206 509 206 534 q 176 480 202 481 q 148 509 146 480 m 522 127 q 551 156 526 155 q 579 130 579 156 q 579 127 579 129 q 549 98 575 99 q 522 127 521 100 m 236 567 q 266 595 240 594 q 294 570 294 595 q 294 567 294 568 q 264 537 290 538 q 236 567 236 540 m 581 217 q 610 247 585 245 q 640 217 640 244 q 608 187 636 189 q 581 217 579 190 m 339 586 q 368 616 343 614 q 396 586 396 613 q 368 556 392 557 q 339 586 339 559 m 601 317 q 632 347 604 346 q 661 317 662 345 q 632 289 656 290 q 601 317 602 292 m 441 567 q 472 595 445 594 q 499 570 500 595 q 499 567 499 568 q 471 537 495 538 q 441 567 441 540 m 585 419 q 614 449 589 448 q 644 419 644 446 q 613 389 640 391 q 585 419 583 392 m 528 509 q 557 537 532 536 q 587 509 587 534 q 556 480 583 481 q 528 509 528 483 z "},"e":{"ha":629,"x_min":54,"x_max":582,"o":"m 338 556 q 464 476 433 556 q 475 420 475 450 q 410 338 475 353 q 313 332 376 331 l 170 336 q 271 540 176 492 q 338 556 302 556 m 574 130 l 540 142 q 387 26 492 39 q 361 24 373 24 q 182 194 218 24 q 170 298 171 241 l 332 296 q 545 327 498 293 q 582 404 582 354 q 488 551 582 496 q 335 590 422 590 q 92 449 165 590 q 54 283 54 376 q 175 34 54 115 q 339 -14 247 -14 q 555 92 486 -14 q 574 130 566 111 z "},"é":{"ha":629,"x_min":54,"x_max":582,"o":"m 338 556 q 464 476 433 556 q 475 420 475 450 q 410 338 475 353 q 313 332 376 331 l 170 336 q 271 540 176 492 q 338 556 302 556 m 574 130 l 540 142 q 387 26 492 39 q 361 24 373 24 q 182 194 218 24 q 170 298 171 241 l 332 296 q 545 327 498 293 q 582 404 582 354 q 488 551 582 496 q 335 590 422 590 q 92 449 165 590 q 54 283 54 376 q 175 34 54 115 q 339 -14 247 -14 q 555 92 486 -14 q 574 130 566 111 m 437 791 q 454 829 453 810 q 418 883 454 864 q 392 890 404 890 q 353 872 370 888 q 288 776 342 861 q 214 678 248 715 l 236 655 q 384 753 269 681 q 437 791 422 777 z "},"ě":{"ha":629,"x_min":54,"x_max":582,"o":"m 338 556 q 464 476 433 556 q 475 420 475 450 q 410 338 475 353 q 313 332 376 331 l 170 336 q 271 540 176 492 q 338 556 302 556 m 574 130 l 540 142 q 387 26 492 39 q 361 24 373 24 q 182 194 218 24 q 170 298 171 241 l 332 296 q 545 327 498 293 q 582 404 582 354 q 488 551 582 496 q 335 590 422 590 q 92 449 165 590 q 54 283 54 376 q 175 34 54 115 q 339 -14 247 -14 q 555 92 486 -14 q 574 130 566 111 m 316 680 q 399 732 353 680 q 433 773 408 743 q 507 863 477 829 l 490 883 q 315 783 403 827 q 140 884 195 846 l 122 861 q 198 773 153 827 q 282 688 258 701 q 316 680 300 680 z "},"ê":{"ha":629,"x_min":54,"x_max":582,"o":"m 338 556 q 464 476 433 556 q 475 420 475 450 q 410 338 475 353 q 313 332 376 331 l 170 336 q 271 540 176 492 q 338 556 302 556 m 574 130 l 540 142 q 387 26 492 39 q 361 24 373 24 q 182 194 218 24 q 170 298 171 241 l 332 296 q 545 327 498 293 q 582 404 582 354 q 488 551 582 496 q 335 590 422 590 q 92 449 165 590 q 54 283 54 376 q 175 34 54 115 q 339 -14 247 -14 q 555 92 486 -14 q 574 130 566 111 m 479 677 l 495 699 q 420 787 464 732 q 342 865 366 853 q 313 872 328 872 q 237 823 278 872 q 208 787 228 812 q 134 697 164 731 l 151 678 q 316 773 228 728 q 479 677 419 719 z "},"ë":{"ha":629,"x_min":54,"x_max":582,"o":"m 338 556 q 464 476 433 556 q 475 420 475 450 q 410 338 475 353 q 313 332 376 331 l 170 336 q 271 540 176 492 q 338 556 302 556 m 574 130 l 540 142 q 387 26 492 39 q 361 24 373 24 q 182 194 218 24 q 170 298 171 241 l 332 296 q 545 327 498 293 q 582 404 582 354 q 488 551 582 496 q 335 590 422 590 q 92 449 165 590 q 54 283 54 376 q 175 34 54 115 q 339 -14 247 -14 q 555 92 486 -14 q 574 130 566 111 m 259 774 q 220 837 259 819 q 193 842 206 842 q 129 802 146 842 q 123 774 123 788 q 167 711 123 727 q 193 707 179 707 q 254 749 237 707 q 259 774 259 761 m 507 774 q 467 837 507 819 q 439 842 453 842 q 377 802 395 842 q 372 774 372 788 q 414 711 372 727 q 439 707 427 707 q 502 749 486 707 q 507 774 507 761 z "},"ė":{"ha":629,"x_min":54,"x_max":582,"o":"m 338 556 q 464 476 433 556 q 475 420 475 450 q 410 338 475 353 q 313 332 376 331 l 170 336 q 271 540 176 492 q 338 556 302 556 m 574 130 l 540 142 q 387 26 492 39 q 361 24 373 24 q 182 194 218 24 q 170 298 171 241 l 332 296 q 545 327 498 293 q 582 404 582 354 q 488 551 582 496 q 335 590 422 590 q 92 449 165 590 q 54 283 54 376 q 175 34 54 115 q 339 -14 247 -14 q 555 92 486 -14 q 574 130 566 111 m 388 774 q 346 842 388 822 q 315 849 330 849 q 247 806 267 849 q 240 774 240 791 q 285 705 240 724 q 315 700 300 700 q 381 743 362 700 q 388 774 388 758 z "},"è":{"ha":629,"x_min":54,"x_max":582,"o":"m 338 556 q 464 476 433 556 q 475 420 475 450 q 410 338 475 353 q 313 332 376 331 l 170 336 q 271 540 176 492 q 338 556 302 556 m 574 130 l 540 142 q 387 26 492 39 q 361 24 373 24 q 182 194 218 24 q 170 298 171 241 l 332 296 q 545 327 498 293 q 582 404 582 354 q 488 551 582 496 q 335 590 422 590 q 92 449 165 590 q 54 283 54 376 q 175 34 54 115 q 339 -14 247 -14 q 555 92 486 -14 q 574 130 566 111 m 430 678 q 327 823 395 716 q 292 872 305 859 q 252 890 273 890 q 197 854 216 890 q 190 829 190 842 q 208 791 191 808 q 317 719 221 777 q 410 655 373 684 l 430 678 z "},"…":{"ha":808,"x_min":68,"x_max":741,"o":"m 473 62 q 433 126 473 107 q 404 133 419 133 q 342 92 359 133 q 335 62 335 77 q 374 0 335 19 q 404 -7 389 -7 q 467 33 448 -7 q 473 62 473 47 m 741 62 q 700 126 741 107 q 671 133 686 133 q 609 92 627 133 q 602 62 602 77 q 642 0 602 19 q 671 -7 656 -7 q 734 33 715 -7 q 741 62 741 47 m 206 62 q 165 126 206 107 q 137 133 152 133 q 75 92 92 133 q 68 62 68 77 q 107 0 68 19 q 137 -7 122 -7 q 199 33 180 -7 q 206 62 206 47 z "},"ē":{"ha":629,"x_min":54,"x_max":582,"o":"m 338 556 q 464 476 433 556 q 475 420 475 450 q 410 338 475 353 q 313 332 376 331 l 170 336 q 271 540 176 492 q 338 556 302 556 m 574 130 l 540 142 q 387 26 492 39 q 361 24 373 24 q 182 194 218 24 q 170 298 171 241 l 332 296 q 545 327 498 293 q 582 404 582 354 q 488 551 582 496 q 335 590 422 590 q 92 449 165 590 q 54 283 54 376 q 175 34 54 115 q 339 -14 247 -14 q 555 92 486 -14 q 574 130 566 111 m 114 732 l 521 732 l 521 800 l 114 800 l 114 732 z "},"—":{"ha":1192,"x_min":136,"x_max":1058,"o":"m 136 271 l 1058 271 l 1058 326 l 136 326 l 136 271 z "},"–":{"ha":921,"x_min":136,"x_max":787,"o":"m 136 271 l 787 271 l 787 326 l 136 326 l 136 271 z "},"ę":{"ha":629,"x_min":54,"x_max":582,"o":"m 338 556 q 464 476 433 556 q 475 420 475 450 q 410 338 475 353 q 313 332 376 331 l 170 336 q 271 540 176 492 q 338 556 302 556 m 574 130 l 540 142 q 387 26 492 39 q 361 24 373 24 q 182 194 218 24 q 170 298 171 241 l 332 296 q 545 327 498 293 q 582 404 582 354 q 488 551 582 496 q 335 590 422 590 q 92 449 165 590 q 54 283 54 376 q 175 34 54 115 q 339 -14 247 -14 q 555 92 486 -14 q 574 130 566 111 m 439 -220 q 384 -164 389 -220 q 382 -152 382 -157 q 454 -31 382 -84 q 513 0 481 -12 l 511 12 q 292 -110 338 -19 q 279 -157 279 -134 q 343 -247 279 -220 q 410 -259 373 -259 q 530 -209 483 -258 l 514 -189 q 439 -220 476 -220 z "},"=":{"ha":636,"x_min":61,"x_max":575,"o":"m 575 368 l 575 416 l 61 416 l 61 368 l 575 368 m 575 218 l 575 267 l 61 267 l 61 218 l 575 218 z "},"℮":{"ha":1024,"x_min":68,"x_max":970,"o":"m 228 148 l 228 456 l 970 456 q 804 799 970 681 q 532 882 686 882 q 161 715 292 882 q 68 431 68 593 q 232 77 68 201 q 519 -14 354 -14 q 906 138 745 -12 l 875 168 q 583 30 757 50 q 528 27 555 27 q 228 148 346 28 m 810 738 l 810 499 l 228 499 l 228 722 q 513 841 336 834 q 530 841 522 841 q 810 738 699 840 z "},"ð":{"ha":705,"x_min":54,"x_max":643,"o":"m 643 334 q 530 681 643 528 q 434 780 487 738 l 557 850 l 537 886 l 397 807 q 157 882 289 875 l 153 845 q 342 777 262 837 l 176 684 l 198 646 l 376 747 q 495 507 461 658 q 349 547 430 547 q 133 461 220 547 q 54 271 54 382 q 176 37 54 115 q 347 -14 254 -14 q 602 141 526 -14 q 643 334 643 224 m 170 266 q 281 499 170 450 q 351 513 313 513 q 506 407 461 513 q 530 273 530 351 q 463 68 530 140 q 351 20 416 20 q 180 164 218 20 q 170 266 170 210 z "},"!":{"ha":378,"x_min":118,"x_max":260,"o":"m 209 227 q 245 612 209 400 q 260 741 260 697 q 202 826 260 821 q 190 827 197 827 q 118 738 119 825 q 141 559 118 701 q 168 227 168 397 l 209 227 m 256 62 q 216 126 256 107 q 187 133 202 133 q 125 92 142 133 q 118 62 118 77 q 157 0 118 19 q 187 -7 172 -7 q 250 33 231 -7 q 256 62 256 47 z "},"¡":{"ha":345,"x_min":71,"x_max":213,"o":"m 122 357 q 88 -16 122 182 q 71 -157 71 -114 q 129 -243 71 -237 q 141 -244 136 -244 q 213 -155 212 -241 q 190 24 213 -118 q 163 357 163 186 l 122 357 m 75 521 q 115 457 75 476 q 144 450 129 450 q 206 491 189 450 q 213 521 213 506 q 174 583 213 564 q 144 590 159 590 q 81 551 100 590 q 75 521 75 536 z "},"f":{"ha":412,"x_min":42,"x_max":532,"o":"m 340 34 l 245 34 l 245 543 l 401 543 l 401 576 l 245 576 l 245 585 q 315 848 245 817 q 347 854 330 854 q 418 804 389 854 q 453 753 442 761 q 477 745 464 745 q 530 783 522 745 q 532 795 532 789 q 464 873 532 845 q 376 888 425 888 q 186 783 248 888 q 144 598 144 709 l 144 576 l 49 576 l 49 543 l 144 543 l 144 115 q 109 41 144 53 q 42 34 88 34 l 42 0 l 374 0 q 354 33 374 30 q 340 34 349 34 z "},"ﬁ":{"ha":787,"x_min":41,"x_max":753,"o":"m 321 35 l 245 35 l 245 541 l 545 541 l 545 106 q 477 37 545 45 q 445 35 463 35 l 445 0 l 753 0 q 735 34 753 31 q 720 35 728 35 l 647 35 l 647 576 l 245 576 l 245 585 q 349 845 245 808 q 408 854 376 854 q 509 796 477 854 q 519 776 513 789 q 568 719 543 728 q 597 713 582 713 q 656 754 647 713 q 658 768 658 761 q 590 857 658 822 q 442 888 532 888 q 178 754 250 888 q 144 598 144 689 l 144 576 l 47 576 l 47 541 l 144 541 l 144 106 q 41 35 141 35 l 41 0 l 354 0 q 336 34 354 31 q 321 35 330 35 z "},"ﬂ":{"ha":788,"x_min":41,"x_max":755,"o":"m 755 0 q 738 34 755 31 q 723 35 731 35 l 648 35 l 648 882 l 490 882 q 381 888 423 888 q 174 757 231 888 q 144 598 144 690 l 144 576 l 47 576 l 47 541 l 144 541 l 144 106 q 41 35 141 35 l 41 0 l 354 0 q 336 34 354 31 q 321 35 330 35 l 245 35 l 245 541 l 395 541 l 395 576 l 245 576 l 245 585 q 302 823 245 773 q 397 853 336 853 q 545 826 473 853 l 545 109 q 509 42 545 53 q 446 35 487 35 l 446 0 l 755 0 z "},"ƒ":{"ha":600,"x_min":-68,"x_max":606,"o":"m 335 400 q 336 415 335 404 q 336 429 336 425 l 496 429 l 496 464 l 338 464 q 374 742 349 684 q 435 792 396 791 q 488 745 479 792 q 492 723 491 738 q 522 661 500 671 q 548 655 534 655 q 604 700 593 655 q 606 719 606 709 q 551 808 606 777 q 473 827 518 827 q 256 610 321 827 q 225 464 237 547 l 90 464 l 90 429 l 221 429 q 214 366 216 388 q 202 201 210 312 q 157 -160 184 -79 q 90 -235 132 -233 q 47 -190 50 -235 q 47 -167 47 -183 q 26 -98 47 -110 q -7 -90 12 -90 q -66 -137 -56 -90 q -68 -155 -68 -146 q -12 -244 -68 -212 q 69 -264 23 -264 q 286 0 221 -264 q 335 400 323 155 z "},"⁄":{"ha":199,"x_min":-203,"x_max":430,"o":"m -163 -39 l 430 827 l 391 854 l -203 -14 l -163 -39 z "},"g":{"ha":652,"x_min":68,"x_max":640,"o":"m 176 376 q 312 556 179 555 q 446 376 445 553 q 312 190 444 191 q 176 376 178 193 m 313 590 q 119 511 191 590 q 68 374 68 453 q 168 203 68 271 q 187 191 178 197 q 79 117 100 191 q 75 81 75 99 q 133 -26 76 9 q 88 -122 88 -73 q 176 -233 88 -197 q 313 -258 232 -258 q 586 -157 519 -258 q 608 -85 608 -123 q 473 49 608 31 q 437 52 456 52 l 190 57 q 126 111 127 61 q 171 156 126 146 q 191 157 180 157 l 311 156 q 503 237 431 156 q 555 376 555 296 q 476 538 553 477 q 522 590 488 582 q 533 591 528 591 q 574 571 552 591 q 601 557 589 557 q 640 601 635 566 q 601 658 640 643 q 571 663 586 663 q 468 606 507 663 q 445 559 453 585 q 313 590 384 590 m 313 -222 q 144 -152 179 -222 q 134 -114 134 -133 q 167 -41 136 -77 q 212 -46 194 -46 l 420 -49 q 538 -95 522 -50 q 543 -122 543 -106 q 431 -209 543 -182 q 313 -222 377 -222 z "},"ğ":{"ha":652,"x_min":68,"x_max":640,"o":"m 176 376 q 312 556 179 555 q 446 376 445 553 q 312 190 444 191 q 176 376 178 193 m 313 590 q 119 511 191 590 q 68 374 68 453 q 168 203 68 271 q 187 191 178 197 q 79 117 100 191 q 75 81 75 99 q 133 -26 76 9 q 88 -122 88 -73 q 176 -233 88 -197 q 313 -258 232 -258 q 586 -157 519 -258 q 608 -85 608 -123 q 473 49 608 31 q 437 52 456 52 l 190 57 q 126 111 127 61 q 171 156 126 146 q 191 157 180 157 l 311 156 q 503 237 431 156 q 555 376 555 296 q 476 538 553 477 q 522 590 488 582 q 533 591 528 591 q 574 571 552 591 q 601 557 589 557 q 640 601 635 566 q 601 658 640 643 q 571 663 586 663 q 468 606 507 663 q 445 559 453 585 q 313 590 384 590 m 313 -222 q 144 -152 179 -222 q 134 -114 134 -133 q 167 -41 136 -77 q 212 -46 194 -46 l 420 -49 q 538 -95 522 -50 q 543 -122 543 -106 q 431 -209 543 -182 q 313 -222 377 -222 m 334 779 q 464 856 442 779 q 467 867 465 861 l 495 867 q 410 708 495 749 q 330 692 374 692 q 174 796 209 692 q 163 867 163 830 l 190 867 q 334 779 210 779 z "},"ß":{"ha":738,"x_min":42,"x_max":711,"o":"m 711 161 q 613 334 711 256 q 567 368 598 346 q 476 452 492 420 q 465 492 465 472 q 519 571 465 536 q 591 617 583 610 q 636 719 636 658 q 544 848 636 802 q 401 879 481 879 q 170 736 227 879 q 145 598 145 677 l 145 576 l 49 576 l 49 541 l 145 541 l 145 106 q 42 35 142 35 l 42 0 l 247 0 l 247 585 q 342 841 247 804 q 396 850 365 850 q 515 776 481 850 q 529 705 529 743 q 468 590 529 633 q 445 574 460 585 q 377 509 391 538 q 369 464 369 488 q 458 316 369 385 q 500 285 472 305 q 600 193 579 228 q 614 138 614 167 q 555 26 614 52 q 518 18 537 18 q 445 69 467 18 q 419 123 425 117 q 382 140 404 140 q 331 100 338 140 q 330 90 330 94 q 414 3 330 33 q 511 -12 458 -12 q 673 56 614 -12 q 711 161 711 100 z "},"`":{"ha":678,"x_min":218,"x_max":458,"o":"m 458 678 q 355 823 423 716 q 320 872 332 859 q 281 890 301 890 q 225 854 244 890 q 218 829 218 842 q 236 791 220 808 q 346 719 250 777 q 438 655 401 684 l 458 678 z "},">":{"ha":627,"x_min":61,"x_max":566,"o":"m 80 533 l 61 490 l 490 317 l 61 144 l 77 104 l 566 300 l 566 338 l 80 533 z "},"≥":{"ha":636,"x_min":61,"x_max":575,"o":"m 566 338 l 566 376 l 79 543 l 61 500 l 486 355 l 61 209 l 77 167 l 566 338 m 575 62 l 575 107 l 75 107 l 75 62 l 575 62 z "},"«":{"ha":562,"x_min":34,"x_max":528,"o":"m 297 513 l 273 536 q 88 355 247 509 q 52 319 62 331 q 34 278 34 298 q 52 235 35 254 q 202 90 61 224 q 273 22 245 49 l 297 43 q 171 240 277 71 q 146 278 156 263 q 190 347 159 297 q 297 513 263 467 m 528 513 l 503 536 q 319 355 477 509 q 282 319 293 331 q 264 278 264 298 q 282 235 266 254 q 433 90 292 224 q 503 22 476 49 l 528 43 q 401 240 507 71 q 377 278 387 263 q 420 347 389 297 q 528 513 494 467 z "},"»":{"ha":562,"x_min":34,"x_max":528,"o":"m 264 513 l 289 536 q 473 355 315 509 q 510 319 499 331 q 528 278 528 298 q 510 235 526 254 q 359 90 500 224 q 289 22 316 49 l 264 43 q 391 240 285 71 q 415 278 406 263 q 372 347 403 297 q 264 513 298 467 m 34 513 l 58 536 q 243 355 84 509 q 279 319 269 331 q 297 278 297 298 q 279 235 296 254 q 129 90 270 224 q 58 22 85 49 l 34 43 q 160 240 54 71 q 184 278 175 263 q 141 347 172 297 q 34 513 68 467 z "},"‹":{"ha":355,"x_min":34,"x_max":321,"o":"m 317 513 l 290 536 q 106 368 254 495 q 52 319 65 332 q 34 278 34 298 q 52 235 35 254 q 183 123 62 222 q 297 22 262 60 l 321 43 q 259 127 304 66 q 146 278 176 239 q 241 408 172 312 q 317 513 296 483 z "},"›":{"ha":355,"x_min":34,"x_max":321,"o":"m 38 513 l 65 536 q 250 368 102 495 q 304 319 290 332 q 321 278 321 298 q 304 235 320 254 q 172 123 293 222 q 58 22 94 60 l 34 43 q 96 127 52 66 q 209 278 179 239 q 114 408 183 312 q 38 513 60 483 z "},"h":{"ha":774,"x_min":43,"x_max":739,"o":"m 315 34 l 247 34 l 247 327 q 332 506 247 450 q 406 529 368 529 q 521 452 488 529 q 536 370 536 415 l 536 115 q 506 41 536 53 q 441 34 487 34 l 441 0 l 739 0 q 719 33 739 30 q 705 34 713 34 l 637 34 l 637 370 q 540 571 637 518 q 458 590 502 590 q 290 517 358 590 q 247 446 262 486 l 247 882 l 43 882 l 43 848 l 145 848 l 145 115 q 110 41 145 53 q 43 34 90 34 l 43 0 l 349 0 q 328 33 349 30 q 315 34 323 34 z "},"˝":{"ha":812,"x_min":252,"x_max":718,"o":"m 468 810 q 486 846 486 825 q 450 898 484 880 q 425 905 437 905 q 387 888 400 903 q 321 793 374 878 q 252 700 283 735 l 273 678 q 412 770 302 703 q 468 810 453 795 m 686 766 q 709 799 704 779 q 686 857 718 834 q 663 868 674 865 q 623 860 639 872 q 544 785 608 850 q 452 704 491 732 l 467 678 q 628 741 500 694 q 686 766 670 755 z "},"i":{"ha":393,"x_min":41,"x_max":353,"o":"m 319 34 l 251 34 l 251 576 l 41 576 l 41 543 l 149 543 l 149 115 q 107 39 149 53 q 41 34 87 34 l 41 0 l 353 0 q 332 33 353 30 q 319 34 326 34 m 267 774 q 225 842 267 822 q 194 849 209 849 q 126 806 146 849 q 119 774 119 791 q 164 705 119 724 q 194 700 179 700 q 260 743 241 700 q 267 774 267 758 z "},"í":{"ha":389,"x_min":41,"x_max":355,"o":"m 323 35 l 252 35 l 252 576 l 41 576 l 41 541 l 144 541 l 144 106 q 41 35 141 35 l 41 0 l 355 0 q 338 34 355 31 q 323 35 331 35 m 317 791 q 335 829 334 810 q 298 883 335 864 q 273 890 285 890 q 233 872 251 888 q 168 776 222 861 q 95 678 129 715 l 117 655 q 264 753 149 681 q 317 791 302 777 z "},"î":{"ha":389,"x_min":15,"x_max":376,"o":"m 323 35 l 252 35 l 252 576 l 41 576 l 41 541 l 144 541 l 144 106 q 41 35 141 35 l 41 0 l 355 0 q 338 34 355 31 q 323 35 331 35 m 359 677 l 376 699 q 301 787 345 732 q 222 865 247 853 q 194 872 209 872 q 118 823 159 872 q 88 787 109 812 q 15 697 45 731 l 31 678 q 197 773 109 728 q 359 677 300 719 z "},"ï":{"ha":389,"x_min":18,"x_max":374,"o":"m 153 774 q 114 837 153 819 q 87 842 100 842 q 23 802 41 842 q 18 774 18 788 q 61 711 18 727 q 87 707 73 707 q 148 749 132 707 q 153 774 153 761 m 374 774 q 334 837 374 819 q 307 842 320 842 q 244 802 262 842 q 239 774 239 788 q 281 711 239 727 q 307 707 294 707 q 369 749 353 707 q 374 774 374 761 m 323 35 l 252 35 l 252 576 l 41 576 l 41 541 l 144 541 l 144 106 q 41 35 141 35 l 41 0 l 355 0 q 338 34 355 31 q 323 35 331 35 z "},"ì":{"ha":389,"x_min":41,"x_max":355,"o":"m 323 35 l 252 35 l 252 576 l 41 576 l 41 541 l 144 541 l 144 106 q 41 35 141 35 l 41 0 l 355 0 q 338 34 355 31 q 323 35 331 35 m 311 678 q 208 823 275 716 q 172 872 186 859 q 133 890 153 890 q 77 854 96 890 q 71 829 71 842 q 88 791 72 808 q 198 719 102 777 q 290 655 254 684 l 311 678 z "},"ī":{"ha":389,"x_min":35,"x_max":361,"o":"m 35 732 l 361 732 l 361 800 l 35 800 l 35 732 m 323 35 l 252 35 l 252 576 l 41 576 l 41 541 l 144 541 l 144 106 q 41 35 141 35 l 41 0 l 355 0 q 338 34 355 31 q 323 35 331 35 z "},"∞":{"ha":941,"x_min":54,"x_max":887,"o":"m 705 232 q 864 326 817 232 q 887 419 887 369 q 814 571 887 518 q 700 604 765 604 q 492 486 600 604 q 465 454 480 471 q 236 604 349 602 q 77 510 125 604 q 54 416 54 467 q 127 264 54 317 q 241 232 176 232 q 442 343 339 232 q 475 380 457 359 q 705 232 591 233 m 236 281 q 113 358 145 281 q 100 418 100 387 q 160 537 100 498 q 236 559 194 559 q 439 425 338 557 q 307 300 355 327 q 236 281 271 281 m 705 277 q 500 410 601 278 q 629 533 583 506 q 705 555 669 555 q 829 477 796 555 q 841 418 841 449 q 781 298 841 338 q 705 277 747 277 z "},"∫":{"ha":483,"x_min":-27,"x_max":511,"o":"m 313 163 q 294 560 313 251 q 288 772 288 684 q 331 911 288 898 q 346 914 339 914 q 382 871 374 914 q 400 802 392 814 q 452 777 416 779 q 510 825 499 777 q 511 841 511 833 q 457 930 511 898 q 377 949 422 949 q 217 806 262 949 q 183 494 183 694 q 201 85 183 427 q 206 -121 206 -37 q 144 -355 206 -343 q 134 -357 138 -357 q 99 -315 102 -357 q 98 -294 98 -308 q 75 -221 98 -237 q 34 -212 58 -212 q -26 -259 -15 -212 q -27 -277 -27 -269 q 27 -366 -27 -335 q 106 -387 61 -387 q 275 -217 227 -387 q 313 163 313 -83 z "},"į":{"ha":389,"x_min":41,"x_max":373,"o":"m 323 35 l 252 35 l 252 576 l 41 576 l 41 541 l 144 541 l 144 106 q 41 35 141 35 l 41 0 l 300 0 q 127 -125 156 -41 q 122 -157 122 -142 q 186 -247 122 -220 q 252 -259 216 -259 q 373 -209 326 -258 l 357 -189 q 282 -220 319 -220 q 227 -164 232 -220 q 225 -152 225 -157 q 297 -31 225 -84 q 355 0 324 -12 q 338 34 355 31 q 323 35 331 35 m 269 774 q 227 842 269 822 q 195 849 210 849 q 127 806 148 849 q 121 774 121 791 q 165 705 121 724 q 195 700 180 700 q 262 743 243 700 q 269 774 269 758 z "},"j":{"ha":361,"x_min":-41,"x_max":269,"o":"m 269 774 q 227 842 269 822 q 195 849 210 849 q 127 806 148 849 q 121 774 121 791 q 165 705 121 724 q 195 700 180 700 q 262 743 243 700 q 269 774 269 758 m 45 576 l 45 543 l 153 543 l 153 -92 q 98 -224 149 -222 q 61 -187 71 -224 q 38 -134 49 -144 q 11 -126 26 -126 q -39 -163 -30 -126 q -41 -175 -41 -170 q 18 -247 -41 -222 q 73 -258 45 -258 q 218 -174 167 -258 q 255 -18 255 -111 l 255 576 l 45 576 z "},"k":{"ha":678,"x_min":42,"x_max":692,"o":"m 307 34 l 245 34 l 245 235 l 320 304 l 511 0 l 692 0 q 671 33 692 30 q 658 34 666 34 l 609 34 l 391 370 l 518 490 q 590 540 566 534 q 614 543 601 543 q 647 563 644 543 q 648 576 648 570 l 418 576 l 418 543 l 519 543 l 245 289 l 245 882 l 42 882 l 42 848 l 144 848 l 144 115 q 109 41 144 53 q 42 34 88 34 l 42 0 l 340 0 q 320 33 340 30 q 307 34 315 34 z "},"l":{"ha":392,"x_min":45,"x_max":355,"o":"m 321 34 l 248 34 l 248 882 l 45 882 l 45 848 l 146 848 l 146 115 q 111 41 146 53 q 45 34 91 34 l 45 0 l 355 0 q 335 33 355 30 q 321 34 330 34 z "},"ĺ":{"ha":389,"x_min":45,"x_max":355,"o":"m 292 997 q 320 1028 313 1009 q 297 1092 330 1065 q 274 1104 285 1101 q 233 1097 252 1108 q 148 1024 220 1089 q 47 945 91 972 l 64 918 q 231 974 96 933 q 292 997 274 986 m 321 34 l 248 34 l 248 882 l 45 882 l 45 848 l 146 848 l 146 115 q 111 41 146 53 q 45 34 91 34 l 45 0 l 355 0 q 335 33 355 30 q 321 34 330 34 z "},"ľ":{"ha":420,"x_min":45,"x_max":448,"o":"m 321 34 l 248 34 l 248 882 l 45 882 l 45 848 l 146 848 l 146 115 q 111 41 146 53 q 45 34 91 34 l 45 0 l 355 0 q 335 33 355 30 q 321 34 330 34 m 448 799 q 392 894 448 876 q 365 898 378 898 q 300 854 319 898 q 293 823 293 840 q 345 757 293 773 q 354 754 350 755 q 388 730 387 746 q 321 621 387 689 l 354 600 q 448 799 442 699 z "},"<":{"ha":627,"x_min":61,"x_max":566,"o":"m 547 104 l 566 148 l 137 320 l 566 494 l 549 533 l 61 338 l 61 300 l 547 104 z "},"≤":{"ha":636,"x_min":61,"x_max":566,"o":"m 566 209 l 141 354 l 566 500 l 549 543 l 61 372 l 61 334 l 548 167 l 566 209 m 562 62 l 562 107 l 61 107 l 61 62 l 562 62 z "},"¬":{"ha":667,"x_min":61,"x_max":606,"o":"m 545 160 l 606 160 l 606 450 l 61 450 l 61 401 l 545 401 l 545 160 z "},"◊":{"ha":781,"x_min":54,"x_max":727,"o":"m 369 812 l 54 342 l 368 -129 l 414 -129 l 727 342 l 415 812 l 369 812 m 665 342 l 391 -71 l 117 342 l 392 754 l 665 342 z "},"ł":{"ha":389,"x_min":5,"x_max":396,"o":"m 26 321 l 146 391 l 146 115 q 111 41 146 53 q 45 34 91 34 l 45 0 l 355 0 q 335 33 355 30 q 321 34 330 34 l 248 34 l 248 448 l 396 532 l 376 566 l 248 494 l 248 882 l 45 882 l 45 848 l 146 848 l 146 437 l 5 357 l 26 321 z "},"m":{"ha":1107,"x_min":41,"x_max":1073,"o":"m 305 34 l 244 34 l 244 327 q 327 505 248 446 q 400 532 363 532 q 494 457 468 532 q 505 384 505 425 l 505 115 q 475 41 505 53 q 410 34 456 34 l 410 0 l 701 0 q 681 33 701 30 q 667 34 675 34 l 606 34 l 606 370 l 606 381 q 703 519 628 480 q 757 533 731 533 q 854 461 826 533 q 868 384 868 427 l 868 115 q 838 41 868 53 q 773 34 819 34 l 773 0 l 1073 0 q 1053 33 1073 30 q 1039 34 1047 34 l 970 34 l 970 370 q 879 566 970 510 q 791 590 838 590 q 625 494 688 590 q 598 442 609 469 q 491 581 574 549 q 441 590 467 590 q 279 507 343 590 q 243 441 256 477 l 237 576 l 41 576 l 41 543 l 142 543 l 142 115 q 107 41 142 53 q 41 34 87 34 l 41 0 l 339 0 q 319 33 339 28 q 305 34 312 34 z "},"¯":{"ha":678,"x_min":136,"x_max":543,"o":"m 136 732 l 543 732 l 543 800 l 136 800 l 136 732 z "},"−":{"ha":636,"x_min":61,"x_max":575,"o":"m 575 293 l 575 342 l 61 342 l 61 293 l 575 293 z "},"×":{"ha":543,"x_min":61,"x_max":481,"o":"m 444 107 l 481 145 l 309 319 l 481 491 l 445 528 l 273 355 l 99 528 l 61 490 l 235 317 l 62 145 l 99 109 l 271 281 l 444 107 z "},"n":{"ha":770,"x_min":41,"x_max":736,"o":"m 305 34 l 244 34 l 244 327 q 334 509 248 453 q 408 532 370 532 q 521 454 491 532 q 533 384 533 423 l 533 115 q 498 41 533 53 q 431 34 477 34 l 431 0 l 736 0 q 716 33 736 30 q 703 34 711 34 l 635 34 l 635 370 q 541 564 635 506 q 448 590 498 590 q 282 510 347 590 q 243 441 258 479 l 237 576 l 41 576 l 41 543 l 142 543 l 142 115 q 107 41 142 53 q 41 34 87 34 l 41 0 l 339 0 q 319 33 339 30 q 305 34 313 34 z "},"ń":{"ha":770,"x_min":41,"x_max":736,"o":"m 305 34 l 244 34 l 244 327 q 334 509 248 453 q 408 532 370 532 q 521 454 491 532 q 533 384 533 423 l 533 115 q 498 41 533 53 q 431 34 477 34 l 431 0 l 736 0 q 716 33 736 30 q 703 34 711 34 l 635 34 l 635 370 q 541 564 635 506 q 448 590 498 590 q 282 510 347 590 q 243 441 258 479 l 237 576 l 41 576 l 41 543 l 142 543 l 142 115 q 107 41 142 53 q 41 34 87 34 l 41 0 l 339 0 q 319 33 339 30 q 305 34 313 34 m 507 791 q 525 829 524 810 q 488 883 525 864 q 463 890 475 890 q 423 872 441 888 q 358 776 412 861 q 285 678 319 715 l 307 655 q 454 753 339 681 q 507 791 492 777 z "},"ň":{"ha":770,"x_min":41,"x_max":736,"o":"m 305 34 l 244 34 l 244 327 q 334 509 248 453 q 408 532 370 532 q 521 454 491 532 q 533 384 533 423 l 533 115 q 498 41 533 53 q 431 34 477 34 l 431 0 l 736 0 q 716 33 736 30 q 703 34 711 34 l 635 34 l 635 370 q 541 564 635 506 q 448 590 498 590 q 282 510 347 590 q 243 441 258 479 l 237 576 l 41 576 l 41 543 l 142 543 l 142 115 q 107 41 142 53 q 41 34 87 34 l 41 0 l 339 0 q 319 33 339 30 q 305 34 313 34 m 387 680 q 469 732 423 680 q 503 773 479 743 q 578 863 548 829 l 560 883 q 385 783 473 827 q 210 884 266 846 l 193 861 q 269 773 224 827 q 353 688 328 701 q 387 680 370 680 z "},"≠":{"ha":636,"x_min":61,"x_max":575,"o":"m 575 218 l 575 267 l 320 267 l 359 368 l 575 368 l 575 416 l 378 416 l 445 583 l 399 583 l 332 416 l 61 416 l 61 368 l 313 368 l 274 267 l 61 267 l 61 218 l 255 218 l 193 61 l 239 61 l 301 218 l 575 218 z "},"ñ":{"ha":770,"x_min":41,"x_max":736,"o":"m 305 34 l 244 34 l 244 327 q 334 509 248 453 q 408 532 370 532 q 521 454 491 532 q 533 384 533 423 l 533 115 q 498 41 533 53 q 431 34 477 34 l 431 0 l 736 0 q 716 33 736 30 q 703 34 711 34 l 635 34 l 635 370 q 541 564 635 506 q 448 590 498 590 q 282 510 347 590 q 243 441 258 479 l 237 576 l 41 576 l 41 543 l 142 543 l 142 115 q 107 41 142 53 q 41 34 87 34 l 41 0 l 339 0 q 319 33 339 30 q 305 34 313 34 m 319 859 q 415 815 359 859 q 488 779 463 779 q 559 848 538 779 q 562 856 560 852 l 590 849 q 468 704 559 705 q 373 747 427 704 q 297 784 326 784 q 229 720 250 784 q 225 707 227 713 l 198 713 q 319 859 229 857 z "},"#":{"ha":785,"x_min":81,"x_max":704,"o":"m 437 -14 l 477 -14 l 514 264 l 686 264 l 686 326 l 522 326 l 545 502 l 704 502 l 704 563 l 553 563 l 586 814 l 545 814 l 513 563 l 317 563 l 350 814 l 309 814 l 277 563 l 99 563 l 99 502 l 269 502 l 245 326 l 81 326 l 81 264 l 237 264 l 201 -14 l 241 -14 l 278 264 l 473 264 l 437 -14 m 481 326 l 286 326 l 309 502 l 505 502 l 481 326 z "},"o":{"ha":696,"x_min":54,"x_max":642,"o":"m 170 289 q 285 545 170 499 q 347 556 315 556 q 522 366 498 556 q 526 294 526 334 q 401 27 526 66 q 351 20 377 20 q 179 183 214 20 q 170 289 170 231 m 351 590 q 134 500 221 590 q 54 294 54 418 q 179 38 54 123 q 347 -14 255 -14 q 563 79 477 -14 q 642 289 642 163 q 515 543 642 460 q 351 590 441 590 z "},"ó":{"ha":696,"x_min":54,"x_max":642,"o":"m 170 289 q 285 545 170 499 q 347 556 315 556 q 522 366 498 556 q 526 294 526 334 q 401 27 526 66 q 351 20 377 20 q 179 183 214 20 q 170 289 170 231 m 351 590 q 134 500 221 590 q 54 294 54 418 q 179 38 54 123 q 347 -14 255 -14 q 563 79 477 -14 q 642 289 642 163 q 515 543 642 460 q 351 590 441 590 m 477 791 q 495 829 494 810 q 458 883 495 864 q 433 890 445 890 q 393 872 411 888 q 328 776 382 861 q 255 678 289 715 l 277 655 q 425 753 309 681 q 477 791 463 777 z "},"ô":{"ha":696,"x_min":54,"x_max":642,"o":"m 170 289 q 285 545 170 499 q 347 556 315 556 q 522 366 498 556 q 526 294 526 334 q 401 27 526 66 q 351 20 377 20 q 179 183 214 20 q 170 289 170 231 m 351 590 q 134 500 221 590 q 54 294 54 418 q 179 38 54 123 q 347 -14 255 -14 q 563 79 477 -14 q 642 289 642 163 q 515 543 642 460 q 351 590 441 590 m 519 677 l 536 699 q 461 787 505 732 q 382 865 407 853 q 354 872 369 872 q 278 823 319 872 q 248 787 269 812 q 175 697 205 731 l 191 678 q 357 773 269 728 q 519 677 460 719 z "},"ö":{"ha":696,"x_min":54,"x_max":642,"o":"m 170 289 q 285 545 170 499 q 347 556 315 556 q 522 366 498 556 q 526 294 526 334 q 401 27 526 66 q 351 20 377 20 q 179 183 214 20 q 170 289 170 231 m 351 590 q 134 500 221 590 q 54 294 54 418 q 179 38 54 123 q 347 -14 255 -14 q 563 79 477 -14 q 642 289 642 163 q 515 543 642 460 q 351 590 441 590 m 300 774 q 260 837 300 819 q 233 842 247 842 q 170 802 187 842 q 164 774 164 788 q 208 711 164 727 q 233 707 220 707 q 294 749 278 707 q 300 774 300 761 m 548 774 q 507 837 548 819 q 480 842 494 842 q 418 802 435 842 q 412 774 412 788 q 454 711 412 727 q 480 707 468 707 q 543 749 526 707 q 548 774 548 761 z "},"œ":{"ha":1095,"x_min":54,"x_max":1047,"o":"m 803 556 q 929 475 898 556 q 939 420 939 449 q 878 339 939 354 q 779 332 842 331 l 635 336 q 745 545 642 502 q 803 556 772 556 m 170 289 q 285 545 170 499 q 347 556 315 556 q 522 366 498 556 q 526 294 526 334 q 401 27 526 66 q 351 20 377 20 q 179 183 214 20 q 170 289 170 231 m 351 590 q 134 500 221 590 q 54 294 54 418 q 179 38 54 123 q 347 -14 255 -14 q 556 81 473 -14 q 578 110 568 96 q 776 -12 644 0 q 804 -14 789 -14 q 1023 98 956 -14 q 1040 136 1034 117 l 1005 142 q 852 26 958 39 q 826 24 838 24 q 647 194 684 24 q 635 298 636 241 l 798 296 q 1010 327 963 293 q 1047 404 1047 354 q 954 551 1047 496 q 800 590 887 590 q 579 469 650 589 q 381 589 509 575 q 351 590 366 590 z "},"˛":{"ha":678,"x_min":191,"x_max":442,"o":"m 351 -220 q 296 -164 301 -220 q 294 -152 294 -157 q 366 -31 294 -84 q 425 0 393 -12 l 423 12 q 203 -110 250 -19 q 191 -157 191 -134 q 255 -247 191 -220 q 321 -259 285 -259 q 442 -209 395 -258 l 426 -189 q 351 -220 388 -220 z "},"ò":{"ha":696,"x_min":54,"x_max":642,"o":"m 170 289 q 285 545 170 499 q 347 556 315 556 q 522 366 498 556 q 526 294 526 334 q 401 27 526 66 q 351 20 377 20 q 179 183 214 20 q 170 289 170 231 m 351 590 q 134 500 221 590 q 54 294 54 418 q 179 38 54 123 q 347 -14 255 -14 q 563 79 477 -14 q 642 289 642 163 q 515 543 642 460 q 351 590 441 590 m 471 678 q 368 823 435 716 q 332 872 345 859 q 293 890 313 890 q 237 854 256 890 q 231 829 231 842 q 248 791 232 808 q 358 719 262 777 q 450 655 414 684 l 471 678 z "},"ő":{"ha":696,"x_min":54,"x_max":647,"o":"m 170 289 q 285 545 170 499 q 347 556 315 556 q 522 366 498 556 q 526 294 526 334 q 401 27 526 66 q 351 20 377 20 q 179 183 214 20 q 170 289 170 231 m 351 590 q 134 500 221 590 q 54 294 54 418 q 179 38 54 123 q 347 -14 255 -14 q 563 79 477 -14 q 642 289 642 163 q 515 543 642 460 q 351 590 441 590 m 397 810 q 415 846 415 825 q 380 898 414 880 q 354 905 366 905 q 316 888 330 903 q 251 793 304 878 q 182 700 213 735 l 202 678 q 342 770 232 703 q 397 810 382 795 m 616 766 q 639 799 633 779 q 616 857 647 834 q 593 868 604 865 q 552 860 568 872 q 473 785 537 850 q 381 704 420 732 l 396 678 q 557 741 430 694 q 616 766 600 755 z "},"ō":{"ha":696,"x_min":54,"x_max":642,"o":"m 170 289 q 285 545 170 499 q 347 556 315 556 q 522 366 498 556 q 526 294 526 334 q 401 27 526 66 q 351 20 377 20 q 179 183 214 20 q 170 289 170 231 m 351 590 q 134 500 221 590 q 54 294 54 418 q 179 38 54 123 q 347 -14 255 -14 q 563 79 477 -14 q 642 289 642 163 q 515 543 642 460 q 351 590 441 590 m 155 732 l 562 732 l 562 800 l 155 800 l 155 732 z "},"½":{"ha":997,"x_min":54,"x_max":928,"o":"m 229 -39 l 822 827 l 783 854 l 189 -14 l 229 -39 m 233 826 l 54 700 l 75 670 l 203 758 l 203 429 l 92 419 l 92 392 l 396 392 q 377 419 396 415 q 366 420 372 419 l 296 429 l 296 826 l 233 826 m 646 76 q 719 138 646 100 q 853 216 825 194 q 917 321 916 266 q 817 434 917 408 q 750 442 785 442 q 604 389 648 442 q 583 335 583 365 q 629 289 586 290 q 678 330 674 289 q 681 349 680 335 q 704 407 682 396 q 741 415 719 415 q 812 359 804 415 q 815 330 815 346 q 735 194 815 254 q 697 167 723 184 q 601 81 623 117 q 585 18 585 52 l 585 0 l 926 0 l 928 144 l 911 144 l 898 110 q 860 77 887 81 q 823 76 846 76 l 646 76 z "},"¼":{"ha":982,"x_min":54,"x_max":916,"o":"m 229 -39 l 822 827 l 783 854 l 189 -14 l 229 -39 m 233 826 l 54 700 l 75 670 l 203 758 l 203 429 l 92 419 l 92 392 l 396 392 q 377 419 396 415 q 366 420 372 419 l 296 429 l 296 826 l 233 826 m 916 -61 q 901 -34 916 -37 q 888 -33 895 -33 l 826 -33 l 826 68 l 916 68 l 916 99 l 826 99 l 826 269 l 806 269 l 796 244 q 758 201 781 206 q 742 198 750 198 l 735 198 l 735 99 l 537 100 q 587 141 553 114 q 827 408 827 334 q 781 454 825 453 q 728 415 749 454 q 713 384 724 406 q 574 174 659 262 q 494 100 537 136 l 500 69 l 735 68 l 735 -33 l 636 -33 l 636 -61 l 916 -61 z "},"¹":{"ha":389,"x_min":27,"x_max":369,"o":"m 206 880 l 27 754 l 47 724 l 176 812 l 176 483 l 65 473 l 65 446 l 369 446 q 350 473 369 469 q 339 475 345 473 l 269 483 l 269 880 l 206 880 z "},"ª":{"ha":422,"x_min":20,"x_max":395,"o":"m 378 331 l 378 378 l 37 378 l 37 331 l 378 331 m 153 491 q 109 540 114 491 q 107 555 107 548 q 209 627 107 618 q 240 628 225 628 l 240 581 q 172 494 220 510 q 153 491 163 491 m 395 536 l 369 536 q 342 484 363 486 q 321 521 321 487 l 321 686 q 174 814 319 812 q 50 766 83 814 q 41 735 41 751 q 83 696 43 697 q 127 730 118 696 q 142 774 137 768 q 178 787 156 787 q 240 692 239 784 l 240 655 q 33 597 68 655 q 20 545 20 575 q 85 453 20 475 q 125 448 104 448 q 237 521 203 448 q 239 524 239 522 q 305 450 248 460 q 321 449 313 449 q 395 533 389 449 q 395 536 395 534 z "},"º":{"ha":404,"x_min":20,"x_max":377,"o":"m 111 631 q 184 781 111 772 q 198 783 191 783 q 283 685 273 783 q 286 633 286 663 q 221 481 286 495 q 201 479 210 479 q 111 605 118 479 q 111 631 111 618 m 201 814 q 56 745 107 814 q 20 633 20 697 q 110 469 20 519 q 198 448 152 448 q 340 517 289 448 q 377 631 377 566 q 286 793 377 746 q 201 814 245 814 m 28 331 l 370 331 l 370 378 l 28 378 l 28 331 z "},"ø":{"ha":696,"x_min":11,"x_max":665,"o":"m 39 -12 l 132 79 q 347 -14 218 -14 q 563 79 477 -14 q 642 289 642 163 q 564 500 640 420 l 665 598 l 636 624 l 537 528 q 351 590 458 590 q 134 500 221 590 q 54 294 54 418 q 107 109 56 187 l 11 15 l 39 -12 m 170 289 q 285 545 170 499 q 347 556 315 556 q 487 479 442 555 l 180 180 q 170 289 170 233 m 351 20 q 193 137 237 22 l 505 442 q 526 294 526 380 q 401 27 526 66 q 351 20 377 20 z "},"õ":{"ha":696,"x_min":54,"x_max":642,"o":"m 170 289 q 285 545 170 499 q 347 556 315 556 q 522 366 498 556 q 526 294 526 334 q 401 27 526 66 q 351 20 377 20 q 179 183 214 20 q 170 289 170 231 m 351 590 q 134 500 221 590 q 54 294 54 418 q 179 38 54 123 q 347 -14 255 -14 q 563 79 477 -14 q 642 289 642 163 q 515 543 642 460 q 351 590 441 590 m 289 859 q 385 815 330 859 q 458 779 433 779 q 529 848 509 779 q 532 856 530 852 l 560 849 q 438 704 529 705 q 343 747 397 704 q 267 784 296 784 q 199 720 220 784 q 195 707 197 713 l 168 713 q 289 859 199 857 z "},"p":{"ha":746,"x_min":35,"x_max":692,"o":"m 239 -224 l 239 57 q 411 -14 313 -8 q 613 77 532 -14 q 692 301 692 165 q 606 536 692 456 q 461 590 547 590 q 264 486 330 590 q 237 429 248 458 l 231 576 l 35 576 l 35 543 l 137 543 l 137 -142 q 102 -217 137 -205 q 35 -224 81 -224 l 35 -258 l 368 -258 q 347 -225 368 -228 q 334 -224 342 -224 l 239 -224 m 418 536 q 567 388 536 536 q 576 288 576 343 q 469 35 576 88 q 401 20 438 20 q 258 130 297 20 q 237 262 237 186 q 328 506 237 438 q 418 536 369 536 z "},"¶":{"ha":699,"x_min":68,"x_max":678,"o":"m 300 -153 q 510 -65 433 -153 q 574 127 574 9 l 571 779 l 678 779 l 678 814 l 404 814 q 106 681 187 814 q 68 543 68 618 q 176 335 68 404 q 347 292 247 292 l 368 292 l 368 65 q 339 -111 368 -90 q 313 -118 330 -118 q 267 -75 279 -118 q 248 -15 250 -18 q 184 22 228 20 q 119 -24 133 22 q 117 -46 117 -35 q 197 -134 117 -103 q 300 -153 243 -153 m 475 95 q 416 -95 475 -56 q 380 -111 400 -106 q 406 79 406 -76 l 406 779 l 475 779 l 475 95 z "},"(":{"ha":456,"x_min":68,"x_max":435,"o":"m 423 882 q 134 633 232 830 q 68 334 68 496 q 189 -49 68 106 q 419 -203 281 -165 l 433 -170 q 221 73 290 -118 q 178 336 178 195 q 278 713 178 559 q 435 848 343 812 l 423 882 z "},")":{"ha":458,"x_min":23,"x_max":391,"o":"m 35 882 q 324 633 227 830 q 391 334 391 496 q 270 -49 391 106 q 39 -203 178 -165 l 26 -170 q 237 73 168 -118 q 281 336 281 195 q 180 713 281 559 q 23 848 115 812 l 35 882 z "},"∂":{"ha":696,"x_min":54,"x_max":628,"o":"m 628 495 q 506 781 628 694 q 359 827 441 827 q 178 769 267 826 l 199 735 q 353 791 281 791 q 502 682 456 791 q 526 547 526 625 q 511 426 526 491 q 336 519 450 518 q 133 426 216 519 q 54 213 54 338 q 153 22 54 84 q 281 -14 210 -14 q 553 164 457 -14 q 628 495 628 302 m 170 191 q 264 454 170 380 q 351 486 305 486 q 468 395 437 486 q 480 308 480 357 q 389 60 480 140 q 289 19 343 19 q 175 129 197 19 q 170 191 170 157 z "},"%":{"ha":1089,"x_min":81,"x_max":1001,"o":"m 256 -39 l 849 827 l 810 854 l 216 -14 l 256 -39 m 286 834 q 113 738 167 834 q 81 610 81 684 q 180 404 81 461 q 282 378 227 378 q 457 477 403 378 q 487 606 487 533 q 378 815 487 764 q 286 834 336 834 m 285 406 q 195 490 214 406 q 186 606 186 534 q 244 799 186 770 q 283 807 262 807 q 372 722 353 807 q 381 610 381 678 q 285 406 380 407 m 800 442 q 627 346 681 442 q 595 218 595 292 q 694 12 595 69 q 796 -14 741 -14 q 971 85 917 -14 q 1001 214 1001 141 q 892 423 1001 372 q 800 442 850 442 m 799 14 q 709 98 728 14 q 700 214 700 142 q 758 407 700 378 q 798 415 776 415 q 886 330 867 415 q 895 218 895 286 q 799 14 894 15 z "},".":{"ha":274,"x_min":68,"x_max":206,"o":"m 206 62 q 165 126 206 107 q 137 133 152 133 q 75 92 92 133 q 68 62 68 77 q 107 0 68 19 q 137 -7 122 -7 q 199 33 180 -7 q 206 62 206 47 z "},"·":{"ha":416,"x_min":136,"x_max":282,"o":"m 282 315 q 240 381 282 361 q 209 388 225 388 q 142 346 163 388 q 136 315 136 331 q 178 248 136 269 q 209 241 193 241 q 275 283 255 241 q 282 315 282 298 z "},"‰":{"ha":1579,"x_min":81,"x_max":1489,"o":"m 1289 442 q 1115 346 1169 442 q 1084 218 1084 292 q 1183 12 1084 69 q 1284 -14 1229 -14 q 1459 85 1405 -14 q 1489 214 1489 141 q 1381 423 1489 372 q 1289 442 1339 442 m 1287 14 q 1198 98 1217 14 q 1188 214 1188 142 q 1246 407 1188 378 q 1286 415 1264 415 q 1374 330 1355 415 q 1383 218 1383 286 q 1287 14 1382 15 m 256 -39 l 849 827 l 810 854 l 216 -14 l 256 -39 m 286 834 q 113 738 167 834 q 81 610 81 684 q 180 404 81 461 q 282 378 227 378 q 457 477 403 378 q 487 606 487 533 q 378 815 487 764 q 286 834 336 834 m 285 406 q 195 490 214 406 q 186 606 186 534 q 244 799 186 770 q 283 807 262 807 q 372 722 353 807 q 381 610 381 678 q 285 406 380 407 m 800 442 q 627 346 681 442 q 595 218 595 292 q 694 12 595 69 q 796 -14 741 -14 q 971 85 917 -14 q 1001 214 1001 141 q 892 423 1001 372 q 800 442 850 442 m 799 14 q 709 98 728 14 q 700 214 700 142 q 758 407 700 378 q 798 415 776 415 q 886 330 867 415 q 895 218 895 286 q 799 14 894 15 z "},"π":{"ha":779,"x_min":34,"x_max":751,"o":"m 751 104 l 719 113 q 662 28 705 42 q 648 26 654 26 q 605 117 605 28 l 605 541 l 726 541 l 726 576 l 34 576 l 34 541 l 141 541 l 141 106 q 34 35 132 38 l 34 0 l 349 0 q 331 34 349 31 q 316 35 324 35 l 243 35 l 243 541 l 503 541 l 503 171 q 628 -12 517 -4 q 734 54 699 -12 q 751 104 746 77 z "},"+":{"ha":636,"x_min":61,"x_max":575,"o":"m 575 293 l 575 342 l 349 342 l 349 583 l 288 583 l 288 342 l 61 342 l 61 293 l 288 293 l 288 52 l 349 52 l 349 293 l 575 293 z "},"±":{"ha":636,"x_min":61,"x_max":575,"o":"m 575 347 l 575 396 l 349 396 l 349 583 l 288 583 l 288 396 l 61 396 l 61 347 l 288 347 l 288 160 l 349 160 l 349 347 l 575 347 m 575 49 l 575 98 l 61 98 l 61 49 l 575 49 z "},"∏":{"ha":803,"x_min":20,"x_max":783,"o":"m 354 -176 q 336 -142 354 -145 q 320 -141 328 -141 l 248 -141 l 248 779 l 548 779 l 548 -141 l 449 -141 l 449 -176 l 783 -176 q 765 -142 783 -145 q 749 -141 757 -141 l 663 -141 l 663 779 l 783 779 l 783 814 l 20 814 l 20 779 l 133 779 l 133 -141 l 20 -141 l 20 -176 l 354 -176 z "},"q":{"ha":746,"x_min":54,"x_max":712,"o":"m 54 264 q 165 23 54 96 q 290 -14 221 -14 q 480 83 410 -14 q 509 133 496 107 l 507 -142 q 468 -216 507 -202 q 378 -224 442 -224 l 378 -258 l 712 -258 q 692 -225 712 -228 q 678 -224 686 -224 l 609 -224 l 609 543 l 711 543 l 711 576 l 521 576 l 514 518 q 328 590 439 590 q 123 492 202 590 q 54 264 54 404 m 509 315 q 411 64 509 126 q 331 41 374 41 q 180 183 213 41 q 170 289 170 229 q 273 538 170 483 q 346 556 305 556 q 502 401 473 556 q 509 315 509 362 z "},"?":{"ha":620,"x_min":81,"x_max":549,"o":"m 302 227 q 395 434 302 342 q 441 476 410 449 q 534 583 515 543 q 549 651 549 616 q 415 815 549 777 q 315 827 369 827 q 119 765 186 827 q 81 686 83 730 q 148 614 84 616 q 209 663 198 614 q 214 696 212 674 q 245 777 221 760 q 302 792 267 792 q 418 700 410 792 q 419 678 419 689 q 362 505 419 595 q 290 380 304 414 q 262 227 262 309 l 302 227 m 351 62 q 311 126 351 107 q 282 133 297 133 q 220 92 237 133 q 213 62 213 77 q 252 0 213 19 q 282 -7 267 -7 q 345 33 326 -7 q 351 62 351 47 z "},"¿":{"ha":658,"x_min":58,"x_max":526,"o":"m 305 357 q 213 149 305 241 q 167 107 198 134 q 73 0 92 41 q 58 -68 58 -33 q 193 -232 58 -194 q 293 -244 239 -244 q 488 -182 422 -244 q 526 -103 525 -146 q 460 -31 524 -33 q 399 -80 410 -31 q 393 -113 396 -91 q 362 -194 387 -176 q 305 -209 340 -209 q 190 -117 198 -209 q 189 -95 189 -106 q 245 79 189 -12 q 317 203 304 170 q 346 357 346 274 l 305 357 m 256 521 q 297 457 256 476 q 326 450 311 450 q 388 491 370 450 q 395 521 395 506 q 355 583 395 564 q 326 590 340 590 q 263 551 282 590 q 256 521 256 536 z "},"\"":{"ha":415,"x_min":68,"x_max":347,"o":"m 125 888 q 69 848 80 888 q 68 831 68 840 q 90 719 68 818 q 106 610 103 658 l 142 610 q 172 780 145 654 q 180 833 180 815 q 141 886 180 876 q 125 888 133 888 m 292 888 q 235 831 240 879 q 256 719 235 818 q 273 610 270 658 l 309 610 q 339 780 312 654 q 347 833 347 815 q 308 886 347 876 q 292 888 300 888 z "},"„":{"ha":410,"x_min":47,"x_max":362,"o":"m 362 50 q 308 137 362 123 q 288 140 297 140 q 228 99 244 140 q 222 72 222 85 q 266 12 222 28 q 277 9 273 11 q 308 -14 307 1 q 248 -111 307 -50 l 277 -132 q 362 50 359 -42 m 187 50 q 133 137 187 123 q 113 140 122 140 q 53 99 69 140 q 47 72 47 85 q 91 12 47 28 q 102 9 98 11 q 133 -14 132 1 q 73 -111 132 -50 l 102 -132 q 187 50 184 -42 z "},"“":{"ha":403,"x_min":47,"x_max":362,"o":"m 47 707 q 102 620 47 633 q 122 617 113 617 q 182 658 165 617 q 187 685 187 671 q 144 745 187 728 q 133 747 137 746 q 102 770 103 755 q 161 868 103 807 l 133 888 q 47 707 50 799 m 222 707 q 277 620 222 633 q 297 617 288 617 q 357 658 340 617 q 362 685 362 671 q 319 745 362 728 q 308 747 312 746 q 277 770 278 755 q 336 868 278 807 l 308 888 q 222 707 225 799 z "},"”":{"ha":414,"x_min":47,"x_max":362,"o":"m 362 745 q 308 831 362 818 q 288 834 297 834 q 228 793 244 834 q 222 766 222 780 q 266 707 222 723 q 277 704 273 705 q 308 681 307 696 q 248 583 307 644 l 277 563 q 362 745 359 652 m 187 745 q 133 831 187 818 q 113 834 122 834 q 53 793 69 834 q 47 766 47 780 q 91 707 47 723 q 102 704 98 705 q 133 681 132 696 q 73 583 132 644 l 102 563 q 187 745 184 652 z "},"‘":{"ha":262,"x_min":54,"x_max":194,"o":"m 194 685 q 151 745 194 728 q 140 747 144 746 q 109 770 110 755 q 168 868 110 807 l 140 888 q 54 707 57 799 q 109 620 54 633 q 129 617 119 617 q 189 658 172 617 q 194 685 194 671 z "},"’":{"ha":262,"x_min":68,"x_max":208,"o":"m 208 792 q 153 879 208 865 q 133 882 142 882 q 73 841 90 882 q 68 814 68 827 q 111 754 68 770 q 122 751 118 753 q 153 728 152 743 q 94 631 152 692 l 122 610 q 208 792 205 700 z "},"‚":{"ha":222,"x_min":45,"x_max":182,"o":"m 182 53 q 127 136 182 123 q 109 138 118 138 q 49 98 64 138 q 45 75 45 85 q 94 15 45 31 q 99 14 96 14 q 129 -9 127 4 q 85 -91 127 -41 l 114 -110 q 182 53 182 -31 z "},"'":{"ha":256,"x_min":68,"x_max":189,"o":"m 129 888 q 69 845 77 888 q 68 831 68 838 q 91 723 68 818 q 110 610 107 659 l 146 610 q 179 779 149 656 q 189 833 189 815 q 144 887 189 879 q 129 888 136 888 z "},"r":{"ha":533,"x_min":43,"x_max":526,"o":"m 345 34 l 247 34 l 247 304 q 323 502 247 427 q 373 532 353 530 q 415 498 396 532 q 456 454 437 460 q 472 452 464 452 q 524 491 513 452 q 526 507 526 499 q 464 582 526 568 q 438 585 450 585 q 293 515 357 585 q 245 442 263 483 l 240 576 l 43 576 l 43 543 l 145 543 l 145 115 q 110 41 145 53 q 43 34 90 34 l 43 0 l 378 0 q 358 33 378 30 q 345 34 353 34 z "},"ŕ":{"ha":533,"x_min":43,"x_max":526,"o":"m 345 34 l 247 34 l 247 304 q 323 502 247 427 q 373 532 353 530 q 415 498 396 532 q 456 454 437 460 q 472 452 464 452 q 524 491 513 452 q 526 507 526 499 q 464 582 526 568 q 438 585 450 585 q 293 515 357 585 q 245 442 263 483 l 240 576 l 43 576 l 43 543 l 145 543 l 145 115 q 110 41 145 53 q 43 34 90 34 l 43 0 l 378 0 q 358 33 378 30 q 345 34 353 34 m 392 791 q 410 829 408 810 q 373 883 410 864 q 347 890 359 890 q 308 872 326 888 q 243 776 297 861 q 170 678 203 715 l 191 655 q 339 753 224 681 q 392 791 377 777 z "},"√":{"ha":609,"x_min":-14,"x_max":636,"o":"m 214 591 l -14 494 l 0 457 l 126 511 l 244 88 q 307 -3 266 9 q 345 -7 323 -7 l 382 -7 l 636 977 l 590 987 l 357 84 l 214 591 z "},"ř":{"ha":533,"x_min":43,"x_max":526,"o":"m 345 34 l 247 34 l 247 304 q 323 502 247 427 q 373 532 353 530 q 415 498 396 532 q 456 454 437 460 q 472 452 464 452 q 524 491 513 452 q 526 507 526 499 q 464 582 526 568 q 438 585 450 585 q 293 515 357 585 q 245 442 263 483 l 240 576 l 43 576 l 43 543 l 145 543 l 145 115 q 110 41 145 53 q 43 34 90 34 l 43 0 l 378 0 q 358 33 378 30 q 345 34 353 34 m 271 680 q 354 732 308 680 q 388 773 363 743 q 463 863 433 829 l 445 883 q 270 783 358 827 q 95 884 151 846 l 77 861 q 153 773 109 827 q 237 688 213 701 q 271 680 255 680 z "},"®":{"ha":536,"x_min":34,"x_max":502,"o":"m 502 642 q 412 825 502 758 q 269 871 349 871 q 77 779 145 871 q 34 642 34 719 q 126 456 34 522 q 269 412 189 412 q 458 503 391 412 q 502 642 502 564 m 66 642 q 151 807 66 749 q 269 844 203 844 q 431 761 373 842 q 469 642 469 708 q 385 475 469 533 q 269 439 334 439 q 104 521 163 439 q 66 642 66 574 m 414 510 q 397 529 411 528 l 385 529 l 320 632 q 382 707 381 651 q 327 770 382 754 q 282 777 307 777 l 144 779 l 144 758 l 175 758 l 175 529 l 144 529 l 144 509 l 270 509 l 270 529 l 236 529 l 236 628 l 264 628 l 330 507 l 414 510 m 236 758 l 270 758 q 313 720 305 758 q 315 707 315 713 q 281 652 315 662 q 270 651 275 651 l 236 651 l 236 758 z "},"˚":{"ha":678,"x_min":195,"x_max":479,"o":"m 269 777 q 315 867 269 850 q 336 871 326 871 q 404 802 395 871 q 406 780 406 791 q 362 690 406 711 q 336 685 350 685 q 270 760 277 685 q 269 777 269 769 m 340 902 q 206 831 239 902 q 195 780 195 807 q 264 667 195 700 q 334 654 296 654 q 467 726 431 654 q 479 781 479 751 q 408 890 479 859 q 340 902 377 902 z "},"s":{"ha":543,"x_min":68,"x_max":488,"o":"m 258 23 q 384 80 351 23 q 396 125 396 100 q 313 222 396 182 q 255 250 296 232 q 107 336 144 296 q 68 441 68 381 q 171 572 68 534 q 274 590 218 590 q 429 552 363 590 q 448 597 429 591 q 465 598 456 598 l 465 429 l 430 429 q 292 555 427 553 q 165 495 190 555 q 159 461 159 479 q 243 362 159 403 q 302 336 262 353 q 449 251 412 292 q 488 148 488 208 q 372 1 488 38 q 274 -14 327 -14 q 104 35 176 -12 q 87 -5 104 0 q 68 -7 79 -7 l 68 199 l 106 199 q 258 23 109 24 z "},"ś":{"ha":543,"x_min":68,"x_max":488,"o":"m 258 23 q 384 80 351 23 q 396 125 396 100 q 313 222 396 182 q 255 250 296 232 q 107 336 144 296 q 68 441 68 381 q 171 572 68 534 q 274 590 218 590 q 429 552 363 590 q 448 597 429 591 q 465 598 456 598 l 465 429 l 430 429 q 292 555 427 553 q 165 495 190 555 q 159 461 159 479 q 243 362 159 403 q 302 336 262 353 q 449 251 412 292 q 488 148 488 208 q 372 1 488 38 q 274 -14 327 -14 q 104 35 176 -12 q 87 -5 104 0 q 68 -7 79 -7 l 68 199 l 106 199 q 258 23 109 24 m 393 791 q 411 829 410 810 q 374 883 411 864 q 349 890 361 890 q 309 872 327 888 q 244 776 298 861 q 171 678 205 715 l 193 655 q 340 753 225 681 q 393 791 378 777 z "},"š":{"ha":543,"x_min":68,"x_max":488,"o":"m 258 23 q 384 80 351 23 q 396 125 396 100 q 313 222 396 182 q 255 250 296 232 q 107 336 144 296 q 68 441 68 381 q 171 572 68 534 q 274 590 218 590 q 429 552 363 590 q 448 597 429 591 q 465 598 456 598 l 465 429 l 430 429 q 292 555 427 553 q 165 495 190 555 q 159 461 159 479 q 243 362 159 403 q 302 336 262 353 q 449 251 412 292 q 488 148 488 208 q 372 1 488 38 q 274 -14 327 -14 q 104 35 176 -12 q 87 -5 104 0 q 68 -7 79 -7 l 68 199 l 106 199 q 258 23 109 24 m 273 680 q 355 732 309 680 q 389 773 365 743 q 464 863 434 829 l 446 883 q 271 783 359 827 q 96 884 152 846 l 79 861 q 155 773 110 827 q 239 688 214 701 q 273 680 256 680 z "},"§":{"ha":631,"x_min":75,"x_max":563,"o":"m 167 438 q 239 522 170 498 q 317 484 264 509 q 453 401 426 434 q 471 355 471 380 q 397 269 468 296 q 319 308 372 283 q 184 392 210 359 q 167 438 167 415 m 563 378 q 448 532 563 469 q 365 572 422 547 q 228 654 256 621 q 205 712 205 681 q 258 791 205 765 q 317 804 285 804 q 418 750 399 804 q 425 726 420 742 q 454 675 434 684 q 481 670 467 670 q 525 723 524 673 q 434 821 525 788 q 328 837 385 837 q 145 768 203 837 q 114 678 114 730 q 205 541 115 601 q 75 414 76 511 q 193 256 75 323 q 274 216 220 241 q 408 133 381 165 q 427 83 427 109 q 368 -5 427 18 q 317 -14 345 -14 q 217 45 237 -14 q 210 69 214 53 q 180 119 199 111 q 160 123 171 123 q 107 71 110 119 q 195 -27 107 7 q 304 -46 245 -46 q 487 22 429 -46 q 519 111 519 60 q 430 250 518 191 q 563 378 553 288 z "},";":{"ha":262,"x_min":68,"x_max":208,"o":"m 201 382 q 161 444 201 426 q 134 449 148 449 q 73 410 91 449 q 68 382 68 396 q 107 321 68 339 q 134 316 121 316 q 195 355 178 316 q 201 382 201 369 m 208 73 q 153 160 208 146 q 133 163 142 163 q 73 122 90 163 q 68 95 68 109 q 111 35 68 52 q 122 33 118 34 q 153 9 152 24 q 94 -88 152 -27 l 122 -109 q 208 73 205 -19 z "},"-":{"ha":467,"x_min":58,"x_max":368,"o":"m 58 317 l 368 317 l 368 254 l 58 254 l 58 317 z "},"‐":{"ha":467,"x_min":58,"x_max":368,"o":"m 58 317 l 368 317 l 368 254 l 58 254 l 58 317 z "},"අ":{"ha":758,"x_min":43,"x_max":697,"o":"m 544 304 q 514 308 525 304 l 514 418 q 555 526 514 490 q 557 529 556 528 l 557 528 q 583 472 557 502 q 594 457 590 463 q 614 380 614 423 q 564 307 614 320 q 544 304 553 304 m 476 -285 l 514 -285 l 514 5 q 693 68 627 24 l 693 110 q 514 39 623 58 l 514 273 q 567 264 543 264 q 682 319 648 264 q 697 372 697 343 q 637 477 697 429 q 593 524 598 511 q 590 534 590 529 q 602 557 591 549 l 612 562 l 582 576 q 511 532 541 566 q 476 415 476 490 l 476 34 q 393 30 437 30 q 157 161 195 30 q 151 217 151 189 q 216 349 151 304 q 335 380 263 380 l 460 380 l 460 384 q 353 562 460 524 q 279 574 319 574 q 151 522 183 574 q 141 488 141 506 q 179 441 141 450 q 195 438 187 438 q 250 475 233 439 q 290 518 266 510 q 319 521 302 521 q 408 458 382 521 q 419 410 419 435 l 267 410 q 66 308 121 410 q 43 212 43 264 q 187 23 43 77 q 373 -5 264 -5 q 476 0 433 -5 l 476 -285 z "},"ආ":{"ha":1153,"x_min":43,"x_max":1076,"o":"m 544 304 q 514 308 525 304 l 514 418 q 555 526 514 490 q 557 529 556 528 l 557 528 q 583 472 557 502 q 594 457 590 463 q 614 380 614 423 q 564 307 614 320 q 544 304 553 304 m 476 -285 l 514 -285 l 514 5 q 693 68 627 24 l 693 110 q 514 39 623 58 l 514 273 q 567 264 543 264 q 682 319 648 264 q 697 372 697 343 q 637 477 697 429 q 593 524 598 511 q 590 534 590 529 q 602 557 591 549 l 612 562 l 582 576 q 511 532 541 566 q 476 415 476 490 l 476 34 q 393 30 437 30 q 157 161 195 30 q 151 217 151 189 q 216 349 151 304 q 335 380 263 380 l 460 380 l 460 384 q 353 562 460 524 q 279 574 319 574 q 151 522 183 574 q 141 488 141 506 q 179 441 141 450 q 195 438 187 438 q 250 475 233 439 q 290 518 266 510 q 319 521 302 521 q 408 458 382 521 q 419 410 419 435 l 267 410 q 66 308 121 410 q 43 212 43 264 q 187 23 43 77 q 373 -5 264 -5 q 476 0 433 -5 l 476 -285 m 747 145 q 830 11 747 43 q 894 -1 860 -1 q 1067 172 1038 -1 q 1076 266 1076 216 q 940 529 1076 495 q 894 534 918 534 q 769 468 811 534 q 747 387 747 431 q 749 358 747 368 l 784 358 q 783 377 783 366 q 836 475 783 448 q 875 484 854 484 q 987 266 987 481 q 875 47 986 50 q 787 121 802 47 q 783 155 783 137 q 784 175 783 168 l 749 175 q 747 145 747 164 z "},"ඈ":{"ha":1168,"x_min":43,"x_max":1122,"o":"m 544 304 q 514 308 525 304 l 514 418 q 555 526 514 490 q 557 529 556 528 l 557 528 q 583 472 557 502 q 594 457 590 463 q 614 380 614 423 q 564 307 614 320 q 544 304 553 304 m 476 -285 l 514 -285 l 514 5 q 693 68 627 24 l 693 110 q 514 39 623 58 l 514 273 q 567 264 543 264 q 682 319 648 264 q 697 372 697 343 q 637 477 697 429 q 593 524 598 511 q 590 534 590 529 q 602 557 591 549 l 612 562 l 582 576 q 511 532 541 566 q 476 415 476 490 l 476 34 q 393 30 437 30 q 157 161 195 30 q 151 217 151 189 q 216 349 151 304 q 335 380 263 380 l 460 380 l 460 384 q 353 562 460 524 q 279 574 319 574 q 151 522 183 574 q 141 488 141 506 q 179 441 141 450 q 195 438 187 438 q 250 475 233 439 q 290 518 266 510 q 319 521 302 521 q 408 458 382 521 q 419 410 419 435 l 267 410 q 66 308 121 410 q 43 212 43 264 q 187 23 43 77 q 373 -5 264 -5 q 476 0 433 -5 l 476 -285 m 722 418 l 987 418 l 811 289 l 811 263 l 1027 263 q 842 37 873 159 q 836 -16 836 9 q 926 -178 836 -133 q 1020 -197 967 -197 q 1122 -174 1072 -197 l 1122 -141 q 926 18 928 -138 q 1040 236 926 133 q 1077 266 1059 252 l 1077 296 l 878 296 l 1046 420 l 1046 449 l 722 449 l 722 418 z "},"ඇ":{"ha":1162,"x_min":43,"x_max":1126,"o":"m 724 415 l 1000 415 q 854 159 899 302 q 831 19 831 84 q 913 -174 831 -121 q 994 -195 948 -195 q 1126 -141 1080 -194 l 1120 -117 q 1070 -123 1090 -123 q 937 -28 972 -123 q 922 66 922 12 q 1046 427 924 244 q 1050 449 1048 445 l 724 449 l 724 415 m 544 304 q 514 308 525 304 l 514 418 q 555 526 514 490 q 557 529 556 528 l 557 528 q 583 472 557 502 q 594 457 590 463 q 614 380 614 423 q 564 307 614 320 q 544 304 553 304 m 476 -285 l 514 -285 l 514 5 q 693 68 627 24 l 693 110 q 514 39 623 58 l 514 273 q 567 264 543 264 q 682 319 648 264 q 697 372 697 343 q 637 477 697 429 q 593 524 598 511 q 590 534 590 529 q 602 557 591 549 l 612 562 l 582 576 q 511 532 541 566 q 476 415 476 490 l 476 34 q 393 30 437 30 q 157 161 195 30 q 151 217 151 189 q 216 349 151 304 q 335 380 263 380 l 460 380 l 460 384 q 353 562 460 524 q 279 574 319 574 q 151 522 183 574 q 141 488 141 506 q 179 441 141 450 q 195 438 187 438 q 250 475 233 439 q 290 518 266 510 q 319 521 302 521 q 408 458 382 521 q 419 410 419 435 l 267 410 q 66 308 121 410 q 43 212 43 264 q 187 23 43 77 q 373 -5 264 -5 q 476 0 433 -5 l 476 -285 z "},"ඓ":{"ha":1560,"x_min":43,"x_max":1496,"o":"m 834 218 q 994 20 834 71 q 1141 0 1059 0 q 1446 144 1354 0 q 1496 324 1496 224 q 1439 548 1496 444 q 1427 570 1432 559 q 1263 753 1367 673 q 1204 791 1232 776 q 1149 636 1149 726 q 1214 496 1149 538 q 1282 476 1244 476 q 1398 545 1366 477 q 1454 354 1454 464 q 1317 129 1454 194 q 1143 95 1244 95 q 901 178 955 95 q 883 239 883 205 q 936 330 884 296 q 1081 368 994 368 l 1165 368 l 1165 384 q 1092 543 1165 491 q 993 572 1050 572 q 869 518 902 572 q 859 477 859 499 q 897 429 859 438 q 909 427 903 427 q 958 472 947 430 q 1028 524 971 522 q 1107 471 1077 524 q 1123 408 1123 441 l 1123 400 l 796 400 l 796 358 q 945 368 841 366 l 959 368 q 878 328 911 357 q 834 218 834 288 m 1190 642 q 1217 742 1190 701 q 1373 583 1318 667 q 1291 524 1354 525 q 1190 642 1191 526 m 312 324 q 354 381 312 363 q 385 387 370 387 q 452 349 433 387 q 458 324 458 336 q 416 267 458 285 q 385 262 400 262 q 319 300 338 262 q 312 324 312 311 m 43 281 q 161 54 43 134 q 357 0 244 0 q 623 117 555 0 q 650 222 650 163 q 534 399 650 346 q 403 426 476 426 q 282 370 319 426 q 269 320 269 347 q 328 233 269 262 q 387 220 357 220 q 488 269 457 220 q 502 317 502 292 q 477 380 500 354 q 593 298 566 363 q 602 252 602 275 q 479 113 602 153 q 357 95 423 95 q 153 179 229 95 q 100 315 100 239 q 216 490 100 425 q 399 536 297 536 q 656 431 557 536 q 735 273 720 363 l 773 273 q 631 506 760 419 q 399 572 530 572 q 133 477 237 572 q 43 281 45 396 z "},"ඖ":{"ha":1369,"x_min":39,"x_max":1305,"o":"m 363 480 q 400 537 363 521 q 425 543 411 543 q 481 505 465 543 q 487 480 487 494 q 449 425 487 441 q 425 419 438 419 q 368 457 384 419 q 363 480 363 468 m 39 297 q 109 75 39 163 q 259 0 168 1 q 404 73 365 1 q 522 0 431 7 q 537 0 529 0 q 760 179 705 0 q 781 336 781 250 q 662 662 781 540 q 400 765 557 765 q 87 623 190 765 q 83 617 84 620 l 122 617 q 351 734 206 723 q 395 735 373 735 q 666 604 570 735 q 734 378 734 507 q 663 153 734 235 q 543 95 613 96 q 427 153 452 95 q 420 187 420 170 l 420 221 l 388 221 l 388 189 q 313 99 388 118 q 263 94 290 94 q 111 195 161 94 q 81 336 81 258 q 132 503 81 442 q 193 537 159 536 q 228 492 225 528 l 228 449 q 312 313 228 351 q 392 297 349 297 q 534 366 491 297 q 553 437 553 399 q 487 560 553 525 q 426 575 458 575 q 334 521 359 575 q 324 477 324 499 q 373 395 324 420 q 422 382 395 382 q 511 433 481 382 q 514 438 513 435 q 515 431 515 434 q 446 343 515 368 q 391 335 419 335 q 273 399 302 335 q 263 446 263 420 l 263 491 q 239 560 262 543 q 197 572 220 572 q 69 463 114 572 q 39 297 39 388 m 827 425 q 892 298 827 338 q 963 281 925 281 q 1078 338 1048 281 q 1088 381 1088 358 q 1039 454 1086 427 l 1039 464 q 1112 538 1042 537 q 1210 315 1207 525 q 1116 35 1210 52 q 1103 34 1109 34 q 1004 113 1027 34 q 997 165 997 138 q 1001 208 997 186 l 967 208 q 962 159 962 184 q 1034 16 962 57 q 1108 -3 1066 -3 q 1287 152 1241 -3 q 1305 292 1305 214 q 1223 538 1305 468 q 1127 572 1183 572 q 1002 477 1012 572 q 1002 463 1002 469 q 1004 446 1002 452 q 1031 384 1031 416 q 986 319 1031 332 q 962 315 974 315 q 873 381 895 315 q 867 426 867 403 q 924 567 868 518 l 876 567 q 827 425 827 513 z "},"බ":{"ha":819,"x_min":43,"x_max":762,"o":"m 134 100 q 170 42 134 62 q 198 35 184 35 q 256 72 236 35 q 263 100 263 87 q 227 159 263 138 q 198 165 212 165 q 141 129 160 165 q 134 100 134 114 m 43 248 q 159 479 43 404 q 327 525 231 525 q 518 450 450 525 q 560 340 560 404 q 490 209 560 247 q 461 195 480 203 q 407 155 415 175 q 403 134 403 145 q 465 84 406 85 q 647 209 576 84 q 703 415 703 307 q 582 684 703 595 q 387 743 502 743 q 125 623 202 742 l 84 623 q 320 770 145 747 q 387 774 353 774 q 697 620 598 774 q 762 376 762 519 q 669 71 762 174 q 505 -3 602 -3 q 378 61 415 -3 q 362 125 362 91 q 419 216 362 184 q 441 227 426 220 q 506 278 494 252 q 513 313 513 294 q 401 414 513 388 q 313 423 359 423 q 123 339 186 423 q 84 214 84 288 q 102 121 84 155 q 163 197 109 178 q 198 202 180 202 q 290 151 259 202 q 304 102 304 127 q 245 9 304 37 q 198 -1 222 -1 q 60 126 98 -1 q 43 248 43 182 z "},"භ":{"ha":887,"x_min":8,"x_max":822,"o":"m 8 359 q 165 368 41 365 q 65 205 66 308 q 163 30 65 85 q 288 -1 217 -1 q 476 85 418 -1 q 506 193 506 133 q 453 305 506 277 q 419 313 437 313 q 380 304 395 312 q 570 480 425 479 q 734 376 684 480 q 758 255 758 321 q 663 69 758 129 q 536 34 608 34 q 487 38 511 34 l 487 3 q 541 -1 515 -1 q 762 102 681 -1 q 822 279 822 179 q 736 514 822 431 q 591 572 675 572 q 407 458 483 572 q 338 255 346 369 l 368 241 q 412 281 382 279 q 457 235 450 281 q 458 217 458 225 q 363 104 458 132 q 297 96 332 96 q 133 165 178 96 q 114 232 114 195 q 209 351 114 313 q 304 370 254 370 q 338 368 323 370 q 263 545 336 490 q 178 572 225 572 q 73 515 102 572 q 65 481 65 498 q 109 433 69 435 q 161 472 146 434 q 212 507 178 506 q 286 448 264 507 q 294 401 294 426 l 289 401 l 281 401 l 8 401 l 8 359 z "},"ච":{"ha":791,"x_min":19,"x_max":762,"o":"m 84 218 q 244 20 84 71 q 391 0 309 0 q 708 155 613 0 q 762 363 762 243 q 647 662 762 547 q 401 764 545 764 q 111 623 210 762 l 153 623 q 401 732 244 732 q 637 621 545 732 q 716 397 716 526 q 576 137 716 213 q 395 95 500 95 q 152 178 206 95 q 134 239 134 205 q 187 330 136 296 q 331 368 245 368 l 423 368 l 423 384 q 313 564 423 529 q 250 572 283 572 q 123 521 159 572 q 110 476 110 499 q 146 429 110 437 q 157 427 152 427 q 209 471 193 429 q 247 517 222 507 q 286 524 264 524 q 368 468 342 524 q 380 408 380 441 l 380 400 l 19 400 l 19 358 q 197 368 61 365 l 209 368 q 129 328 163 358 q 84 218 84 286 z "},"ඡ":{"ha":791,"x_min":43,"x_max":753,"o":"m 627 385 q 499 412 575 410 q 522 543 503 481 l 533 543 q 667 391 666 540 q 665 361 667 378 q 627 385 650 374 m 407 411 q 406 429 406 418 q 481 534 407 509 q 463 414 467 473 q 407 411 427 414 m 43 225 q 237 18 43 65 q 395 0 308 0 q 681 96 595 0 q 727 222 727 149 q 697 327 726 282 q 705 393 705 359 q 601 567 705 532 q 537 576 571 576 l 534 576 q 598 684 562 644 q 718 755 646 735 q 751 777 747 764 q 753 789 753 784 q 730 817 753 810 q 718 818 723 818 q 570 723 646 817 q 492 572 526 667 q 372 453 387 553 q 369 423 369 438 q 376 377 369 401 q 463 382 420 380 q 540 217 465 245 q 574 212 556 212 q 677 277 642 213 q 681 247 681 262 q 495 103 681 132 q 387 95 445 95 q 119 174 186 95 q 92 247 92 205 q 171 358 92 320 q 304 384 224 384 q 336 381 319 384 q 342 431 342 404 q 259 562 342 530 q 197 572 231 572 q 83 521 114 572 q 71 477 71 500 q 107 427 71 438 q 121 426 114 426 q 149 434 137 426 q 167 451 161 442 q 182 480 172 460 q 235 518 201 517 q 302 458 292 518 q 304 438 304 448 q 301 412 304 430 q 275 414 293 414 q 71 320 130 414 q 43 225 43 277 m 576 248 q 499 381 503 250 q 655 320 609 374 q 576 248 628 250 z "},"ද":{"ha":604,"x_min":41,"x_max":541,"o":"m 41 224 q 296 420 43 419 l 454 420 q 368 522 435 509 q 345 525 355 525 q 286 484 307 524 q 232 445 266 446 q 182 492 184 449 q 247 564 182 543 q 308 574 275 574 q 480 464 435 574 q 502 389 494 431 l 321 389 q 144 229 145 387 q 227 72 144 130 q 346 35 281 35 q 509 122 434 37 l 538 99 q 463 8 472 20 q 406 -138 406 -71 q 490 -262 406 -228 q 541 -278 513 -271 l 541 -315 q 471 -320 514 -320 q 334 -228 358 -317 q 330 -189 330 -209 q 423 14 331 -111 q 311 -1 372 -1 q 69 111 134 -1 q 41 224 41 161 z "},"ඩ":{"ha":856,"x_min":20,"x_max":792,"o":"m 20 381 l 20 418 l 346 418 q 294 509 342 480 q 262 518 278 518 q 199 480 222 517 q 149 449 180 449 q 102 481 111 449 q 100 495 100 488 q 171 566 100 548 q 218 572 194 572 q 377 463 340 572 q 391 381 389 426 l 292 381 q 126 297 171 381 q 110 231 110 266 q 175 117 110 155 q 262 95 213 95 q 380 144 343 95 q 396 191 396 165 l 396 236 l 431 236 l 431 191 q 502 104 431 130 q 562 95 530 95 q 726 229 681 95 q 745 362 745 289 q 635 640 745 532 q 395 736 536 736 q 141 620 237 735 l 96 620 q 403 770 202 770 q 700 631 589 770 q 792 342 792 513 q 704 58 792 151 q 567 0 647 0 q 420 72 475 0 q 415 79 418 76 q 263 0 350 1 q 87 103 141 0 q 61 214 61 155 q 134 363 61 312 q 165 381 151 374 l 20 381 z "},"ඪ":{"ha":856,"x_min":20,"x_max":792,"o":"m 20 381 l 20 418 l 342 418 q 290 509 338 480 q 258 518 274 518 q 197 480 220 515 q 145 449 178 449 q 98 481 107 449 q 96 495 96 488 q 167 566 96 548 q 214 572 190 572 q 373 463 336 572 q 387 381 385 426 l 292 381 q 126 297 171 381 q 110 231 110 266 q 175 117 110 155 q 262 95 213 95 q 380 144 343 95 q 396 191 396 165 l 396 236 l 431 236 l 431 191 q 502 104 431 130 q 562 95 530 95 q 728 233 688 95 q 743 349 743 285 q 682 562 743 457 q 559 480 635 481 q 434 562 468 480 q 422 632 422 594 q 476 798 422 715 l 476 799 q 690 620 597 751 q 792 330 792 479 q 690 42 792 123 q 564 0 637 0 q 420 72 475 0 q 415 79 416 76 q 263 0 350 1 q 87 103 141 0 q 61 214 61 155 q 134 363 61 312 q 165 381 151 374 l 20 381 m 460 637 q 562 521 473 529 q 658 597 620 522 q 502 746 587 697 q 494 750 496 749 q 460 637 464 704 z "},"ධ":{"ha":845,"x_min":43,"x_max":780,"o":"m 43 258 q 122 52 43 126 q 252 0 176 0 q 401 79 339 1 q 559 0 463 1 q 758 178 705 0 q 780 346 780 254 q 655 663 780 541 q 396 768 547 768 q 85 620 199 766 l 129 620 q 389 736 235 736 q 650 620 549 736 q 735 376 735 518 q 663 145 735 224 q 552 95 617 95 q 427 168 452 95 q 422 208 422 187 l 422 260 l 384 260 l 384 208 q 286 98 384 115 q 250 95 269 95 q 114 179 160 95 q 88 281 88 225 q 165 452 88 387 q 279 494 217 494 l 293 494 l 293 528 q 201 513 245 528 q 71 385 115 483 q 43 258 43 326 z "},"එ":{"ha":788,"x_min":22,"x_max":722,"o":"m 60 218 q 220 20 60 71 q 366 0 285 0 q 671 144 579 0 q 722 324 722 224 q 665 548 722 444 q 652 570 658 559 q 488 753 593 673 q 430 791 457 776 q 374 636 374 726 q 439 496 374 538 q 507 476 469 476 q 624 545 591 477 q 680 354 680 464 q 543 129 680 194 q 369 95 469 95 q 126 178 180 95 q 109 239 109 205 q 161 330 110 296 q 307 368 220 368 l 391 368 l 391 384 q 317 543 391 491 q 218 572 275 572 q 95 518 127 572 q 84 477 84 499 q 122 429 84 438 q 134 427 129 427 q 183 472 172 430 q 254 524 197 522 q 332 471 302 524 q 349 408 349 441 l 349 400 l 22 400 l 22 358 q 171 368 66 366 l 184 368 q 103 328 137 357 q 60 218 60 288 m 415 642 q 442 742 415 701 q 598 583 544 667 q 517 524 579 525 q 415 642 416 526 z "},"ඒ":{"ha":788,"x_min":22,"x_max":789,"o":"m 621 682 l 621 859 q 726 779 708 814 q 735 738 735 760 q 663 674 732 675 q 621 682 637 674 m 60 218 q 220 20 60 71 q 366 0 285 0 q 669 138 574 0 q 722 316 722 218 q 659 534 722 433 q 652 545 655 541 q 621 590 642 562 l 621 651 q 681 642 651 642 q 783 699 758 642 q 789 735 789 716 q 715 852 789 812 q 667 873 700 860 q 583 920 606 901 l 583 636 q 430 766 503 727 q 374 612 374 701 q 439 472 374 514 q 507 452 469 452 q 624 522 590 453 q 680 346 680 439 q 563 141 680 209 q 369 95 484 95 q 126 178 180 95 q 109 239 109 205 q 161 330 110 296 q 307 368 220 368 l 382 368 l 382 384 q 315 537 382 488 q 224 564 277 564 q 98 513 133 564 q 84 468 84 491 q 122 422 84 430 q 133 420 127 420 q 183 463 168 423 q 240 514 201 509 q 256 515 248 515 q 330 458 305 515 q 340 408 340 433 l 340 400 l 22 400 l 22 358 q 171 368 66 366 l 184 368 q 103 328 137 357 q 60 218 60 288 m 415 617 q 442 718 415 677 q 598 559 544 643 q 517 499 579 500 q 415 617 416 502 z "},"ෆ":{"ha":803,"x_min":43,"x_max":741,"o":"m 43 281 q 118 514 43 431 q 247 571 171 571 q 392 476 351 570 q 537 571 434 570 q 712 437 659 571 q 741 281 741 366 q 669 57 741 140 q 543 -1 616 0 q 492 8 517 -1 l 492 42 q 537 34 515 34 q 667 129 624 34 q 694 259 694 186 q 605 463 694 418 q 540 476 575 476 q 416 382 434 476 q 414 347 414 365 l 414 294 l 370 294 l 370 347 q 271 473 370 458 q 244 476 258 476 q 98 340 127 476 q 90 259 90 302 q 163 65 90 127 q 248 34 202 34 q 292 42 270 34 l 292 8 q 241 -1 266 -1 q 73 125 127 -1 q 43 281 43 197 z "},"ග":{"ha":842,"x_min":45,"x_max":776,"o":"m 45 274 q 130 53 45 133 q 275 -3 191 -3 q 441 83 389 -3 q 467 180 467 126 q 400 311 467 281 q 358 319 380 319 q 327 312 340 317 q 441 473 353 430 q 521 491 479 491 q 690 391 637 491 q 719 264 719 335 q 627 76 719 142 q 480 31 564 31 q 448 34 468 31 l 448 1 q 488 -1 477 -1 q 720 110 639 -1 q 776 288 776 187 q 690 514 776 433 q 543 572 628 572 q 326 418 396 572 q 286 255 294 346 l 319 255 q 321 278 319 263 q 354 288 335 288 q 420 231 410 288 q 422 209 422 220 q 336 104 422 130 q 273 95 307 95 q 115 194 164 95 q 91 305 91 244 q 175 498 91 430 q 294 540 228 540 l 309 540 l 309 571 q 301 572 307 571 q 292 572 294 572 q 98 463 170 572 q 45 274 45 381 z "},"ඝ":{"ha":897,"x_min":7,"x_max":831,"o":"m 68 203 q 140 43 68 104 q 263 -1 193 -1 q 368 15 315 -1 q 372 46 372 24 q 363 107 372 58 q 361 141 361 123 q 418 224 361 208 q 439 227 429 227 q 510 183 490 227 q 519 141 519 164 q 510 79 519 127 q 507 46 507 62 q 513 15 507 26 q 616 -1 567 -1 q 799 92 741 -1 q 831 220 831 146 q 765 369 831 312 q 728 393 747 384 q 766 464 761 422 q 674 568 766 549 q 631 572 654 572 q 488 483 530 572 q 468 385 468 439 l 468 373 q 594 385 525 385 q 777 289 742 385 q 785 236 785 263 q 696 115 785 155 q 598 95 651 95 q 555 102 563 95 q 559 142 559 122 q 475 260 559 239 q 439 264 457 264 q 334 205 363 264 q 320 142 320 178 q 324 102 320 122 q 281 95 316 95 q 141 160 187 95 q 118 232 118 193 q 206 357 118 317 q 286 374 247 374 l 415 374 l 415 392 q 332 553 415 510 q 248 572 296 572 q 122 521 157 572 q 109 476 109 499 q 145 429 109 437 q 156 427 151 427 q 206 471 190 430 q 281 524 228 522 q 359 471 332 524 q 372 414 372 444 l 372 408 l 7 408 l 7 366 q 183 374 38 372 q 69 227 80 335 q 68 203 68 214 m 506 411 q 623 521 518 519 q 712 476 697 521 q 715 458 715 467 q 696 406 713 426 q 590 419 659 419 q 506 411 533 419 z "},"හ":{"ha":864,"x_min":43,"x_max":802,"o":"m 43 205 q 141 30 43 85 q 266 -1 195 -1 q 454 85 396 -1 q 484 193 484 133 q 431 305 484 277 q 397 313 415 313 q 359 304 374 312 q 548 480 404 479 q 712 376 662 480 q 736 255 736 321 q 642 69 736 129 q 514 34 586 34 q 467 38 490 34 l 467 3 q 521 -1 495 -1 q 742 102 661 -1 q 802 279 802 179 q 715 514 802 431 q 570 572 654 572 q 385 458 461 572 q 316 255 324 369 l 346 241 q 391 281 361 279 q 435 235 429 281 q 437 217 437 225 q 342 104 437 132 q 275 96 311 96 q 111 164 157 96 q 92 232 92 195 q 201 362 92 335 q 271 370 233 370 q 316 368 285 370 q 241 545 315 490 q 156 572 203 572 q 52 515 80 572 q 43 481 43 498 q 87 433 47 435 q 141 472 126 434 q 191 507 157 506 q 264 448 244 507 q 273 401 273 426 l 256 401 q 73 312 129 401 q 43 205 43 264 z "},"්":{"ha":1,"x_min":-186,"x_max":14,"o":"m -186 461 l -186 902 q -90 850 -168 888 q 5 765 -12 814 q 14 718 14 743 q -43 629 14 655 q -90 620 -65 620 q -149 633 -121 620 l -149 438 l -186 461 m -149 666 q -106 656 -132 656 q -37 705 -49 656 q -35 722 -35 713 q -98 811 -35 768 q -149 845 -103 815 l -149 666 z "},"ඉ":{"ha":785,"x_min":43,"x_max":720,"o":"m 43 293 q 178 524 43 448 q 376 572 263 572 q 667 445 578 572 q 720 262 720 369 q 623 45 720 126 q 509 -8 571 4 q 581 -85 574 -20 q 582 -99 582 -92 q 481 -201 582 -172 q 395 -212 441 -212 q 235 -134 260 -212 q 229 -100 229 -118 q 263 -52 229 -60 q 274 -50 269 -50 q 311 -85 308 -56 q 309 -99 311 -88 q 307 -125 307 -115 q 397 -182 311 -180 q 492 -133 475 -182 q 496 -110 496 -121 q 407 -24 496 -42 q 354 -20 382 -20 q 330 -22 340 -20 l 330 16 q 362 18 347 18 q 395 16 373 18 q 429 15 416 15 q 625 102 557 15 q 670 237 670 159 q 549 433 670 368 q 377 473 475 473 q 141 389 217 473 q 96 270 96 339 q 179 136 96 183 q 296 107 231 107 q 441 159 404 109 q 377 140 416 140 q 290 189 320 140 q 275 237 275 212 q 330 332 275 304 q 378 345 353 345 q 490 273 464 345 q 498 225 498 251 q 368 80 498 109 q 292 72 332 72 q 84 163 152 72 q 43 293 43 218 m 313 241 q 353 182 313 201 q 381 175 368 175 q 442 213 423 175 q 449 241 449 228 q 410 301 449 282 q 381 308 395 308 q 320 270 339 308 q 313 241 313 255 z "},"ඊ":{"ha":699,"x_min":41,"x_max":678,"o":"m 543 620 q 576 572 543 583 q 594 570 586 570 q 642 605 632 570 q 644 620 644 612 q 609 667 644 658 q 594 670 602 670 q 545 636 557 670 q 543 620 543 628 m 507 620 q 555 696 507 673 q 594 705 574 705 q 670 658 647 705 q 678 620 678 639 q 631 544 678 566 q 594 536 613 536 q 517 581 541 536 q 507 620 507 600 m 193 712 q 228 665 193 674 q 243 662 236 662 q 290 697 281 662 q 293 712 293 704 q 258 760 293 750 q 243 762 251 762 q 195 727 205 762 q 193 712 193 720 m 156 712 q 203 788 156 765 q 243 798 222 798 q 319 750 296 798 q 327 712 327 731 q 279 636 327 658 q 243 628 262 628 q 165 673 190 628 q 156 712 156 692 m 41 282 q 190 537 41 441 q 225 559 206 548 q 382 662 317 606 q 408 685 395 673 q 480 774 433 707 q 541 825 515 823 q 572 802 571 823 q 477 682 570 760 q 327 578 400 620 q 347 579 336 579 q 570 484 483 578 q 639 298 639 406 q 537 75 639 163 q 328 0 450 0 q 102 102 186 0 q 41 282 41 179 m 87 313 q 179 136 87 195 q 317 98 239 98 q 517 186 442 98 q 570 336 570 251 q 467 521 570 465 q 350 548 415 548 q 159 471 240 548 q 87 313 88 403 z "},"ජ":{"ha":791,"x_min":43,"x_max":753,"o":"m 583 412 q 521 471 532 412 q 518 495 518 483 q 521 537 518 511 q 549 538 532 538 q 646 488 631 538 q 648 471 648 480 q 605 415 648 427 q 583 412 594 412 m 431 410 q 427 442 427 429 q 481 528 429 506 q 480 496 480 517 q 506 411 481 445 q 472 412 494 412 q 431 410 452 412 m 43 225 q 237 18 43 65 q 395 0 308 0 q 681 96 595 0 q 727 222 727 149 q 627 384 726 336 q 689 468 686 407 q 606 567 689 541 q 555 575 581 575 q 530 574 538 575 q 594 677 551 633 q 707 749 625 709 q 753 789 751 773 q 720 818 745 814 q 604 757 669 817 q 488 568 515 675 q 388 438 389 541 q 397 377 388 407 q 418 378 403 377 q 471 382 452 382 q 671 293 631 382 q 681 247 681 271 q 495 103 681 132 q 387 95 445 95 q 119 174 186 95 q 92 247 92 205 q 171 358 92 320 q 304 384 224 384 q 347 381 316 384 q 353 431 353 404 q 271 560 353 528 q 203 572 240 572 q 85 522 118 572 q 73 479 73 502 q 107 427 73 438 q 121 426 114 426 q 176 467 156 426 q 183 480 179 472 q 243 518 202 517 q 311 460 298 518 q 313 438 313 449 q 311 412 313 430 q 275 414 297 414 q 71 320 130 414 q 43 225 43 277 z "},"ඣ":{"ha":1439,"x_min":28,"x_max":1377,"o":"m 92 126 q 171 281 115 202 q 241 362 210 334 q 395 385 297 385 q 601 300 543 385 q 628 210 628 260 q 576 109 628 140 q 519 95 552 95 q 410 179 423 95 q 407 216 407 197 l 407 217 l 372 217 l 372 216 q 281 96 372 107 q 263 95 273 95 q 159 123 220 95 q 118 134 133 134 q 92 126 104 133 m 400 419 q 290 408 332 419 q 574 534 419 521 q 628 537 601 537 q 812 517 739 537 q 806 515 810 515 q 798 513 800 513 q 670 389 715 484 q 644 307 651 350 q 400 419 564 416 m 28 28 l 62 15 q 115 96 71 95 q 153 65 132 96 q 224 5 186 18 q 270 -1 245 -1 q 392 84 355 0 q 526 -1 434 -1 q 667 91 631 -1 q 674 110 671 100 q 848 0 732 1 q 997 79 935 1 q 1156 0 1058 1 q 1355 178 1302 0 q 1377 346 1377 254 q 1251 663 1377 541 q 991 768 1142 768 q 682 620 795 766 l 724 620 q 986 736 830 736 q 1245 620 1145 736 q 1331 376 1331 518 q 1259 144 1331 221 q 1149 95 1213 95 q 1024 167 1048 95 q 1017 208 1017 186 l 1017 260 l 981 260 l 981 208 q 883 98 981 115 q 845 95 864 95 q 709 179 755 95 q 685 281 685 225 q 762 452 685 387 q 876 494 814 494 l 888 494 l 888 528 q 629 575 804 575 q 294 456 429 575 q 290 452 292 453 q 292 472 292 460 q 229 566 292 541 q 180 574 206 574 q 60 515 100 574 q 38 450 38 486 q 72 396 38 408 q 91 393 81 393 q 141 427 127 395 q 149 464 142 430 q 153 480 151 472 q 209 519 168 517 q 255 467 252 515 q 222 399 254 433 q 144 308 165 338 q 42 92 77 216 q 28 28 33 57 z "},"ඥ":{"ha":1115,"x_min":35,"x_max":1058,"o":"m 178 274 q 263 53 178 133 q 408 -3 324 -3 q 575 87 525 -3 q 586 111 582 99 q 826 -1 652 0 q 939 14 888 -1 q 846 -189 846 -111 q 936 -312 846 -286 q 987 -320 960 -319 q 1058 -315 1034 -320 l 1058 -278 q 932 -193 954 -252 q 922 -138 922 -170 q 1029 71 922 -52 q 1055 99 1055 98 l 1025 122 q 863 35 949 35 q 703 111 762 35 q 661 229 661 163 q 838 389 663 388 l 1019 389 q 892 564 990 534 q 872 570 882 568 q 742 581 823 581 q 418 255 448 578 l 453 255 q 456 278 453 263 q 486 288 468 288 q 552 231 541 288 q 553 209 553 220 q 467 103 553 129 q 406 95 439 95 q 248 195 297 95 q 224 305 224 245 q 309 499 224 431 q 426 540 361 540 l 441 540 l 441 571 q 434 572 439 571 q 427 572 429 572 l 429 572 q 316 574 411 574 q 54 415 113 574 q 35 293 35 361 q 119 45 35 137 q 179 0 148 16 l 179 39 q 75 289 75 130 q 198 518 75 464 q 302 537 244 536 q 183 340 206 475 q 178 274 178 308 m 490 319 q 460 312 472 317 q 640 533 498 495 q 712 543 674 543 l 722 543 q 699 492 699 521 q 749 445 704 448 q 803 484 784 448 q 861 525 825 524 q 966 439 937 525 q 971 420 968 430 l 812 420 q 566 285 602 419 q 490 319 534 319 z "},"ක":{"ha":987,"x_min":28,"x_max":929,"o":"m 28 28 l 62 15 q 115 96 71 95 q 153 65 132 96 q 224 5 186 18 q 270 -1 245 -1 q 392 84 355 0 q 526 -1 434 -1 q 670 96 633 -1 q 682 167 682 130 q 553 385 682 321 q 400 419 487 419 q 290 408 332 419 q 530 487 384 487 q 781 391 686 487 q 859 202 859 312 q 799 56 859 103 q 738 34 770 34 q 670 50 693 34 l 670 15 q 736 -1 693 -1 q 903 125 852 -1 q 929 255 929 187 q 818 500 929 410 q 600 575 728 575 q 290 452 418 574 q 292 472 292 460 q 229 566 292 541 q 180 574 206 574 q 60 515 100 574 q 38 450 38 486 q 72 396 38 408 q 91 393 81 393 q 141 427 127 395 q 149 464 142 430 q 153 480 151 472 q 209 519 168 517 q 255 467 252 515 q 222 399 254 433 q 144 308 165 338 q 42 92 77 216 q 28 28 33 57 m 92 126 q 171 281 115 202 q 241 362 210 334 q 395 385 297 385 q 601 300 543 385 q 628 210 628 260 q 576 109 628 140 q 519 95 552 95 q 410 179 423 95 q 407 216 407 197 l 407 217 l 372 217 l 372 216 q 281 96 372 107 q 263 95 273 95 q 159 123 220 95 q 118 134 133 134 q 92 126 104 133 z "},"ඛ":{"ha":834,"x_min":42,"x_max":773,"o":"m 123 95 q 159 42 123 57 q 180 38 170 38 q 233 73 218 38 q 237 95 237 84 q 202 148 237 133 q 180 152 191 152 q 127 117 142 152 q 123 95 123 106 m 42 243 q 167 487 42 412 q 317 525 232 525 q 506 450 439 525 q 547 342 547 403 q 458 152 545 237 q 471 153 464 153 q 513 125 487 153 q 575 90 544 91 q 685 201 640 90 q 723 399 723 294 q 597 694 723 594 q 389 762 510 762 q 129 623 210 761 l 84 623 q 395 796 180 795 q 681 663 574 796 q 773 378 773 548 q 700 94 773 208 q 551 0 637 1 q 461 45 500 0 q 425 72 437 71 q 320 -26 395 72 q 317 -28 317 -27 l 270 -24 q 316 30 279 -15 q 381 111 355 81 q 486 308 486 236 q 312 423 483 422 q 133 349 199 423 q 84 206 84 290 q 95 134 84 165 q 159 190 109 179 q 179 193 170 193 q 273 130 252 193 q 278 95 278 113 q 235 14 278 43 q 187 -1 212 -1 q 54 136 88 -1 q 42 243 42 186 z "},"ල":{"ha":887,"x_min":41,"x_max":826,"o":"m 41 179 q 213 -137 41 -35 q 479 -203 324 -203 q 746 -104 646 -203 q 826 92 826 -24 l 826 111 l 781 111 q 787 87 787 100 q 666 -107 787 -43 q 505 -146 594 -146 q 218 -20 319 -146 q 142 213 142 75 q 256 456 142 362 q 490 536 354 536 q 758 422 727 536 q 762 389 762 406 q 684 290 762 309 q 644 286 665 286 q 537 331 570 286 q 525 368 525 349 l 525 373 l 686 373 l 686 408 l 351 408 l 351 373 l 487 373 q 568 241 487 277 q 643 227 602 227 q 788 293 742 227 q 810 370 810 328 q 639 553 810 507 q 481 572 568 572 q 130 435 251 572 q 41 179 41 334 z "},"ළ":{"ha":842,"x_min":41,"x_max":819,"o":"m 343 536 q 429 483 400 536 q 441 437 441 460 l 481 437 q 530 518 481 487 q 589 534 559 534 q 707 454 677 534 q 718 393 718 425 l 237 393 q 209 391 227 393 q 301 529 218 502 q 343 536 321 536 m 41 151 q 195 -136 41 -39 q 454 -202 304 -202 q 708 -118 598 -202 q 819 98 818 -30 l 783 98 q 674 -88 780 -16 q 494 -142 594 -142 q 220 -37 324 -142 q 129 189 129 56 q 170 317 130 273 q 297 100 187 172 q 442 57 363 57 q 685 193 624 57 q 697 225 692 209 l 658 225 q 442 138 602 138 q 256 220 326 138 q 208 347 213 274 q 256 359 232 359 l 762 359 q 673 552 762 502 q 590 572 636 572 q 475 518 515 572 q 463 499 467 509 q 345 572 422 566 q 199 488 250 572 q 167 378 171 441 q 52 227 83 339 q 41 151 41 187 z "},"ම":{"ha":836,"x_min":43,"x_max":774,"o":"m 350 467 q 388 407 350 426 q 415 401 401 401 q 475 439 456 401 q 480 467 480 453 q 442 526 480 507 q 415 532 429 532 q 355 494 374 532 q 350 467 350 480 m 43 331 q 106 524 43 450 q 206 572 151 571 q 277 494 277 571 q 274 454 277 477 q 270 400 270 425 q 350 296 270 317 q 397 289 373 289 q 521 361 490 289 q 532 416 532 387 q 513 484 532 457 q 515 454 515 469 q 464 370 515 396 q 415 359 442 359 q 320 420 349 359 q 309 465 309 444 q 368 560 309 530 q 422 572 393 572 q 555 488 518 572 q 571 406 571 450 q 496 273 571 319 q 400 247 453 247 q 252 312 297 247 q 229 391 229 346 q 237 473 229 401 q 239 502 239 488 q 203 537 236 536 q 110 460 142 537 q 90 354 90 414 q 240 126 90 190 q 408 95 313 95 q 666 210 576 95 q 728 407 728 293 q 624 654 728 555 q 401 742 530 742 q 145 621 237 741 l 103 621 q 350 773 190 753 q 400 776 376 776 q 673 655 563 776 q 774 387 774 543 q 632 65 774 168 q 411 0 540 0 q 106 130 203 0 q 43 331 43 214 z "},"ා":{"ha":396,"x_min":14,"x_max":342,"o":"m 14 145 q 15 175 14 165 l 50 175 q 49 155 49 167 q 113 52 49 71 q 141 47 126 47 q 254 266 254 52 q 141 484 252 483 q 61 431 85 484 q 49 377 49 406 q 50 358 49 365 l 15 358 q 14 387 14 369 q 88 517 14 476 q 160 534 122 534 q 334 362 302 534 q 342 266 342 317 q 202 3 342 34 q 160 -1 182 -1 q 27 79 61 -1 q 14 145 14 109 z "},"ෑ":{"ha":445,"x_min":5,"x_max":406,"o":"m 5 418 l 5 449 l 330 449 l 330 420 l 161 296 l 361 296 l 361 266 q 228 106 267 199 q 210 18 210 60 q 406 -141 213 -140 l 406 -174 q 304 -197 354 -197 q 134 -96 176 -197 q 119 -16 119 -60 q 282 243 119 118 q 311 263 297 254 l 95 263 l 95 289 l 271 418 l 5 418 z "},"ැ":{"ha":442,"x_min":4,"x_max":406,"o":"m 4 415 l 4 449 l 330 449 q 326 427 327 442 q 202 66 202 243 q 300 -115 202 -81 q 350 -123 324 -123 q 400 -117 372 -123 l 406 -141 q 274 -195 357 -195 q 125 -79 163 -195 q 111 19 111 -34 q 232 355 111 182 q 279 415 256 389 l 4 415 z "},"ෛ":{"ha":1606,"x_min":43,"x_max":1554,"o":"m 312 324 q 354 267 312 285 q 385 262 370 262 q 452 300 433 262 q 458 324 458 312 q 416 381 458 363 q 385 387 400 387 q 319 349 338 387 q 312 324 312 338 m 43 281 q 172 509 43 423 q 399 572 270 572 q 681 465 571 572 q 773 273 762 384 l 735 273 q 591 483 713 410 q 399 536 505 536 q 170 458 259 536 q 100 315 102 397 q 197 141 100 206 q 357 95 267 95 q 566 163 498 95 q 602 252 602 201 q 518 368 602 332 q 477 380 498 376 q 502 317 502 353 q 435 228 502 254 q 387 220 411 220 q 285 270 319 220 q 269 320 269 293 q 336 414 269 385 q 403 426 368 426 q 612 339 545 426 q 650 222 650 289 q 522 30 650 87 q 357 0 453 0 q 107 103 195 0 q 43 281 43 178 m 1093 324 q 1135 267 1093 285 q 1166 262 1152 262 q 1233 300 1214 262 q 1240 324 1240 312 q 1198 381 1240 363 q 1166 387 1181 387 q 1100 349 1119 387 q 1093 324 1093 336 m 825 281 q 954 509 825 423 q 1180 572 1051 572 q 1462 465 1352 572 q 1554 273 1544 384 l 1516 273 q 1373 483 1495 410 q 1180 536 1286 536 q 951 458 1040 536 q 882 315 883 397 q 978 141 882 206 q 1138 95 1048 95 q 1347 163 1279 95 q 1383 252 1383 201 q 1299 368 1383 332 q 1259 380 1279 376 q 1283 317 1283 353 q 1217 228 1283 254 q 1168 220 1192 220 q 1066 270 1100 220 q 1050 320 1050 293 q 1118 414 1050 385 q 1184 426 1149 426 q 1393 339 1326 426 q 1431 222 1431 289 q 1303 30 1431 87 q 1138 0 1234 0 q 888 103 977 0 q 825 281 825 178 z "},"ෞ":{"ha":1495,"x_min":43,"x_max":1416,"o":"m 312 324 q 354 381 312 363 q 385 387 370 387 q 452 349 433 387 q 458 324 458 336 q 416 267 458 285 q 385 262 400 262 q 319 300 338 262 q 312 324 312 311 m 43 281 q 161 54 43 134 q 357 0 244 0 q 623 117 555 0 q 650 222 650 163 q 534 399 650 346 q 403 426 476 426 q 282 370 319 426 q 269 320 269 347 q 328 233 269 262 q 387 220 357 220 q 488 269 457 220 q 502 317 502 292 q 477 380 500 354 q 593 298 566 363 q 602 252 602 275 q 479 113 602 153 q 357 95 423 95 q 153 179 229 95 q 100 315 100 239 q 216 490 100 425 q 399 536 297 536 q 656 431 557 536 q 735 273 720 363 l 773 273 q 631 506 760 419 q 399 572 530 572 q 133 477 237 572 q 43 281 45 396 m 939 425 q 1004 298 939 338 q 1074 281 1036 281 q 1190 338 1160 281 q 1199 381 1199 358 q 1150 454 1198 427 l 1150 464 q 1223 538 1153 537 q 1321 315 1318 525 q 1227 35 1321 52 q 1214 34 1221 34 q 1115 113 1138 34 q 1108 165 1108 138 q 1112 208 1108 186 l 1078 208 q 1073 159 1073 184 q 1145 16 1073 57 q 1219 -3 1177 -3 q 1398 152 1352 -3 q 1416 292 1416 214 q 1335 538 1416 468 q 1238 572 1294 572 q 1114 477 1123 572 q 1114 463 1114 469 q 1115 446 1114 452 q 1142 384 1142 416 q 1097 319 1142 332 q 1073 315 1085 315 q 985 381 1006 315 q 978 426 978 403 q 1035 567 979 518 l 987 567 q 939 425 939 513 z "},"ෙ":{"ha":838,"x_min":43,"x_max":773,"o":"m 312 324 q 354 267 312 285 q 385 262 370 262 q 452 300 433 262 q 458 324 458 312 q 416 381 458 363 q 385 387 400 387 q 319 349 338 387 q 312 324 312 338 m 43 281 q 172 509 43 423 q 399 572 270 572 q 681 465 571 572 q 773 273 762 384 l 735 273 q 591 483 713 410 q 399 536 505 536 q 170 458 259 536 q 100 315 102 397 q 197 141 100 206 q 357 95 267 95 q 566 163 498 95 q 602 252 602 201 q 518 368 602 332 q 477 380 498 376 q 502 317 502 353 q 435 228 502 254 q 387 220 411 220 q 285 270 319 220 q 269 320 269 293 q 336 414 269 385 q 403 426 368 426 q 612 339 545 426 q 650 222 650 289 q 522 30 650 87 q 357 0 453 0 q 107 103 195 0 q 43 281 43 178 z "},"ේ":{"ha":1289,"x_min":43,"x_max":1221,"o":"m 312 324 q 354 267 312 285 q 385 262 370 262 q 452 300 433 262 q 458 324 458 312 q 416 381 458 363 q 385 387 400 387 q 319 349 338 387 q 312 324 312 338 m 43 281 q 172 509 43 423 q 399 572 270 572 q 681 465 571 572 q 773 273 762 384 l 735 273 q 591 483 713 410 q 399 536 505 536 q 170 458 259 536 q 100 315 102 397 q 197 141 100 206 q 357 95 267 95 q 566 163 498 95 q 602 252 602 201 q 518 368 602 332 q 477 380 498 376 q 502 317 502 353 q 435 228 502 254 q 387 220 411 220 q 285 270 319 220 q 269 320 269 293 q 336 414 269 385 q 403 426 368 426 q 612 339 545 426 q 650 222 650 289 q 522 30 650 87 q 357 0 453 0 q 107 103 195 0 q 43 281 43 178 m 1021 461 l 1021 902 q 1118 850 1039 888 q 1213 765 1195 814 q 1221 718 1221 743 q 1164 629 1221 655 q 1118 620 1142 620 q 1058 633 1086 620 l 1058 438 l 1021 461 m 1058 666 q 1101 656 1076 656 q 1171 705 1158 656 q 1172 722 1172 713 q 1109 811 1172 768 q 1058 845 1104 815 l 1058 666 z "},"ි":{"ha":1,"x_min":-722,"x_max":-107,"o":"m -722 686 q -572 865 -722 815 q -415 888 -502 888 q -153 803 -235 888 q -107 686 -107 754 q -218 549 -107 585 q -297 537 -255 538 l -297 564 q -163 631 -194 570 q -152 674 -152 651 q -342 788 -152 769 q -415 791 -377 791 q -665 716 -618 791 q -677 674 -677 696 q -583 572 -677 597 q -533 564 -559 566 l -533 537 q -707 623 -666 543 q -722 686 -722 652 z "},"ී":{"ha":1,"x_min":-777,"x_max":-110,"o":"m -331 681 q -285 616 -331 637 q -244 606 -266 606 q -165 647 -191 606 q -156 681 -156 665 q -203 746 -156 726 q -244 755 -224 755 q -323 713 -298 755 q -331 681 -331 697 m -777 685 q -628 860 -777 807 q -445 888 -547 888 q -178 818 -274 888 q -110 694 -111 768 q -176 585 -110 620 q -244 568 -208 568 q -358 629 -323 568 q -373 682 -373 655 q -307 783 -372 751 q -444 795 -353 795 q -701 726 -633 795 q -728 661 -728 697 q -650 564 -726 585 l -658 537 q -765 618 -734 544 q -777 685 -777 650 z "},"ෳ":{"ha":583,"x_min":43,"x_max":521,"o":"m 43 425 q 109 298 43 338 q 179 281 141 281 q 294 338 264 281 q 304 381 304 358 q 255 454 302 427 l 255 464 q 328 538 258 537 q 426 315 423 525 q 332 35 426 52 q 319 34 326 34 q 220 113 243 34 q 213 165 213 138 q 217 208 213 186 l 183 208 q 178 159 178 184 q 250 16 178 57 q 324 -3 282 -3 q 503 152 457 -3 q 521 292 521 214 q 439 538 521 468 q 343 572 399 572 q 218 477 228 572 q 218 463 218 469 q 220 446 218 452 q 247 384 247 416 q 202 319 247 332 q 178 315 190 315 q 90 381 111 315 q 83 426 83 403 q 140 567 84 518 l 92 567 q 43 425 43 513 z "},"ෟ":{"ha":583,"x_min":43,"x_max":521,"o":"m 43 425 q 109 298 43 338 q 179 281 141 281 q 294 338 264 281 q 304 381 304 358 q 255 454 302 427 l 255 464 q 328 538 258 537 q 426 315 423 525 q 332 35 426 52 q 319 34 326 34 q 220 113 243 34 q 213 165 213 138 q 217 208 213 186 l 183 208 q 178 159 178 184 q 250 16 178 57 q 324 -3 282 -3 q 503 152 457 -3 q 521 292 521 214 q 439 538 521 468 q 343 572 399 572 q 218 477 228 572 q 218 463 218 469 q 220 446 218 452 q 247 384 247 416 q 202 319 247 332 q 178 315 190 315 q 90 381 111 315 q 83 426 83 403 q 140 567 84 518 l 92 567 q 43 425 43 513 z "},"ො":{"ha":1579,"x_min":43,"x_max":1495,"o":"m 312 324 q 354 267 312 285 q 385 262 370 262 q 452 300 433 262 q 458 324 458 312 q 416 381 458 363 q 385 387 400 387 q 319 349 338 387 q 312 324 312 338 m 43 281 q 172 509 43 423 q 399 572 270 572 q 681 465 571 572 q 773 273 762 384 l 735 273 q 591 483 713 410 q 399 536 505 536 q 170 458 259 536 q 100 315 102 397 q 197 141 100 206 q 357 95 267 95 q 566 163 498 95 q 602 252 602 201 q 518 368 602 332 q 477 380 498 376 q 502 317 502 353 q 435 228 502 254 q 387 220 411 220 q 285 270 319 220 q 269 320 269 293 q 336 414 269 385 q 403 426 368 426 q 612 339 545 426 q 650 222 650 289 q 522 30 650 87 q 357 0 453 0 q 107 103 195 0 q 43 281 43 178 m 1166 145 q 1168 175 1166 165 l 1203 175 q 1202 155 1202 167 q 1265 52 1202 71 q 1294 47 1279 47 q 1407 266 1407 52 q 1294 484 1405 483 q 1214 431 1238 484 q 1202 377 1202 406 q 1203 358 1202 365 l 1168 358 q 1166 387 1166 369 q 1241 517 1166 476 q 1313 534 1275 534 q 1487 362 1455 534 q 1495 266 1495 317 q 1355 3 1495 34 q 1313 -1 1335 -1 q 1180 79 1214 -1 q 1166 145 1166 109 z "},"ෝ":{"ha":1449,"x_min":43,"x_max":1381,"o":"m 312 324 q 354 381 312 363 q 385 387 370 387 q 452 349 433 387 q 458 324 458 336 q 416 267 458 285 q 385 262 400 262 q 319 300 338 262 q 312 324 312 311 m 43 281 q 161 54 43 134 q 357 0 244 0 q 623 117 555 0 q 650 222 650 163 q 534 399 650 346 q 403 426 476 426 q 282 370 319 426 q 269 320 269 347 q 328 233 269 262 q 387 220 357 220 q 488 269 457 220 q 502 317 502 292 q 477 380 500 354 q 593 298 566 363 q 602 252 602 275 q 479 113 602 153 q 357 95 423 95 q 153 179 229 95 q 100 315 100 239 q 216 490 100 425 q 399 536 297 536 q 656 431 557 536 q 735 273 720 363 l 773 273 q 631 506 760 419 q 399 572 530 572 q 133 477 237 572 q 43 281 45 396 m 971 145 q 1054 11 971 43 q 1118 -1 1084 -1 q 1291 172 1261 -1 q 1299 266 1299 216 q 1218 503 1298 439 l 1218 633 q 1278 620 1246 620 q 1370 673 1343 620 q 1381 718 1381 693 q 1302 838 1381 793 q 1256 861 1289 846 q 1181 902 1203 886 l 1181 524 q 1118 534 1152 534 q 993 468 1035 534 q 971 387 971 431 q 972 358 971 368 l 1008 358 q 1006 377 1006 366 q 1059 475 1006 448 q 1099 484 1078 484 q 1211 266 1211 481 q 1099 47 1210 50 q 1010 121 1025 47 q 1006 155 1006 137 q 1008 175 1006 168 l 972 175 q 971 145 971 164 m 1218 666 l 1218 845 q 1310 777 1294 795 q 1332 722 1332 751 q 1287 661 1332 673 q 1261 656 1275 656 q 1218 666 1234 656 z "},"ෘ":{"ha":414,"x_min":43,"x_max":350,"o":"m 43 330 l 43 320 l 77 320 l 77 326 q 146 471 77 446 q 176 475 160 475 q 266 345 254 475 q 269 294 269 320 q 132 271 184 294 q 43 141 45 231 q 103 20 43 61 q 174 -1 136 -1 q 252 19 198 -1 q 269 23 263 23 q 289 4 282 20 l 328 4 q 327 30 327 14 q 335 110 327 45 q 350 269 350 222 q 273 492 350 429 q 190 521 237 521 q 57 419 92 521 q 43 330 43 378 m 84 141 q 163 245 85 221 q 269 258 202 258 l 269 247 q 269 212 269 236 q 267 153 267 175 q 271 53 267 80 q 259 57 266 57 q 235 50 254 57 q 176 37 197 37 q 95 92 119 37 q 84 141 84 115 z "},"ෲ":{"ha":755,"x_min":43,"x_max":693,"o":"m 43 330 l 43 320 l 77 320 l 77 326 q 146 471 77 446 q 176 475 160 475 q 266 345 254 475 q 269 294 269 320 q 132 271 184 294 q 43 141 45 231 q 103 20 43 61 q 174 -1 136 -1 q 252 19 198 -1 q 269 23 263 23 q 289 4 282 20 l 328 4 q 327 30 327 14 q 335 110 327 45 q 350 269 350 222 q 273 492 350 429 q 190 521 237 521 q 57 419 92 521 q 43 330 43 378 m 84 141 q 163 245 85 221 q 269 258 202 258 l 269 247 q 269 212 269 236 q 267 153 267 175 q 271 53 267 80 q 259 57 266 57 q 235 50 254 57 q 176 37 197 37 q 95 92 119 37 q 84 141 84 115 m 387 330 l 387 320 l 420 320 l 420 326 q 490 471 420 446 q 519 475 503 475 q 609 328 601 475 q 610 294 610 311 q 475 271 528 294 q 387 141 388 231 q 446 20 387 61 q 517 -1 479 -1 q 595 19 541 -1 q 612 23 606 23 q 632 4 625 20 l 671 4 q 670 30 670 14 q 678 110 670 45 q 693 269 693 222 q 616 492 693 429 q 533 521 581 521 q 400 419 435 521 q 387 330 387 378 m 427 141 q 506 245 429 221 q 610 258 545 258 l 610 247 q 610 212 610 236 q 609 153 609 175 q 614 53 609 77 q 602 57 608 57 q 578 50 597 57 q 519 37 540 37 q 438 92 463 37 q 427 141 427 115 z "},"ු":{"ha":1,"x_min":-787,"x_max":-75,"o":"m -787 -198 q -719 -83 -787 -118 q -655 -68 -689 -68 q -529 -145 -566 -69 l -568 -161 q -650 -107 -593 -109 q -732 -155 -711 -107 q -741 -190 -741 -171 q -635 -263 -738 -262 l -118 -263 l -118 170 l -75 290 l -75 -311 l -639 -311 q -779 -241 -749 -311 q -787 -198 -787 -221 z "},"ූ":{"ha":1,"x_min":-770,"x_max":-77,"o":"m -770 -197 q -704 -84 -770 -121 q -636 -66 -673 -66 q -507 -134 -549 -68 l -547 -148 q -629 -103 -576 -104 q -715 -149 -692 -103 q -723 -184 -723 -167 q -665 -260 -723 -241 q -625 -266 -646 -266 q -460 -218 -571 -266 q -278 -168 -343 -168 q -134 -221 -194 -168 q -121 -236 -126 -229 l -121 189 l -77 267 l -77 -319 l -107 -319 q -203 -218 -137 -250 q -274 -203 -237 -203 q -435 -259 -332 -203 q -591 -324 -538 -316 q -624 -327 -608 -327 q -751 -266 -713 -327 q -770 -197 -770 -235 z "},"ඹ":{"ha":842,"x_min":39,"x_max":781,"o":"m 39 301 q 117 72 39 160 q 273 0 180 1 q 358 23 321 1 q 349 69 358 45 q 332 142 332 125 q 377 218 332 195 q 411 227 393 227 q 481 178 461 227 q 488 142 488 160 q 472 66 488 111 q 464 23 464 35 q 548 0 502 0 q 739 136 673 0 q 781 336 781 224 q 661 665 781 544 q 397 766 556 766 q 95 633 197 766 q 83 617 88 625 l 123 617 q 346 734 206 722 q 395 736 369 736 q 665 605 570 736 q 734 378 734 509 q 670 161 734 251 q 568 96 623 98 q 524 106 536 96 q 528 144 528 122 q 449 258 528 233 q 411 264 429 264 q 315 216 347 264 q 294 144 294 184 q 298 106 294 122 q 254 96 283 96 q 109 202 156 96 q 81 336 81 263 q 132 503 81 442 q 193 537 159 536 q 228 492 225 528 l 228 449 q 312 313 228 351 q 392 297 349 297 q 534 366 491 297 q 553 437 553 399 q 487 560 553 525 q 426 575 458 575 q 334 521 359 575 q 324 477 324 499 q 373 395 324 420 q 422 382 395 382 q 511 433 481 382 q 514 438 513 435 q 515 431 515 434 q 446 343 515 368 q 391 335 419 335 q 273 399 302 335 q 263 446 263 420 l 263 491 q 239 560 262 543 q 197 572 220 572 q 69 463 114 572 q 39 301 39 389 m 363 480 q 400 537 363 521 q 425 543 411 543 q 481 505 465 543 q 487 480 487 494 q 449 425 487 441 q 425 419 438 419 q 368 457 384 419 q 363 480 363 468 z "},"න":{"ha":1067,"x_min":35,"x_max":1006,"o":"m 35 165 q 84 152 62 152 q 163 209 127 152 q 183 241 170 218 q 274 368 231 324 q 300 433 300 393 q 233 515 296 513 q 179 469 189 515 q 178 457 178 463 q 123 393 172 395 q 75 435 83 393 q 73 452 73 444 q 126 549 73 514 q 203 571 160 571 q 326 492 296 571 q 335 441 335 468 q 332 418 335 427 q 549 556 415 515 q 670 574 610 574 q 926 465 829 574 q 1006 243 1006 373 q 911 30 1006 96 q 812 -1 865 -1 q 718 28 753 -1 l 718 69 q 808 34 757 34 q 913 106 879 34 q 932 198 932 146 q 798 434 932 351 q 594 490 705 490 q 353 391 439 488 q 457 408 403 408 q 623 332 563 408 q 659 224 659 283 q 518 24 659 80 q 366 -1 450 -1 q 35 165 115 0 m 141 136 q 350 96 235 96 q 582 184 528 96 q 601 252 601 216 q 526 359 601 324 q 448 376 490 376 q 247 283 311 376 q 213 227 233 264 q 144 137 175 157 q 141 136 142 137 z "},"ඳ":{"ha":696,"x_min":35,"x_max":652,"o":"m 152 224 q 269 31 152 88 q 422 -1 334 -1 q 534 14 484 -1 q 441 -189 441 -113 q 530 -312 441 -286 q 582 -320 555 -319 q 652 -315 628 -320 l 652 -278 q 526 -193 548 -252 q 517 -138 517 -168 q 624 71 517 -52 q 650 99 650 98 l 620 122 q 457 35 544 35 q 297 111 357 35 q 256 229 256 164 q 414 389 256 381 q 433 389 425 389 l 613 389 q 453 566 583 536 q 403 572 429 571 q 338 576 359 576 q 43 374 85 576 q 35 293 35 336 q 119 45 35 137 q 179 0 148 16 l 179 39 q 75 289 75 130 q 290 536 77 515 q 274 492 274 518 q 324 445 279 448 q 378 484 359 448 q 437 522 400 521 q 544 467 502 522 q 566 420 559 445 l 407 420 q 152 224 153 418 z "},"ඦ":{"ha":925,"x_min":35,"x_max":886,"o":"m 716 412 q 654 471 665 412 q 651 495 651 483 q 655 537 651 517 q 684 538 665 538 q 780 486 766 538 q 781 471 781 477 q 738 415 781 427 q 716 412 727 412 m 566 410 q 562 442 562 429 q 616 528 563 506 q 614 496 614 517 q 640 411 616 445 q 605 412 627 412 q 566 410 586 412 m 178 225 q 372 18 178 65 q 529 0 442 0 q 815 96 730 0 q 861 222 861 149 q 760 384 860 338 q 822 468 821 404 q 741 567 822 541 q 689 575 715 575 q 663 574 671 575 q 728 677 682 631 q 841 750 760 709 q 886 789 884 773 q 854 818 880 815 q 738 757 803 817 q 623 568 650 675 q 522 438 524 541 q 532 377 522 407 q 552 378 537 377 q 604 382 585 382 q 804 296 762 382 q 815 247 815 273 q 629 103 815 132 q 521 95 579 95 q 254 174 320 95 q 227 247 227 205 q 307 359 227 321 q 437 384 359 384 q 480 381 449 384 q 486 431 486 404 q 400 562 486 530 q 362 571 382 568 q 316 574 340 574 q 54 415 113 574 q 35 293 35 361 q 119 45 35 137 q 179 0 148 16 l 179 39 q 75 289 75 130 q 198 518 75 464 q 222 526 210 522 q 206 479 206 507 q 241 427 206 438 q 255 426 248 426 q 283 434 271 426 q 301 451 296 442 q 316 480 307 460 q 376 518 335 517 q 445 463 431 518 q 448 438 448 450 q 445 412 448 430 q 410 414 431 414 q 205 320 264 414 q 178 225 178 277 z "},"ඞ":{"ha":817,"x_min":61,"x_max":755,"o":"m 117 460 q 157 401 117 419 q 189 395 172 395 q 252 434 235 395 q 258 460 258 448 q 218 518 258 500 q 189 525 203 525 q 123 486 142 525 q 117 460 117 473 m 61 620 q 372 770 180 770 q 646 647 534 770 q 755 345 755 524 q 666 49 755 140 q 551 0 616 0 q 419 50 468 0 q 395 79 408 62 q 250 0 331 1 q 95 83 146 0 q 68 186 68 129 q 148 320 68 277 q 237 342 190 342 q 305 336 262 342 q 370 332 349 332 q 454 411 453 335 q 359 530 454 496 q 283 544 321 544 q 241 541 262 544 q 294 457 293 511 q 244 376 294 406 q 187 361 218 361 q 95 408 127 361 q 80 458 80 433 q 184 564 80 537 q 275 575 225 575 q 469 488 414 575 q 492 406 492 450 q 426 307 492 331 q 370 297 400 297 q 307 301 343 297 q 240 305 269 305 q 129 251 160 305 q 118 206 118 231 q 187 106 118 133 q 247 95 214 95 q 362 146 330 95 q 376 191 376 167 l 376 235 l 412 235 l 412 191 q 483 104 412 132 q 545 94 513 94 q 688 222 647 94 q 708 373 708 289 q 595 650 708 543 q 368 739 500 739 q 103 620 210 738 l 61 620 z "},"ණ":{"ha":1275,"x_min":28,"x_max":1213,"o":"m 28 236 l 43 203 q 132 240 104 237 q 209 183 171 240 q 263 100 262 103 q 483 0 345 1 q 734 133 656 0 q 739 142 736 138 q 829 52 766 68 q 854 47 842 47 q 945 90 911 49 q 1013 7 955 28 q 1059 -1 1035 -1 q 1207 146 1180 -1 q 1213 222 1213 182 q 1147 434 1213 372 q 1080 461 1116 461 q 963 378 993 461 q 952 332 955 355 q 854 378 916 377 q 769 336 807 377 q 661 519 751 456 q 903 587 784 564 l 1097 623 q 1143 662 1142 635 q 1097 699 1141 697 q 865 640 1029 699 q 616 544 741 595 q 476 574 548 574 q 266 491 334 574 q 225 374 225 442 q 227 357 225 362 q 28 236 110 290 m 263 381 q 354 514 263 469 q 473 540 407 540 q 571 525 526 540 q 263 377 403 454 l 263 381 m 464 98 q 259 189 345 98 q 235 217 250 198 q 165 274 190 267 q 152 275 157 275 q 186 294 163 282 q 233 321 217 312 q 363 213 263 236 q 425 206 393 206 q 515 224 479 206 q 590 308 575 247 q 593 335 593 323 q 538 435 593 400 q 495 452 517 448 q 620 505 553 479 q 726 313 720 435 q 613 132 726 191 q 464 98 547 98 m 354 335 q 397 243 355 281 q 270 336 296 258 q 269 340 269 339 q 369 392 324 370 q 354 335 354 366 m 392 336 q 435 408 392 385 q 473 418 454 418 q 545 372 524 418 q 553 336 553 354 q 509 263 553 285 q 473 255 491 255 q 401 298 425 255 q 392 336 392 317 m 853 90 q 777 149 803 90 q 764 208 765 176 q 773 270 770 236 q 853 339 804 332 q 941 214 940 336 q 880 94 941 115 q 853 90 868 90 m 972 140 l 972 141 q 982 213 982 171 q 978 267 982 243 q 1058 410 986 408 q 1126 277 1115 410 q 1128 224 1128 251 q 1072 49 1128 69 q 1048 45 1061 45 q 974 121 982 45 q 972 140 972 130 z "},"ඬ":{"ha":967,"x_min":35,"x_max":907,"o":"m 136 381 l 281 381 q 179 245 194 343 q 176 214 176 229 q 251 43 176 104 q 378 0 304 0 q 530 79 468 1 q 654 1 581 9 q 682 0 669 0 q 878 156 819 0 q 907 342 907 237 q 781 669 907 547 q 518 770 674 770 q 212 620 316 769 l 255 620 q 510 736 351 736 q 777 609 677 736 q 860 362 860 505 q 774 127 860 195 q 677 95 732 95 q 562 145 597 95 q 547 191 547 167 l 547 236 l 511 236 l 511 191 q 437 104 511 129 q 377 95 408 95 q 240 170 278 95 q 225 231 225 199 q 297 354 225 312 q 407 381 343 381 l 506 381 q 410 557 505 515 q 388 566 399 563 q 316 574 359 574 q 54 415 113 574 q 35 293 35 361 q 119 45 35 137 q 179 0 148 16 l 179 39 q 75 289 75 130 q 201 519 75 465 q 225 528 213 524 q 216 495 216 510 q 251 450 216 458 q 264 449 259 449 q 315 480 297 452 q 377 518 339 518 q 448 468 420 518 q 461 418 458 444 l 136 418 l 136 381 z "},"ඟ":{"ha":991,"x_min":35,"x_max":932,"o":"m 199 274 q 285 53 199 133 q 430 -3 346 -3 q 595 83 544 -3 q 621 180 621 126 q 555 311 621 281 q 513 319 534 319 q 481 312 495 317 q 595 473 507 430 q 675 491 633 491 q 846 391 793 491 q 875 264 875 335 q 783 76 875 144 q 635 31 719 31 q 602 34 623 31 l 602 1 q 644 -1 632 -1 q 876 110 795 -1 q 932 288 932 187 q 846 514 932 433 q 699 572 784 572 q 481 419 552 572 q 441 255 449 346 l 475 255 q 477 278 475 263 q 509 288 491 288 q 575 231 564 288 q 576 209 576 220 q 491 104 576 130 q 427 95 461 95 q 270 195 317 95 q 247 305 247 245 q 332 499 247 431 q 449 540 384 540 l 464 540 l 464 571 q 456 572 461 571 q 446 572 449 572 q 412 574 434 574 q 373 574 391 574 q 336 574 355 574 l 316 574 q 54 415 113 574 q 35 293 35 361 q 119 45 35 137 q 179 0 148 16 l 179 39 q 75 289 75 130 q 330 541 75 536 q 332 541 331 541 q 206 349 233 483 q 199 274 199 312 z "},"ඤ":{"ha":1356,"x_min":35,"x_max":1299,"o":"m 258 126 q 336 281 281 202 q 407 362 376 334 q 560 385 463 385 q 766 300 708 385 q 793 210 793 260 q 742 109 793 140 q 685 95 718 95 q 575 179 589 95 q 572 216 572 197 l 572 217 l 537 217 l 537 216 q 446 96 537 107 q 429 95 438 95 q 324 123 385 95 q 283 134 298 134 q 258 126 270 133 m 194 28 l 228 15 q 281 96 236 95 q 319 65 297 96 q 389 5 351 18 q 435 -1 411 -1 q 557 84 521 0 q 692 -1 600 -1 q 836 96 798 0 q 1067 -3 905 -3 q 1180 14 1126 -3 q 1088 -189 1088 -111 q 1180 -313 1088 -289 q 1227 -320 1203 -319 q 1299 -315 1274 -320 l 1299 -278 q 1171 -191 1194 -252 q 1162 -138 1162 -167 q 1268 65 1162 -53 q 1297 98 1295 96 l 1267 122 q 1103 34 1190 34 q 943 110 1002 34 q 902 228 902 163 q 1080 389 905 388 l 1260 389 q 1092 567 1229 540 q 913 586 1024 586 q 636 545 757 586 q 456 452 530 510 q 457 472 457 460 q 392 566 457 543 q 351 574 373 572 q 316 575 335 575 q 56 419 115 575 q 35 293 35 363 q 119 45 35 137 q 179 0 148 16 l 179 39 q 75 289 75 130 q 198 518 75 463 q 235 530 216 526 l 237 532 q 203 450 203 495 q 237 396 203 408 q 256 393 247 393 q 307 427 293 395 q 315 464 308 430 q 319 480 316 472 q 374 519 334 517 q 422 467 416 511 q 388 399 420 434 q 311 308 336 345 q 208 92 243 214 q 194 28 198 57 m 566 419 q 456 408 498 419 q 726 533 578 502 q 747 537 738 536 q 905 549 811 549 l 943 549 q 909 492 910 525 q 959 445 914 448 q 1015 484 996 448 q 1072 525 1036 524 q 1184 473 1137 525 q 1213 419 1206 448 l 1053 419 q 812 302 857 418 q 590 418 747 410 q 566 419 578 419 z "},"ඔ":{"ha":842,"x_min":39,"x_max":781,"o":"m 363 480 q 400 537 363 521 q 425 543 411 543 q 481 505 465 543 q 487 480 487 494 q 449 425 487 441 q 425 419 438 419 q 368 457 384 419 q 363 480 363 468 m 39 297 q 109 75 39 163 q 259 0 168 1 q 404 73 365 1 q 522 0 431 7 q 537 0 529 0 q 760 179 705 0 q 781 336 781 250 q 662 662 781 540 q 400 765 557 765 q 87 623 190 765 q 83 617 84 620 l 122 617 q 351 734 206 723 q 395 735 373 735 q 666 604 570 735 q 734 378 734 507 q 663 153 734 235 q 543 95 613 96 q 427 153 452 95 q 420 187 420 170 l 420 221 l 388 221 l 388 189 q 313 99 388 118 q 263 94 290 94 q 111 195 161 94 q 81 336 81 258 q 132 503 81 442 q 193 537 159 536 q 228 492 225 528 l 228 449 q 312 313 228 351 q 392 297 349 297 q 534 366 491 297 q 553 437 553 399 q 487 560 553 525 q 426 575 458 575 q 334 521 359 575 q 324 477 324 499 q 373 395 324 420 q 422 382 395 382 q 511 433 481 382 q 514 438 513 435 q 515 431 515 434 q 446 343 515 368 q 391 335 419 335 q 273 399 302 335 q 263 446 263 420 l 263 491 q 239 560 262 543 q 197 572 220 572 q 69 463 114 572 q 39 297 39 388 z "},"ඕ":{"ha":842,"x_min":39,"x_max":781,"o":"m 184 719 q 270 769 184 749 q 376 781 321 781 q 656 655 566 781 q 703 559 688 612 q 369 688 590 688 q 212 673 290 688 q 216 682 216 677 q 198 701 216 689 q 184 719 186 712 m 56 586 q 373 654 201 654 q 673 536 576 654 q 732 361 732 463 q 731 331 732 340 q 637 127 718 191 q 543 95 594 95 q 427 153 452 95 q 420 187 420 170 l 420 221 l 388 221 l 388 189 q 313 99 388 118 q 263 94 290 94 q 111 195 161 94 q 81 336 81 258 q 132 503 81 442 q 193 537 159 536 q 228 492 225 528 l 228 449 q 312 313 228 351 q 392 297 349 297 q 534 366 491 297 q 553 437 553 399 q 487 560 553 525 q 426 575 458 575 q 334 521 359 575 q 324 477 324 499 q 373 395 324 420 q 422 382 395 382 q 511 433 481 382 q 514 438 513 435 q 515 431 515 434 q 446 343 515 368 q 391 335 419 335 q 273 399 302 335 q 263 446 263 420 l 263 491 q 239 560 262 543 q 197 572 220 572 q 69 463 114 572 q 39 297 39 388 q 109 75 39 163 q 259 0 168 1 q 404 73 365 1 q 522 0 431 7 q 537 0 529 0 q 760 178 704 0 q 781 324 780 244 l 781 330 l 781 336 q 758 472 779 422 q 585 781 738 690 q 368 833 494 833 q 155 770 221 833 q 130 723 132 746 q 155 689 130 707 q 167 673 165 678 q 84 637 167 665 q 56 627 66 631 l 56 586 m 363 480 q 400 537 363 521 q 425 543 411 543 q 481 505 465 543 q 487 480 487 494 q 449 425 487 441 q 425 419 438 419 q 368 457 384 419 q 363 480 363 468 z "},"ප":{"ha":815,"x_min":41,"x_max":761,"o":"m 41 244 q 161 415 41 372 q 274 433 212 433 q 323 430 289 433 q 323 437 323 433 q 324 445 324 442 q 271 521 324 506 q 250 524 260 524 q 184 477 197 522 q 125 434 170 435 q 75 469 84 434 q 73 483 73 476 q 148 566 73 543 q 209 575 176 575 q 359 483 335 575 q 365 442 365 463 q 359 395 365 418 q 343 397 353 396 q 324 398 334 397 q 307 399 315 399 q 293 400 298 400 l 288 400 q 100 316 138 400 q 91 266 91 293 q 240 117 91 160 q 407 95 315 95 q 656 161 568 95 q 715 271 713 208 q 585 397 715 376 q 522 403 555 403 q 429 393 480 403 q 425 434 425 416 q 525 567 425 541 q 582 574 551 574 q 705 513 671 574 q 716 469 716 491 q 681 401 715 427 q 761 247 760 353 q 594 30 761 91 q 407 0 513 0 q 58 152 125 0 q 41 244 41 194 m 468 445 q 469 430 468 434 q 534 434 505 434 q 648 418 605 434 q 669 465 669 439 q 616 530 669 513 q 572 537 595 537 q 476 484 500 537 q 468 445 468 465 z "},"ඵ":{"ha":766,"x_min":43,"x_max":707,"o":"m 43 218 q 203 20 43 71 q 350 0 269 0 q 655 144 562 0 q 707 324 707 222 q 650 548 707 444 q 637 570 643 559 q 473 753 578 673 q 415 791 442 776 q 359 636 359 726 q 425 495 359 537 q 491 476 454 476 q 608 545 575 477 q 663 354 663 464 q 526 129 663 193 q 354 95 453 95 q 111 175 168 95 q 92 239 92 203 q 199 363 92 332 q 293 376 241 376 l 372 376 l 372 393 q 300 547 372 499 q 208 572 260 572 q 81 519 117 572 q 69 476 69 499 q 106 429 69 437 q 117 427 111 427 q 167 471 151 430 q 241 524 189 522 q 317 471 292 524 q 330 418 330 445 l 330 410 l 304 410 q 49 266 81 410 q 43 218 43 243 m 399 642 q 426 742 399 701 q 583 583 529 666 q 500 524 563 525 q 399 642 400 526 z "},"ර":{"ha":699,"x_min":41,"x_max":697,"o":"m 41 282 q 224 549 42 469 q 293 575 244 557 q 544 697 458 636 q 620 773 572 718 q 666 804 647 803 q 697 780 696 803 q 589 663 697 726 q 586 662 587 662 q 391 576 490 606 q 385 575 387 575 q 570 484 491 570 q 639 298 639 406 q 537 75 639 163 q 328 0 450 0 q 102 102 186 0 q 41 282 41 179 m 87 313 q 179 136 87 195 q 317 98 239 98 q 517 186 442 98 q 570 336 570 251 q 461 521 570 468 q 350 544 411 544 q 156 468 237 544 q 87 313 88 401 z "},"ස":{"ha":897,"x_min":7,"x_max":831,"o":"m 68 203 q 141 43 68 104 q 269 -1 195 -1 q 441 109 395 0 q 609 0 484 1 q 804 103 749 0 q 831 220 831 153 q 765 369 831 312 q 728 393 747 384 q 766 464 761 422 q 674 568 766 549 q 631 572 654 572 q 488 483 530 572 q 468 385 468 439 l 468 373 q 595 385 533 385 q 783 241 781 382 q 705 114 783 152 q 624 95 669 95 q 476 152 515 95 q 461 201 461 175 l 461 241 l 425 241 l 425 201 q 353 109 425 137 q 281 95 319 95 q 141 160 187 95 q 118 232 118 194 q 206 357 118 317 q 286 374 247 374 l 415 374 l 415 392 q 332 553 415 510 q 248 572 296 572 q 122 521 157 572 q 109 476 109 499 q 145 429 109 437 q 156 427 151 427 q 206 471 190 430 q 283 524 228 522 q 361 469 334 524 q 374 412 374 442 l 374 408 l 7 408 l 7 366 q 183 374 38 372 q 69 227 80 335 q 68 203 68 214 m 506 411 q 623 521 518 519 q 712 476 697 521 q 715 458 715 467 q 696 406 713 426 q 590 419 654 419 q 506 411 537 419 z "},"ශ":{"ha":836,"x_min":45,"x_max":770,"o":"m 45 273 q 133 43 45 118 q 262 -1 187 -1 q 430 88 378 -1 q 454 183 454 132 q 373 317 454 300 q 347 320 359 320 q 317 315 330 320 q 420 468 335 422 q 507 490 461 490 q 669 384 610 490 q 707 233 707 315 q 642 244 677 244 q 503 170 544 244 q 486 99 486 137 q 528 8 486 37 q 566 -4 545 -4 q 628 20 594 -4 q 656 31 644 31 q 671 19 670 28 q 665 1 670 11 l 701 1 q 765 189 746 58 q 770 259 770 227 q 688 503 770 412 q 529 572 624 572 q 282 305 328 572 q 275 255 278 279 l 309 255 q 311 263 309 258 q 313 279 312 275 q 343 289 327 289 q 408 225 400 289 q 410 208 410 217 q 334 106 410 136 q 267 94 301 94 q 110 198 156 94 q 88 305 88 247 q 189 506 88 444 q 315 540 244 540 l 332 540 l 332 571 q 323 571 331 571 q 311 572 313 572 q 88 449 160 572 q 45 273 45 373 m 528 104 q 589 199 528 174 q 639 209 612 209 q 707 195 684 209 l 707 161 q 688 56 700 88 q 662 71 680 69 q 612 49 651 71 q 574 35 589 35 q 528 104 532 43 z "},"ෂ":{"ha":791,"x_min":41,"x_max":761,"o":"m 41 244 q 271 11 41 54 q 407 0 334 0 q 708 102 614 0 q 761 247 761 161 q 681 401 760 354 q 716 469 716 429 q 659 556 716 526 q 582 574 625 574 q 431 483 460 574 q 425 434 425 460 q 429 393 425 415 q 522 403 481 403 q 618 389 578 403 q 515 346 581 359 q 381 336 468 336 q 228 262 229 335 q 362 180 228 189 q 392 179 377 179 q 572 260 571 180 q 529 317 571 297 q 655 374 604 332 q 715 271 713 339 q 571 119 715 165 q 407 95 496 95 q 138 167 224 95 q 91 266 92 209 q 218 393 91 369 q 288 400 251 400 q 359 395 311 400 q 365 442 365 418 q 259 570 365 548 q 209 575 236 575 q 85 524 118 575 q 73 483 73 505 q 113 435 73 444 q 125 434 119 434 q 184 477 171 435 q 250 524 199 522 q 320 473 305 524 q 324 445 324 460 q 323 437 324 442 q 323 430 323 433 q 274 433 286 433 q 60 330 111 433 q 41 244 41 292 m 468 445 q 533 532 468 511 q 572 537 552 537 q 665 488 644 537 q 669 465 669 476 q 648 418 667 438 q 534 434 604 434 q 469 430 503 434 q 468 445 468 437 m 267 262 q 395 308 270 308 q 533 260 532 307 q 414 213 533 217 q 396 213 404 213 q 267 262 269 214 z "},"ත":{"ha":932,"x_min":28,"x_max":879,"o":"m 28 33 q 170 355 49 190 q 210 406 190 382 q 237 463 236 437 q 199 514 236 513 q 157 472 161 511 q 100 391 152 392 q 50 434 61 391 q 49 453 49 444 q 106 556 49 519 q 168 574 136 574 q 266 511 243 574 q 273 472 273 492 q 271 460 273 464 q 560 576 377 576 q 810 461 719 576 q 879 245 879 372 q 799 38 879 106 q 690 -1 753 -1 q 602 19 640 -1 l 602 58 q 677 35 640 35 q 796 127 766 35 q 807 199 807 161 q 707 419 807 330 q 486 502 616 502 q 266 406 345 500 q 372 423 308 423 q 582 321 525 423 q 608 214 608 275 q 514 37 608 96 q 373 -3 454 -3 q 187 60 252 -3 q 142 99 152 95 q 118 104 130 104 q 58 12 77 102 l 28 33 m 94 134 q 137 145 109 145 q 217 121 155 145 q 336 98 279 98 q 543 194 503 98 q 552 250 552 220 q 460 376 552 339 q 374 392 419 392 q 208 345 270 391 q 94 134 134 254 z "},"ථ":{"ha":812,"x_min":43,"x_max":750,"o":"m 43 311 q 144 507 43 429 q 324 570 224 570 l 324 537 q 137 454 208 537 q 88 320 88 395 q 255 115 88 165 q 404 95 321 95 q 643 197 557 95 q 704 372 704 270 q 652 556 704 480 q 537 486 617 487 q 419 568 454 486 q 404 647 404 605 q 460 802 406 738 q 644 637 557 749 q 682 581 666 608 q 750 353 746 471 q 750 334 750 343 q 627 75 750 171 q 391 -1 528 -1 q 125 103 224 -1 q 43 311 43 189 m 444 651 q 545 534 446 536 q 627 590 608 534 q 628 594 628 593 q 472 753 572 680 q 444 651 444 709 z "},"ට":{"ha":798,"x_min":42,"x_max":738,"o":"m 42 275 q 152 476 42 407 q 308 518 221 518 q 425 496 370 518 l 425 458 q 311 483 374 483 q 129 408 193 483 q 87 289 87 358 q 216 122 87 174 q 366 95 285 95 q 640 213 553 95 q 693 392 693 288 q 591 637 693 536 q 365 732 495 732 q 119 623 205 731 l 76 623 q 362 764 174 762 q 648 627 541 764 q 738 359 738 513 q 618 84 738 187 q 377 -1 519 -1 q 96 113 187 -1 q 42 275 42 182 z "},"ඨ":{"ha":812,"x_min":43,"x_max":780,"o":"m 43 258 q 122 52 43 126 q 252 0 176 0 q 401 79 339 1 q 559 0 463 1 q 757 159 703 0 q 780 308 780 228 q 697 581 779 439 q 533 764 637 684 q 475 802 502 787 q 419 647 419 736 q 483 506 419 548 q 551 486 514 486 q 667 556 633 487 q 732 372 719 480 q 735 327 735 349 q 659 132 735 194 q 552 95 614 95 q 427 168 452 95 q 422 208 422 187 l 422 260 l 384 260 l 384 208 q 286 98 384 115 q 250 95 269 95 q 114 178 161 95 q 88 281 88 225 q 165 452 88 387 q 279 494 217 494 l 293 494 l 293 528 q 201 513 245 528 q 71 385 115 483 q 43 258 43 326 m 458 651 q 486 753 458 712 q 643 594 589 677 q 560 534 623 536 q 458 651 460 537 z "},"උ":{"ha":861,"x_min":42,"x_max":799,"o":"m 42 132 q 179 -133 42 -33 q 434 -213 290 -213 q 709 -111 602 -213 q 799 91 799 -26 l 761 91 q 658 -102 761 -24 q 453 -170 568 -170 q 224 -69 315 -170 q 145 145 145 20 q 255 331 145 275 q 396 359 315 359 l 713 359 l 713 366 q 620 541 713 484 q 498 572 566 572 q 358 507 380 572 q 354 483 354 496 q 387 437 354 449 q 404 434 396 434 q 460 469 437 434 q 540 517 491 515 q 651 454 610 517 q 671 392 669 425 l 350 392 q 94 283 179 392 q 42 132 42 217 z "},"ඌ":{"ha":1312,"x_min":42,"x_max":1249,"o":"m 42 132 q 179 -133 42 -33 q 434 -213 290 -213 q 709 -111 602 -213 q 799 91 799 -26 l 761 91 q 658 -102 761 -24 q 453 -170 568 -170 q 224 -69 315 -170 q 145 145 145 20 q 255 331 145 275 q 396 359 315 359 l 713 359 l 713 366 q 620 541 713 484 q 498 572 566 572 q 358 507 380 572 q 354 483 354 496 q 387 437 354 449 q 404 434 396 434 q 460 469 437 434 q 540 517 491 515 q 651 454 610 517 q 671 392 669 425 l 350 392 q 94 283 179 392 q 42 132 42 217 m 772 425 q 837 298 772 338 q 907 281 869 281 q 1023 338 993 281 q 1032 381 1032 358 q 983 454 1031 427 l 983 464 q 1057 538 986 537 q 1154 315 1152 525 q 1061 35 1154 52 q 1047 34 1054 34 q 948 113 971 34 q 941 165 941 138 q 945 208 941 186 l 911 208 q 906 159 906 184 q 978 16 906 57 q 1053 -3 1010 -3 q 1232 152 1185 -3 q 1249 292 1249 214 q 1168 538 1249 468 q 1072 572 1127 572 q 947 477 956 572 q 947 463 947 469 q 948 446 947 452 q 975 384 975 416 q 930 319 975 332 q 906 315 918 315 q 818 381 840 315 q 811 426 811 403 q 868 567 812 518 l 821 567 q 772 425 772 513 z "},"ව":{"ha":791,"x_min":43,"x_max":726,"o":"m 43 218 q 203 22 43 73 q 354 0 270 0 q 671 155 576 0 q 726 363 726 243 q 610 663 726 548 q 366 764 510 764 q 76 623 175 762 l 118 623 q 366 732 209 732 q 602 621 510 732 q 681 397 681 526 q 541 137 681 214 q 358 95 464 95 q 114 171 175 95 q 90 239 90 201 q 180 357 90 323 q 267 370 220 370 l 387 370 l 387 384 q 277 564 387 529 q 213 572 247 572 q 87 519 122 572 q 75 476 75 499 q 111 429 75 437 q 122 427 117 427 q 172 471 156 430 q 216 518 187 509 q 251 524 232 524 q 332 468 307 524 q 345 408 345 441 l 345 403 l 263 403 q 66 311 121 403 q 43 218 43 269 z "},"ය":{"ha":842,"x_min":39,"x_max":784,"o":"m 39 245 q 142 469 39 395 q 296 515 208 515 q 332 513 309 515 l 332 476 q 290 480 309 480 q 121 397 180 480 q 84 281 84 346 q 165 118 84 168 q 255 95 206 95 q 373 144 334 95 q 391 195 391 167 l 391 235 l 426 235 l 426 197 q 503 107 426 134 q 576 95 538 95 q 727 191 696 95 q 735 247 735 217 q 540 397 732 396 q 426 382 480 397 q 425 411 425 393 q 545 570 425 545 q 597 574 570 574 q 735 505 711 574 q 739 473 739 490 q 699 404 739 425 q 690 401 693 403 q 784 239 776 351 q 784 221 784 229 q 697 37 784 99 q 578 -1 646 -1 q 407 94 449 0 q 247 -1 361 0 q 66 113 121 -1 q 39 245 39 172 m 464 423 q 543 430 492 430 q 658 416 617 430 q 688 464 686 431 q 629 522 688 510 q 597 526 613 526 q 464 423 471 524 z "},"෴":{"ha":2307,"x_min":68,"x_max":2218,"o":"m 1717 61 l 1751 180 l 1554 58 l 1594 239 l 1386 102 l 1411 321 l 1202 125 l 1183 358 l 1004 161 l 964 354 l 789 156 l 753 304 l 602 106 l 563 220 l 480 75 q 430 119 453 118 q 324 69 392 119 q 202 1 247 11 q 167 -3 183 -3 q 77 45 103 -3 q 68 84 68 62 q 114 156 68 141 q 136 159 125 159 q 194 118 178 159 q 198 94 198 106 q 172 37 197 57 q 197 28 179 28 q 312 94 231 28 q 430 165 395 160 q 439 167 435 167 q 488 141 475 165 l 593 323 l 637 194 l 803 415 l 842 255 l 1023 463 l 1062 264 l 1257 487 l 1275 236 l 1503 446 l 1472 197 l 1694 339 l 1649 151 l 1841 273 l 1801 156 q 1845 167 1822 167 q 1965 100 1881 167 q 2079 30 2048 35 q 2089 28 2085 28 q 2113 37 2108 28 q 2087 94 2087 57 q 2124 153 2087 136 q 2150 159 2138 159 q 2212 114 2197 159 q 2218 84 2218 99 q 2162 5 2218 27 q 2119 -3 2140 -3 q 1975 58 2058 -3 q 1877 117 1907 109 q 1854 119 1865 119 q 1725 68 1786 119 q 1717 61 1720 64 z "},"ඏ":{"ha":1085,"x_min":41,"x_max":1024,"o":"m 848 71 q 880 103 854 98 q 914 71 909 96 q 888 38 914 45 q 880 37 884 37 q 848 71 853 43 m 941 103 q 882 140 921 138 q 868 138 872 140 q 895 247 895 186 q 815 401 894 354 q 852 469 852 430 q 829 529 850 502 q 811 578 811 555 q 840 598 812 598 q 956 487 916 598 q 985 317 985 412 q 949 118 985 195 q 941 103 945 110 m 770 590 q 777 563 770 578 q 715 574 749 574 q 566 477 590 574 q 560 434 560 457 q 563 393 560 408 q 655 403 616 403 q 841 316 807 403 q 849 271 849 296 q 708 121 849 168 q 540 95 631 95 q 271 168 355 95 q 225 266 227 209 q 353 393 225 369 q 422 400 385 400 q 492 395 444 400 q 498 442 498 418 q 387 571 498 552 q 345 575 366 575 q 289 568 316 575 q 294 590 294 576 q 231 637 286 635 q 77 517 130 637 q 41 317 41 433 q 91 76 41 172 q 183 1 129 3 q 247 42 229 1 q 252 71 252 57 l 252 76 q 540 0 346 0 q 814 77 716 1 l 814 71 q 854 7 814 24 q 882 1 868 1 q 1002 152 962 1 q 1024 317 1024 232 q 941 589 1024 500 q 834 637 894 637 q 770 590 773 633 m 151 71 q 184 103 157 98 q 217 71 212 96 q 184 37 210 42 q 152 62 159 37 q 151 71 151 66 m 176 244 q 201 137 176 182 q 183 140 189 140 q 123 103 142 138 q 81 302 85 165 q 81 317 81 311 q 145 555 81 475 q 225 598 180 597 q 255 578 254 595 q 229 536 254 563 l 231 537 q 208 483 208 513 q 245 435 208 444 q 258 434 252 434 q 317 477 304 435 q 382 524 332 522 q 453 476 437 524 q 458 445 458 461 q 458 437 458 442 q 457 430 457 433 q 408 433 420 433 q 194 328 245 433 q 176 244 176 290 m 602 445 q 667 532 602 511 q 707 537 686 537 q 799 490 779 537 q 804 465 804 477 q 781 418 803 441 q 667 434 736 434 q 602 430 636 434 q 602 437 601 430 l 602 445 z "},"ඐ":{"ha":1592,"x_min":41,"x_max":1531,"o":"m 848 71 q 880 103 854 98 q 914 71 909 96 q 888 38 914 45 q 880 37 884 37 q 848 71 853 43 m 941 103 q 882 140 921 138 q 868 138 872 140 q 895 247 895 186 q 815 401 894 354 q 852 469 852 430 q 829 529 850 502 q 811 578 811 555 q 840 598 812 598 q 956 487 916 598 q 985 317 985 412 q 949 118 985 195 q 941 103 945 110 m 770 590 q 777 563 770 578 q 715 574 749 574 q 566 477 590 574 q 560 434 560 457 q 563 393 560 408 q 655 403 616 403 q 841 316 807 403 q 849 271 849 296 q 708 121 849 168 q 540 95 631 95 q 271 168 355 95 q 225 266 227 209 q 353 393 225 369 q 422 400 385 400 q 492 395 444 400 q 498 442 498 418 q 387 571 498 552 q 345 575 366 575 q 289 568 316 575 q 294 590 294 576 q 231 637 286 635 q 77 517 130 637 q 41 317 41 433 q 91 76 41 172 q 183 1 129 3 q 247 42 229 1 q 252 71 252 57 l 252 76 q 540 0 346 0 q 814 77 716 1 l 814 71 q 854 7 814 24 q 882 1 868 1 q 1002 152 962 1 q 1024 317 1024 232 q 941 589 1024 500 q 834 637 894 637 q 770 590 773 633 m 151 71 q 184 103 157 98 q 217 71 212 96 q 184 37 210 42 q 152 62 159 37 q 151 71 151 66 m 176 244 q 201 137 176 182 q 183 140 189 140 q 123 103 142 138 q 81 302 85 165 q 81 317 81 311 q 145 555 81 475 q 225 598 180 597 q 255 578 254 595 q 229 536 254 563 l 231 537 q 208 483 208 513 q 245 435 208 444 q 258 434 252 434 q 317 477 304 435 q 382 524 332 522 q 453 476 437 524 q 458 445 458 461 q 458 437 458 442 q 457 430 457 433 q 408 433 420 433 q 194 328 245 433 q 176 244 176 290 m 602 445 q 667 532 602 511 q 707 537 686 537 q 799 490 779 537 q 804 465 804 477 q 781 418 803 441 q 667 434 736 434 q 602 430 636 434 q 602 437 601 430 l 602 445 m 1054 425 q 1119 298 1054 338 q 1190 281 1152 281 q 1305 338 1275 281 q 1314 381 1314 358 q 1265 454 1313 427 l 1265 464 q 1339 538 1268 537 q 1436 315 1434 525 q 1343 35 1436 52 q 1329 34 1336 34 q 1230 113 1253 34 q 1223 165 1223 138 q 1227 208 1223 186 l 1194 208 q 1188 159 1188 184 q 1260 16 1188 57 q 1335 -3 1293 -3 q 1514 152 1468 -3 q 1531 292 1531 214 q 1450 538 1531 468 q 1354 572 1409 572 q 1229 477 1238 572 q 1229 463 1229 469 q 1230 446 1229 452 q 1257 384 1257 416 q 1213 319 1257 332 q 1188 315 1200 315 q 1100 381 1122 315 q 1093 426 1093 403 q 1150 567 1095 518 l 1103 567 q 1054 425 1054 513 z "},"ඍ":{"ha":1184,"x_min":41,"x_max":1123,"o":"m 817 330 l 817 320 l 850 320 l 850 326 q 920 471 850 446 q 949 475 933 475 q 1039 345 1027 475 q 1042 294 1042 320 q 905 271 958 294 q 817 141 818 231 q 876 20 817 61 q 947 -1 909 -1 q 1025 19 971 -1 q 1042 23 1036 23 q 1062 4 1055 20 l 1101 4 q 1100 30 1100 14 q 1108 110 1100 45 q 1123 269 1123 222 q 1046 492 1123 429 q 963 521 1010 521 q 830 419 865 521 q 817 330 817 378 m 857 141 q 936 245 859 221 q 1042 258 975 258 l 1042 247 q 1042 212 1042 236 q 1040 153 1040 175 q 1044 53 1040 80 q 1032 57 1039 57 q 1008 50 1027 57 q 949 37 970 37 q 868 92 892 37 q 857 141 857 115 m 41 203 q 114 43 41 104 q 243 -1 170 -1 q 415 109 369 0 q 583 0 458 1 q 779 103 723 0 q 806 220 806 153 q 739 369 806 312 q 703 393 722 384 q 741 464 735 422 q 648 568 741 548 q 604 572 627 572 q 461 483 503 572 q 441 385 441 439 l 441 373 q 572 385 506 385 q 741 304 697 385 q 757 232 757 271 q 684 115 757 155 q 597 95 644 95 q 449 152 488 95 q 434 201 434 175 l 434 241 l 399 241 l 399 201 q 327 109 399 137 q 255 95 293 95 q 115 160 161 95 q 91 232 91 193 q 190 369 91 330 q 281 385 233 385 q 388 373 327 385 l 388 392 q 305 553 388 510 q 221 572 269 572 q 95 519 130 572 q 83 476 83 499 q 119 429 83 437 q 130 427 125 427 q 180 471 164 430 q 237 522 197 515 q 256 524 247 524 q 334 472 307 524 q 349 415 349 445 l 349 411 q 277 419 321 419 q 87 338 155 419 q 41 203 41 282 m 480 411 q 595 521 492 519 q 686 477 669 521 q 689 458 689 468 q 669 406 688 427 q 563 419 627 419 q 480 411 510 419 z "},"ඎ":{"ha":1510,"x_min":41,"x_max":1450,"o":"m 817 330 l 817 320 l 850 320 l 850 326 q 920 471 850 446 q 949 475 933 475 q 1039 345 1027 475 q 1042 294 1042 320 q 905 271 958 294 q 817 141 818 231 q 876 20 817 61 q 947 -1 909 -1 q 1025 19 971 -1 q 1042 23 1036 23 q 1062 4 1055 20 l 1101 4 q 1100 30 1100 14 q 1108 110 1100 45 q 1123 269 1123 222 q 1046 492 1123 429 q 963 521 1010 521 q 830 419 865 521 q 817 330 817 378 m 857 141 q 936 245 859 221 q 1042 258 975 258 l 1042 247 q 1042 212 1042 236 q 1040 153 1040 175 q 1044 53 1040 80 q 1032 57 1039 57 q 1008 50 1027 57 q 949 37 970 37 q 868 92 892 37 q 857 141 857 115 m 1143 330 l 1143 320 l 1177 320 l 1177 326 q 1246 471 1177 446 q 1276 475 1260 475 q 1366 345 1354 475 q 1369 294 1369 320 q 1232 271 1284 294 q 1143 141 1145 231 q 1203 20 1143 61 q 1274 -1 1236 -1 q 1352 19 1298 -1 q 1369 23 1363 23 q 1389 4 1382 20 l 1428 4 q 1427 30 1427 14 q 1435 110 1427 45 q 1450 269 1450 222 q 1373 492 1450 429 q 1290 521 1337 521 q 1157 419 1192 521 q 1143 330 1143 378 m 1184 141 q 1263 245 1185 221 q 1369 258 1302 258 l 1369 247 q 1369 212 1369 236 q 1367 153 1367 175 q 1371 53 1367 80 q 1359 57 1364 57 q 1335 50 1354 57 q 1276 37 1297 37 q 1195 92 1219 37 q 1184 141 1184 115 m 41 203 q 114 43 41 104 q 243 -1 170 -1 q 415 109 369 0 q 583 0 458 1 q 779 103 723 0 q 806 220 806 153 q 739 369 806 312 q 703 393 722 384 q 741 464 735 422 q 648 568 741 548 q 604 572 627 572 q 461 483 503 572 q 441 385 441 439 l 441 373 q 572 385 506 385 q 741 304 697 385 q 757 232 757 271 q 684 115 757 155 q 597 95 644 95 q 449 152 488 95 q 434 201 434 175 l 434 241 l 399 241 l 399 201 q 327 109 399 137 q 255 95 293 95 q 115 160 161 95 q 91 232 91 193 q 190 369 91 330 q 281 385 233 385 q 388 373 327 385 l 388 392 q 305 553 388 510 q 221 572 269 572 q 95 519 130 572 q 83 476 83 499 q 119 429 83 437 q 130 427 125 427 q 180 471 164 430 q 237 522 197 515 q 256 524 247 524 q 334 472 307 524 q 349 415 349 445 l 349 411 q 277 419 321 419 q 87 338 155 419 q 41 203 41 282 m 480 411 q 595 521 492 519 q 686 477 669 521 q 689 458 689 468 q 669 406 688 427 q 563 419 627 419 q 480 411 510 419 z "},"/":{"ha":557,"x_min":0,"x_max":544,"o":"m 81 -210 l 544 963 l 463 963 l 0 -210 l 81 -210 z "}," ":{"ha":264,"x_min":0,"x_max":0,"o":""},"£":{"ha":779,"x_min":68,"x_max":745,"o":"m 745 203 l 716 203 q 541 104 674 109 q 307 146 449 104 q 320 270 320 203 q 312 407 320 316 l 522 407 l 522 446 l 308 446 q 297 598 297 552 q 419 791 297 780 q 435 791 427 791 q 537 724 514 791 q 547 686 541 712 q 582 612 559 627 q 621 602 598 602 q 686 650 671 602 q 690 675 690 662 q 585 802 690 760 q 449 827 522 827 q 197 707 267 827 q 164 576 164 650 q 184 446 164 518 l 87 446 l 87 407 l 197 407 q 244 232 239 264 q 251 161 251 194 q 172 175 199 175 q 72 114 92 175 q 68 84 68 99 q 115 9 68 33 q 159 0 136 0 q 286 91 240 0 q 289 98 288 95 q 335 71 304 90 q 515 -9 450 1 q 552 -12 534 -12 q 726 96 681 -12 q 745 203 745 142 m 157 38 q 113 72 121 38 q 111 83 111 77 q 149 134 111 122 q 170 137 160 137 q 247 118 208 137 q 179 42 232 57 q 157 38 168 38 z "},"∑":{"ha":629,"x_min":7,"x_max":623,"o":"m 620 -176 l 620 69 l 590 69 l 571 -8 q 499 -76 557 -64 q 427 -81 471 -81 l 88 -81 l 456 366 l 151 779 l 406 779 q 524 736 490 779 q 562 652 545 708 l 581 589 l 606 589 l 623 814 l 7 814 l 7 783 l 354 316 l 7 -109 l 7 -176 l 620 -176 z "},"t":{"ha":441,"x_min":27,"x_max":434,"o":"m 27 543 l 122 543 l 122 160 q 278 -15 132 -9 q 434 138 403 -15 q 434 141 434 140 l 397 148 q 298 26 363 35 q 224 130 225 28 l 224 543 l 434 543 l 434 576 l 224 576 l 224 734 l 122 705 l 122 576 l 27 576 l 27 543 z "},"ť":{"ha":441,"x_min":27,"x_max":434,"o":"m 27 543 l 122 543 l 122 160 q 278 -15 132 -9 q 434 138 403 -15 q 434 141 434 140 l 397 148 q 298 26 363 35 q 224 130 225 28 l 224 543 l 434 543 l 434 576 l 224 576 l 224 734 l 122 705 l 122 576 l 27 576 l 27 543 m 427 811 q 372 906 427 888 q 345 910 358 910 q 279 867 298 910 q 273 836 273 852 q 324 769 273 785 q 334 766 330 768 q 368 742 366 758 q 301 633 366 701 l 334 612 q 427 811 422 711 z "},"þ":{"ha":755,"x_min":41,"x_max":701,"o":"m 248 -222 l 248 57 q 420 -14 323 -8 q 623 77 541 -14 q 701 301 701 165 q 616 536 701 456 q 471 590 556 590 q 274 486 339 590 q 247 429 258 458 l 247 882 l 41 882 l 41 846 l 146 846 l 146 -152 q 100 -218 146 -208 q 43 -222 80 -222 l 43 -258 l 378 -258 q 361 -224 378 -227 q 346 -222 354 -222 l 248 -222 m 427 536 q 576 388 545 536 q 586 288 586 343 q 479 35 586 88 q 411 20 448 20 q 267 130 307 20 q 247 262 247 186 q 338 506 247 438 q 427 536 378 536 z "},"¾":{"ha":1004,"x_min":54,"x_max":937,"o":"m 396 808 l 396 826 l 68 826 l 65 684 l 85 684 l 102 723 q 148 751 113 750 q 170 751 156 751 l 305 751 l 157 601 l 176 585 q 235 598 205 598 q 319 496 317 595 q 210 361 316 362 q 161 404 170 361 q 159 423 160 410 q 130 483 152 473 q 104 488 118 488 q 54 441 60 480 q 140 346 54 370 q 209 336 172 336 q 374 397 312 336 q 418 500 418 441 q 336 612 418 581 q 262 624 302 624 q 209 618 232 624 l 396 808 m 251 -39 l 844 827 l 804 854 l 210 -14 l 251 -39 m 937 -61 q 922 -34 937 -37 q 910 -33 917 -33 l 848 -33 l 848 68 l 937 68 l 937 99 l 848 99 l 848 269 l 827 269 l 818 244 q 780 201 803 206 q 764 198 772 198 l 757 198 l 757 99 l 559 100 q 609 141 575 114 q 849 408 849 334 q 803 454 846 453 q 750 415 770 454 q 735 384 746 406 q 595 174 681 262 q 515 100 559 136 l 522 69 l 757 68 l 757 -33 l 658 -33 l 658 -61 l 937 -61 z "},"³":{"ha":492,"x_min":54,"x_max":418,"o":"m 396 863 l 396 880 l 68 880 l 65 738 l 85 738 l 102 777 q 148 806 113 804 q 170 806 156 806 l 305 806 l 157 655 l 176 639 q 235 652 205 652 q 319 551 317 650 q 210 415 316 416 q 161 458 170 415 q 159 477 160 464 q 130 537 152 528 q 104 543 118 543 q 54 495 60 534 q 140 400 54 425 q 209 391 172 391 q 374 452 312 391 q 418 555 418 495 q 336 666 418 635 q 262 678 302 678 q 209 673 232 678 l 396 863 z "},"˜":{"ha":678,"x_min":152,"x_max":544,"o":"m 273 859 q 369 815 313 859 q 442 779 416 779 q 513 848 492 779 q 515 856 514 852 l 544 849 q 422 704 513 705 q 327 747 381 704 q 251 784 279 784 q 183 720 203 784 q 179 707 180 713 l 152 713 q 273 859 183 857 z "},"™":{"ha":772,"x_min":34,"x_max":738,"o":"m 262 494 q 244 513 259 511 l 212 513 l 212 795 l 221 795 q 273 761 259 795 q 278 747 275 757 l 294 700 l 315 700 l 312 814 l 37 814 l 34 700 l 54 700 l 71 747 q 102 791 84 784 q 127 795 114 795 l 137 795 l 137 513 l 87 513 l 87 494 l 262 494 m 529 488 l 632 757 l 632 513 l 595 513 l 595 494 l 738 494 q 722 513 735 511 l 704 513 l 704 795 l 738 795 l 738 814 l 629 814 l 543 587 l 430 814 l 342 814 l 342 795 l 377 795 l 377 513 l 342 513 l 342 494 l 445 494 q 427 513 442 511 l 403 513 l 403 705 l 517 488 l 529 488 z "},"²":{"ha":460,"x_min":41,"x_max":385,"o":"m 103 522 q 176 585 103 547 q 311 662 282 640 q 374 768 373 712 q 274 880 374 854 q 208 888 243 888 q 61 836 106 888 q 41 781 41 811 q 87 735 43 736 q 136 776 132 735 q 138 795 137 781 q 161 853 140 842 q 198 861 176 861 q 270 806 262 861 q 273 776 273 792 q 193 640 273 700 q 155 613 180 631 q 58 528 80 563 q 42 464 42 498 l 42 446 l 384 446 l 385 590 l 369 590 l 355 556 q 317 524 345 528 q 281 522 304 522 l 103 522 z "},"u":{"ha":769,"x_min":27,"x_max":732,"o":"m 699 34 l 631 34 l 631 576 l 418 576 l 418 543 l 529 543 l 529 250 q 444 71 529 127 q 365 45 406 45 q 236 159 254 45 q 233 199 233 178 l 233 576 l 27 576 l 27 543 l 132 543 l 132 220 q 326 -14 133 -12 q 492 69 427 -14 q 532 138 517 100 l 541 0 l 732 0 q 712 33 732 30 q 699 34 707 34 z "},"ú":{"ha":769,"x_min":27,"x_max":732,"o":"m 699 34 l 631 34 l 631 576 l 418 576 l 418 543 l 529 543 l 529 250 q 444 71 529 127 q 365 45 406 45 q 236 159 254 45 q 233 199 233 178 l 233 576 l 27 576 l 27 543 l 132 543 l 132 220 q 326 -14 133 -12 q 492 69 427 -14 q 532 138 517 100 l 541 0 l 732 0 q 712 33 732 30 q 699 34 707 34 m 507 791 q 525 829 524 810 q 488 883 525 864 q 463 890 475 890 q 423 872 441 888 q 358 776 412 861 q 285 678 319 715 l 307 655 q 454 753 339 681 q 507 791 492 777 z "}}}
